<svg width="68" height="91" viewBox="0 0 68 91" fill="none" xmlns="http://www.w3.org/2000/svg">
<path opacity="0.5" d="M11.43 75.4654C11.3465 74.7242 11.002 74.1499 10.3964 73.7428C9.79091 73.3304 9.02877 73.1242 8.11002 73.1242C7.45229 73.1242 6.88329 73.2286 6.40304 73.4374C5.92278 73.641 5.54954 73.9229 5.28331 74.2831C5.02231 74.638 4.8918 75.0426 4.8918 75.4967C4.8918 75.8778 4.98054 76.2067 5.15803 76.4834C5.34074 76.76 5.57825 76.9923 5.87058 77.1802C6.16813 77.3629 6.48656 77.5169 6.82587 77.6422C7.16518 77.7623 7.49144 77.8615 7.80465 77.9398L9.37069 78.3469C9.88226 78.4722 10.4069 78.6419 10.9446 78.8559C11.4822 79.0699 11.9808 79.3518 12.4401 79.7016C12.8995 80.0513 13.2701 80.4846 13.552 81.0014C13.8391 81.5182 13.9827 82.1368 13.9827 82.8572C13.9827 83.7655 13.7478 84.572 13.278 85.2767C12.8134 85.9814 12.1374 86.5374 11.2499 86.9445C10.3677 87.3517 9.30022 87.5553 8.04738 87.5553C6.84675 87.5553 5.80794 87.3648 4.93095 86.9837C4.05397 86.6026 3.36752 86.0623 2.8716 85.3628C2.37569 84.6581 2.10163 83.8229 2.04943 82.8572H4.4768C4.52378 83.4366 4.71171 83.9195 5.04058 84.3057C5.37467 84.6868 5.80011 84.9713 6.3169 85.1592C6.83892 85.3419 7.41052 85.4333 8.03172 85.4333C8.71556 85.4333 9.32371 85.3263 9.85616 85.1123C10.3938 84.893 10.8167 84.5902 11.1247 84.204C11.4326 83.8124 11.5866 83.3557 11.5866 82.8337C11.5866 82.3586 11.4509 81.9697 11.1795 81.667C10.9132 81.3642 10.5504 81.1136 10.0911 80.9153C9.63692 80.7169 9.12273 80.542 8.54852 80.3906L6.6536 79.8738C5.36945 79.5241 4.35152 79.0099 3.59982 78.3313C2.85333 77.6527 2.48009 76.7548 2.48009 75.6377C2.48009 74.7137 2.73066 73.9072 3.23179 73.2181C3.73293 72.5291 4.41155 71.994 5.26765 71.613C6.12376 71.2267 7.08949 71.0335 8.16484 71.0335C9.25063 71.0335 10.2085 71.2241 11.0385 71.6051C11.8738 71.9862 12.5315 72.5108 13.0117 73.179C13.492 73.842 13.7426 74.6041 13.7634 75.4654H11.43ZM30.804 79.2709C30.804 80.9831 30.4908 82.4552 29.8643 83.6872C29.2379 84.9139 28.3792 85.8587 27.2882 86.5217C26.2024 87.1794 24.9678 87.5083 23.5845 87.5083C22.1959 87.5083 20.9562 87.1794 19.8651 86.5217C18.7794 85.8587 17.9233 84.9113 17.2968 83.6793C16.6704 82.4474 16.3572 80.9779 16.3572 79.2709C16.3572 77.5587 16.6704 76.0892 17.2968 74.8625C17.9233 73.6305 18.7794 72.6857 19.8651 72.028C20.9562 71.365 22.1959 71.0335 23.5845 71.0335C24.9678 71.0335 26.2024 71.365 27.2882 72.028C28.3792 72.6857 29.2379 73.6305 29.8643 74.8625C30.4908 76.0892 30.804 77.5587 30.804 79.2709ZM28.4079 79.2709C28.4079 77.9659 28.1965 76.867 27.7737 75.9744C27.3561 75.0765 26.7818 74.3979 26.051 73.9385C25.3254 73.4739 24.5033 73.2416 23.5845 73.2416C22.6605 73.2416 21.8358 73.4739 21.1102 73.9385C20.3846 74.3979 19.8103 75.0765 19.3875 75.9744C18.9699 76.867 18.7611 77.9659 18.7611 79.2709C18.7611 80.576 18.9699 81.6774 19.3875 82.5753C19.8103 83.4679 20.3846 84.1465 21.1102 84.6111C21.8358 85.0705 22.6605 85.3002 23.5845 85.3002C24.5033 85.3002 25.3254 85.0705 26.051 84.6111C26.7818 84.1465 27.3561 83.4679 27.7737 82.5753C28.1965 81.6774 28.4079 80.576 28.4079 79.2709ZM47.1398 76.4677H44.6967C44.6028 75.9457 44.4279 75.4863 44.1721 75.0896C43.9163 74.6928 43.6031 74.3561 43.2325 74.0795C42.8619 73.8028 42.4469 73.594 41.9875 73.4531C41.5333 73.3121 41.0505 73.2416 40.5389 73.2416C39.6149 73.2416 38.7875 73.4739 38.0567 73.9385C37.3311 74.4031 36.7569 75.0844 36.3341 75.9822C35.9165 76.8801 35.7076 77.9763 35.7076 79.2709C35.7076 80.576 35.9165 81.6774 36.3341 82.5753C36.7569 83.4731 37.3337 84.1518 38.0645 84.6111C38.7954 85.0705 39.6175 85.3002 40.5311 85.3002C41.0374 85.3002 41.5177 85.2323 41.9718 85.0966C42.4312 84.9557 42.8462 84.7495 43.2168 84.478C43.5875 84.2066 43.9007 83.8751 44.1565 83.4836C44.4175 83.0868 44.5976 82.6327 44.6967 82.1211L47.1398 82.1289C47.0093 82.9172 46.7561 83.6428 46.3802 84.3057C46.0096 84.9635 45.532 85.5325 44.9473 86.0127C44.3679 86.4878 43.7049 86.8558 42.9584 87.1168C42.212 87.3778 41.3976 87.5083 40.5154 87.5083C39.1268 87.5083 37.8897 87.1794 36.8039 86.5217C35.7181 85.8587 34.862 84.9113 34.2356 83.6793C33.6144 82.4474 33.3038 80.9779 33.3038 79.2709C33.3038 77.5587 33.617 76.0892 34.2434 74.8625C34.8698 73.6305 35.7259 72.6857 36.8117 72.028C37.8975 71.365 39.1321 71.0335 40.5154 71.0335C41.3663 71.0335 42.1598 71.1562 42.8958 71.4015C43.6371 71.6417 44.3026 71.9966 44.8925 72.4664C45.4824 72.931 45.9705 73.5 46.3568 74.1734C46.743 74.8416 47.0041 75.6064 47.1398 76.4677ZM55.6512 87.2891V85.5351L61.0776 79.913C61.657 79.3022 62.1347 78.7672 62.5105 78.3078C62.8916 77.8432 63.1761 77.4021 63.364 76.9845C63.5519 76.5669 63.6459 76.1232 63.6459 75.6534C63.6459 75.1209 63.5206 74.6615 63.27 74.2752C63.0195 73.8837 62.6775 73.5836 62.2443 73.3748C61.811 73.1607 61.3229 73.0537 60.78 73.0537C60.2058 73.0537 59.7047 73.1712 59.2766 73.4061C58.8486 73.641 58.5197 73.9725 58.29 74.4005C58.0603 74.8286 57.9455 75.3297 57.9455 75.9039H55.6356C55.6356 74.9277 55.86 74.0743 56.309 73.3434C56.7579 72.6126 57.3739 72.0462 58.1569 71.6443C58.9399 71.2371 59.83 71.0335 60.827 71.0335C61.8345 71.0335 62.7219 71.2345 63.4893 71.6364C64.2619 72.0332 64.8648 72.5761 65.2981 73.2651C65.7313 73.949 65.948 74.7216 65.948 75.5829C65.948 76.178 65.8357 76.76 65.6113 77.329C65.392 77.898 65.0083 78.5323 64.4602 79.2318C63.9121 79.926 63.15 80.7691 62.1738 81.7609L58.9869 85.0966V85.2141H66.2064V87.2891H55.6512Z" fill="#A0A0A0"/>
<g opacity="0.5">
<circle cx="34.2737" cy="30.5027" r="28.9855" stroke="#A0A0A0" stroke-width="2.35075"/>
<path d="M18.5825 26.1875H16.1467L18.8911 17.8732H21.9765L24.7208 26.1875H22.285L20.4662 20.1628H20.4013L18.5825 26.1875ZM18.1278 22.9072H22.7072V24.5961H18.1278V22.9072ZM27.7788 17.8732V26.1875H25.5216V17.8732H27.7788ZM36.6108 20.991H34.3211C34.3049 20.8016 34.2616 20.6297 34.1912 20.4754C34.1235 20.3212 34.0288 20.1886 33.907 20.0776C33.7879 19.9639 33.6431 19.8773 33.4726 19.8178C33.3021 19.7555 33.1086 19.7244 32.8921 19.7244C32.5132 19.7244 32.1924 19.8164 31.9299 20.0005C31.6701 20.1845 31.4725 20.4484 31.3372 20.7921C31.2046 21.1358 31.1383 21.5486 31.1383 22.0303C31.1383 22.5391 31.2059 22.9654 31.3413 23.3091C31.4793 23.6502 31.6782 23.9073 31.938 24.0805C32.1979 24.251 32.5105 24.3363 32.8758 24.3363C33.0842 24.3363 33.271 24.3105 33.4361 24.2591C33.6012 24.205 33.7446 24.1279 33.8664 24.0277C33.9882 23.9276 34.087 23.8071 34.1628 23.6664C34.2413 23.523 34.294 23.3619 34.3211 23.1833L36.6108 23.1995C36.5837 23.5514 36.4849 23.91 36.3144 24.2754C36.1439 24.638 35.9017 24.9736 35.5877 25.2822C35.2765 25.588 34.8908 25.8343 34.4307 26.0211C33.9706 26.2078 33.4361 26.3012 32.8271 26.3012C32.0639 26.3012 31.3791 26.1374 30.7729 25.8099C30.1693 25.4825 29.6916 25.0007 29.3398 24.3647C28.9907 23.7287 28.8161 22.9505 28.8161 22.0303C28.8161 21.1047 28.9947 20.3252 29.352 19.6919C29.7092 19.0559 30.191 18.5755 30.7972 18.2507C31.4035 17.9232 32.0801 17.7595 32.8271 17.7595C33.3522 17.7595 33.8353 17.8312 34.2764 17.9746C34.7176 18.1181 35.1046 18.3278 35.4375 18.6039C35.7704 18.8773 36.0384 19.2142 36.2414 19.6148C36.4443 20.0153 36.5675 20.4741 36.6108 20.991ZM37.6349 26.1875V17.8732H41.2237C41.8408 17.8732 42.3807 17.9949 42.8435 18.2385C43.3063 18.4821 43.6663 18.8245 43.9234 19.2656C44.1805 19.7068 44.3091 20.2224 44.3091 20.8124C44.3091 21.4078 44.1765 21.9234 43.9112 22.3592C43.6487 22.7949 43.2793 23.1305 42.8029 23.366C42.3293 23.6014 41.7758 23.7192 41.1425 23.7192H38.9989V21.9654H40.6878C40.953 21.9654 41.179 21.9194 41.3658 21.8273C41.5552 21.7326 41.7 21.5986 41.8002 21.4254C41.903 21.2522 41.9544 21.0479 41.9544 20.8124C41.9544 20.5742 41.903 20.3712 41.8002 20.2034C41.7 20.0329 41.5552 19.903 41.3658 19.8137C41.179 19.7217 40.953 19.6757 40.6878 19.6757H39.8921V26.1875H37.6349ZM46.2588 26.1875H43.8229L46.5673 17.8732H49.6527L52.3971 26.1875H49.9612L48.1425 20.1628H48.0775L46.2588 26.1875ZM45.8041 22.9072H50.3835V24.5961H45.8041V22.9072Z" fill="#A0A0A0"/>
<path d="M17.4877 31.4258H51.0611" stroke="#A0A0A0" stroke-width="1.11912"/>
<path d="M26.5426 38.948C26.521 38.6773 26.4195 38.4662 26.2382 38.3146C26.0595 38.1631 25.7875 38.0873 25.4222 38.0873C25.1894 38.0873 24.9986 38.1157 24.8497 38.1725C24.7036 38.2267 24.5953 38.3011 24.525 38.3958C24.4546 38.4906 24.418 38.5988 24.4153 38.7206C24.4099 38.8207 24.4275 38.9114 24.4681 38.9926C24.5114 39.0711 24.5791 39.1428 24.6711 39.2078C24.7631 39.27 24.8809 39.3269 25.0243 39.3783C25.1677 39.4297 25.3383 39.4757 25.5358 39.5163L26.2179 39.6625C26.678 39.7599 27.0718 39.8885 27.3992 40.0481C27.7267 40.2078 27.9947 40.3959 28.2031 40.6124C28.4115 40.8263 28.5644 41.0671 28.6618 41.3351C28.762 41.603 28.8134 41.8953 28.8161 42.212C28.8134 42.7587 28.6767 43.2215 28.4061 43.6004C28.1354 43.9793 27.7484 44.2676 27.245 44.4651C26.7443 44.6627 26.1421 44.7615 25.4384 44.7615C24.7158 44.7615 24.0851 44.6546 23.5466 44.4408C23.0107 44.227 22.5939 43.8981 22.2962 43.4543C22.0011 43.0077 21.8523 42.4366 21.8496 41.7411H23.9931C24.0067 41.9955 24.0703 42.2093 24.1839 42.3825C24.2976 42.5557 24.4573 42.687 24.663 42.7763C24.8714 42.8656 25.119 42.9103 25.4059 42.9103C25.6468 42.9103 25.8484 42.8805 26.0108 42.8209C26.1732 42.7614 26.2964 42.6789 26.3803 42.5733C26.4642 42.4677 26.5075 42.3473 26.5102 42.212C26.5075 42.0848 26.4655 41.9738 26.3843 41.8791C26.3058 41.7816 26.1759 41.695 25.9946 41.6193C25.8132 41.5408 25.5683 41.4677 25.2598 41.4L24.4316 41.2214C23.6954 41.0617 23.1149 40.7951 22.69 40.4216C22.2677 40.0454 22.058 39.5326 22.0607 38.883C22.058 38.3552 22.1987 37.8938 22.4829 37.4986C22.7698 37.1008 23.1663 36.7909 23.6724 36.5689C24.1812 36.347 24.7645 36.236 25.4222 36.236C26.0934 36.236 26.6739 36.3484 27.1638 36.573C27.6537 36.7976 28.0312 37.1143 28.2965 37.523C28.5644 37.929 28.6997 38.4039 28.7024 38.948H26.5426ZM37.7293 40.5069C37.7293 41.4325 37.5493 42.2133 37.1893 42.8494C36.8293 43.4827 36.3435 43.9631 35.7319 44.2906C35.1202 44.6153 34.4382 44.7777 33.6858 44.7777C32.9279 44.7777 32.2432 44.614 31.6315 44.2865C31.0226 43.9563 30.5381 43.4746 30.1781 42.8412C29.8209 42.2052 29.6423 41.4271 29.6423 40.5069C29.6423 39.5813 29.8209 38.8018 30.1781 38.1685C30.5381 37.5325 31.0226 37.0521 31.6315 36.7273C32.2432 36.3998 32.9279 36.236 33.6858 36.236C34.4382 36.236 35.1202 36.3998 35.7319 36.7273C36.3435 37.0521 36.8293 37.5325 37.1893 38.1685C37.5493 38.8018 37.7293 39.5813 37.7293 40.5069ZM35.4071 40.5069C35.4071 40.0089 35.3408 39.5894 35.2082 39.2484C35.0782 38.9046 34.8847 38.6448 34.6276 38.4689C34.3732 38.2903 34.0592 38.201 33.6858 38.201C33.3123 38.201 32.997 38.2903 32.7398 38.4689C32.4854 38.6448 32.2919 38.9046 32.1593 39.2484C32.0294 39.5894 31.9644 40.0089 31.9644 40.5069C31.9644 41.0049 32.0294 41.4257 32.1593 41.7695C32.2919 42.1105 32.4854 42.3703 32.7398 42.5489C32.997 42.7249 33.3123 42.8128 33.6858 42.8128C34.0592 42.8128 34.3732 42.7249 34.6276 42.5489C34.8847 42.3703 35.0782 42.1105 35.2082 41.7695C35.3408 41.4257 35.4071 41.0049 35.4071 40.5069ZM46.5358 39.4676H44.2461C44.2299 39.2781 44.1866 39.1063 44.1162 38.952C44.0486 38.7977 43.9538 38.6651 43.8321 38.5542C43.713 38.4405 43.5682 38.3539 43.3977 38.2943C43.2272 38.2321 43.0336 38.201 42.8171 38.201C42.4382 38.201 42.1175 38.293 41.855 38.477C41.5951 38.6611 41.3976 38.9249 41.2622 39.2687C41.1296 39.6124 41.0633 40.0251 41.0633 40.5069C41.0633 41.0157 41.131 41.442 41.2663 41.7857C41.4043 42.1267 41.6033 42.3838 41.8631 42.5571C42.1229 42.7276 42.4355 42.8128 42.8009 42.8128C43.0093 42.8128 43.196 42.7871 43.3611 42.7357C43.5262 42.6816 43.6697 42.6044 43.7915 42.5043C43.9132 42.4041 44.012 42.2837 44.0878 42.143C44.1663 41.9995 44.2191 41.8385 44.2461 41.6599L46.5358 41.6761C46.5088 42.0279 46.41 42.3865 46.2395 42.7519C46.069 43.1146 45.8267 43.4502 45.5128 43.7587C45.2015 44.0646 44.8159 44.3109 44.3558 44.4976C43.8957 44.6844 43.3611 44.7777 42.7522 44.7777C41.9889 44.7777 41.3042 44.614 40.6979 44.2865C40.0944 43.959 39.6167 43.4773 39.2648 42.8412C38.9157 42.2052 38.7411 41.4271 38.7411 40.5069C38.7411 39.5813 38.9198 38.8018 39.277 38.1685C39.6343 37.5325 40.116 37.0521 40.7223 36.7273C41.3285 36.3998 42.0052 36.236 42.7522 36.236C43.2772 36.236 43.7603 36.3078 44.2015 36.4512C44.6426 36.5947 45.0297 36.8044 45.3626 37.0805C45.6955 37.3538 45.9634 37.6908 46.1664 38.0913C46.3694 38.4919 46.4925 38.9507 46.5358 39.4676Z" fill="#A0A0A0"/>
</g>
</svg>
