<svg width="68" height="96" viewBox="0 0 68 96" fill="none" xmlns="http://www.w3.org/2000/svg">
<path opacity="0.5" d="M15.8762 81.3189C15.7249 80.8439 15.5213 80.4184 15.2655 80.0426C15.0149 79.6615 14.7148 79.3379 14.365 79.0716C14.0153 78.8002 13.6159 78.594 13.167 78.4531C12.7233 78.3121 12.2352 78.2416 11.7027 78.2416C10.7997 78.2416 9.98531 78.4739 9.25971 78.9385C8.53411 79.4031 7.95989 80.0844 7.53706 80.9822C7.11945 81.8749 6.91064 82.9685 6.91064 84.2631C6.91064 85.5629 7.12206 86.6617 7.54489 87.5596C7.96772 88.4575 8.54716 89.1387 9.2832 89.6033C10.0192 90.0679 10.8571 90.3002 11.7967 90.3002C12.6685 90.3002 13.428 90.1227 14.0753 89.7677C14.7278 89.4128 15.2316 88.9116 15.5865 88.2643C15.9467 87.6118 16.1268 86.8444 16.1268 85.9622L16.7532 86.0797H12.1647V84.083H18.4681V85.9074C18.4681 87.2542 18.1809 88.4235 17.6067 89.4154C17.0377 90.402 16.2495 91.1641 15.242 91.7018C14.2397 92.2395 13.0913 92.5083 11.7967 92.5083C10.3455 92.5083 9.07178 92.1742 7.97555 91.506C6.88454 90.8379 6.03366 89.8904 5.4229 88.6637C4.81214 87.4317 4.50676 85.9701 4.50676 84.2787C4.50676 82.9998 4.68425 81.8514 5.03922 80.8334C5.39419 79.8155 5.89271 78.9516 6.53479 78.2416C7.18209 77.5265 7.94162 76.981 8.81339 76.6051C9.69037 76.2241 10.6483 76.0335 11.6871 76.0335C12.5536 76.0335 13.3601 76.1614 14.1066 76.4172C14.8583 76.673 15.5265 77.0358 16.1112 77.5056C16.701 77.9754 17.1891 78.534 17.5754 79.1813C17.9617 79.8233 18.2227 80.5359 18.3584 81.3189H15.8762ZM26.7309 92.2891H21.5395V76.2528H26.8953C28.4666 76.2528 29.816 76.5738 30.9436 77.2159C32.0711 77.8527 32.935 78.7689 33.5354 79.9643C34.1409 81.1545 34.4437 82.5822 34.4437 84.2474C34.4437 85.9179 34.1383 87.3534 33.5275 88.554C32.922 89.7547 32.045 90.6786 30.8966 91.3259C29.7481 91.968 28.3596 92.2891 26.7309 92.2891ZM23.959 90.1749H26.5978C27.8193 90.1749 28.8346 89.9452 29.6437 89.4858C30.4529 89.0212 31.0584 88.3505 31.4604 87.4735C31.8623 86.5913 32.0633 85.5159 32.0633 84.2474C32.0633 82.9894 31.8623 81.9218 31.4604 81.0449C31.0636 80.1679 30.4711 79.5023 29.6829 79.0482C28.8946 78.594 27.9159 78.3669 26.7466 78.3669H23.959V90.1749ZM37.4524 92.2891V76.2528H43.1685C44.4161 76.2528 45.4497 76.4798 46.2693 76.934C47.0888 77.3881 47.7022 78.0093 48.1094 78.7976C48.5165 79.5806 48.7201 80.4628 48.7201 81.4442C48.7201 82.4308 48.5139 83.3182 48.1015 84.1065C47.6944 84.8895 47.0784 85.5107 46.2536 85.9701C45.434 86.4242 44.4031 86.6513 43.1607 86.6513H39.2299V84.5998H42.9414C43.7297 84.5998 44.3691 84.4641 44.8598 84.1926C45.3505 83.9159 45.7107 83.5401 45.9404 83.0651C46.1701 82.59 46.2849 82.0497 46.2849 81.4442C46.2849 80.8387 46.1701 80.301 45.9404 79.8312C45.7107 79.3614 45.3479 78.9933 44.852 78.7271C44.3613 78.4609 43.714 78.3278 42.9101 78.3278H39.872V92.2891H37.4524ZM51.5566 92.2891V76.2528H57.2727C58.5151 76.2528 59.5461 76.4668 60.3656 76.8948C61.1904 77.3229 61.8064 77.9154 62.2136 78.6723C62.6207 79.424 62.8243 80.2932 62.8243 81.2798C62.8243 82.2612 62.6181 83.1251 62.2057 83.8716C61.7986 84.6128 61.1826 85.1897 60.3578 85.6021C59.5382 86.0144 58.5072 86.2206 57.2649 86.2206H52.9347V84.1378H57.0456C57.8286 84.1378 58.4655 84.0256 58.9562 83.8011C59.4521 83.5766 59.8149 83.2504 60.0446 82.8223C60.2743 82.3943 60.3891 81.8801 60.3891 81.2798C60.3891 80.6742 60.2717 80.1496 60.0368 79.7059C59.8071 79.2622 59.4443 78.9229 58.9484 78.688C58.4577 78.4478 57.813 78.3278 57.0143 78.3278H53.9762V92.2891H51.5566ZM59.473 85.0539L63.4351 92.2891H60.6788L56.795 85.0539H59.473Z" fill="#A0A0A0"/>
<g opacity="0.5">
<path d="M63.2228 33.396L62.7194 31.3613L61.1121 32.7117L59.0197 32.5622L59.8063 34.5077L59.0197 36.4506L61.1121 36.3038L62.7194 37.6541L63.2228 35.6168L65.0031 34.5077L63.2228 33.396Z" fill="#A0A0A0"/>
<path d="M31.748 9.1833L33.6935 8.39406L35.639 9.1833L35.4896 7.09092L36.8399 5.48364L34.8026 4.98021L33.6935 3.19727L32.5844 4.98021L30.5471 5.48364L31.8974 7.09092L31.748 9.1833Z" fill="#A0A0A0"/>
<path d="M34.8026 61.6169L33.6935 59.834L32.5844 61.6169L30.5471 62.1204L31.8974 63.7276L31.7479 65.82L33.6934 65.0308L35.639 65.82L35.4895 63.7276L36.8398 62.1204L34.8026 61.6169Z" fill="#A0A0A0"/>
<path d="M58.5097 44.6289L57.1122 46.1942L55.0198 46.3437L56.0764 48.1555L55.573 50.1928L57.6234 49.7497L59.4038 50.8588L59.6162 48.769L61.2208 47.4187L59.3015 46.5718L58.5097 44.6289Z" fill="#A0A0A0"/>
<path d="M45.8676 11.4246L47.2206 13.0292L48.0674 11.1099L50.0103 10.318L48.445 8.92051L48.2956 6.82812L46.4838 7.88479L44.4464 7.38136L44.8895 9.43179L43.7805 11.2121L45.8676 11.4246Z" fill="#A0A0A0"/>
<path d="M49.4644 56.6174L47.4481 57.1917L45.5969 56.2031L45.5235 58.2981L44.008 59.7507L45.9798 60.4718L46.8949 62.3597L48.1875 60.7078L50.2668 60.422L49.0948 58.6809L49.4644 56.6174Z" fill="#A0A0A0"/>
<path d="M56.9552 23.3134L58.6935 22.1388L60.7597 22.5111L60.1828 20.4922L61.174 18.6436L59.0764 18.5676L57.6237 17.0547L56.9053 19.0264L55.0148 19.9415L56.6667 21.2342L56.9552 23.3134Z" fill="#A0A0A0"/>
<path d="M8.21188 36.4506L7.42525 34.5077L8.21188 32.5622L6.11949 32.7117L4.51483 31.3613L4.00878 33.396L2.22845 34.5077L4.00878 35.6168L4.51483 37.6541L6.11949 36.3038L8.21188 36.4506Z" fill="#A0A0A0"/>
<path d="M10.1199 46.1942L8.72237 44.6289L7.93313 46.5718L6.01379 47.4187L7.61845 48.769L7.82822 50.8588L9.61116 49.7497L11.6616 50.1928L11.1582 48.1555L12.2122 46.3437L10.1199 46.1942Z" fill="#A0A0A0"/>
<path d="M20.0107 13.0292L21.3637 11.4245L23.4508 11.2121L22.3418 9.43179L22.7875 7.38136L20.7502 7.88479L18.9357 6.82812L18.7863 8.92051L17.2209 10.318L19.1665 11.1099L20.0107 13.0292Z" fill="#A0A0A0"/>
<path d="M21.6348 56.2031L19.7837 57.1917L17.7674 56.6174L18.1371 58.681L16.965 60.422L19.0443 60.7078L20.337 62.3597L21.2521 60.4718L23.2238 59.7508L21.7109 58.2981L21.6348 56.2031Z" fill="#A0A0A0"/>
<path d="M9.60511 17.0547L8.15249 18.5676L6.05487 18.6436L7.04602 20.4922L6.46917 22.5111L8.53531 22.1388L10.2764 23.3134L10.5622 21.2341L12.214 19.9415L10.3235 19.0264L9.60511 17.0547Z" fill="#A0A0A0"/>
<path d="M43.1313 30.8034V24.8882C43.1313 19.6756 38.9046 15.4492 33.6923 15.4492C28.4801 15.4492 24.2534 19.6759 24.2534 24.8882V30.8034C21.6209 33.3311 20.1106 36.8053 20.0582 40.4552C20.0083 44.1024 21.4243 47.6186 23.986 50.217C26.5477 52.8154 30.0428 54.2785 33.6927 54.2785C37.3427 54.2785 40.8381 52.8154 43.3995 50.217C45.9612 47.6186 47.3771 44.1024 47.3273 40.4552C47.2749 36.8053 45.7646 33.3313 43.1321 30.8034H43.1313ZM26.3503 24.8882C26.3503 20.8345 29.6383 17.5462 33.6923 17.5462C37.7463 17.5462 41.0343 20.8342 41.0343 24.8882V29.149C38.845 27.7383 36.2963 26.9858 33.6923 26.9858C31.0883 26.9858 28.5401 27.7383 26.3503 29.149V24.8882ZM33.6923 52.1572C30.5144 52.1598 27.4782 50.8514 25.2965 48.5388C23.1176 46.2288 21.9875 43.1191 22.1737 39.9463C22.3625 36.7763 23.8518 33.8213 26.2876 31.7841H26.3506V31.7264C28.4167 30.0194 31.0125 29.0834 33.6926 29.0834C36.3726 29.0834 38.9681 30.0194 41.0346 31.7264V31.7474H41.0582V31.75C43.5097 33.782 45.0122 36.7345 45.2088 39.9122C45.4055 43.0901 44.2807 46.2077 42.0991 48.5256C39.9176 50.846 36.8761 52.1597 33.6932 52.1571L33.6923 52.1572Z" fill="#A0A0A0"/>
<path d="M33.6934 30.1328C30.9115 30.1328 28.2448 31.2367 26.2783 33.2058C24.3091 35.1723 23.2053 37.8389 23.2053 40.621C23.2053 43.4031 24.3091 46.0695 26.2783 48.0361C28.2448 50.0053 30.9113 51.1091 33.6934 51.1091C36.4755 51.1091 39.142 50.0053 41.1086 48.0361C43.0777 46.0696 44.1816 43.4031 44.1816 40.621C44.179 37.839 43.0725 35.175 41.106 33.2085C39.1394 31.242 36.4754 30.1354 33.6934 30.1328ZM33.6934 49.0114C30.3005 49.0114 27.2406 46.9662 25.9426 43.8329C24.6421 40.697 25.3605 37.0863 27.7597 34.6873C30.1588 32.2882 33.7693 31.5697 36.9053 32.8703C40.0386 34.1682 42.0838 37.2281 42.0838 40.621C42.0785 45.2515 38.3239 49.006 33.6934 49.0114Z" fill="#A0A0A0"/>
<path d="M33.6917 37.4727C32.7425 37.47 31.9114 38.1046 31.6649 39.0223C31.4185 39.9374 31.8196 40.9049 32.6429 41.3769V43.7655C32.6429 44.345 33.1123 44.8143 33.6917 44.8143C34.2712 44.8143 34.7406 44.345 34.7406 43.7655V41.3769C35.5639 40.9049 35.965 39.9374 35.7185 39.0223C35.4721 38.1046 34.6409 37.47 33.6917 37.4727Z" fill="#A0A0A0"/>
</g>
</svg>
