<svg width="74" height="90" viewBox="0 0 74 90" fill="none" xmlns="http://www.w3.org/2000/svg">
<g opacity="0.5">
<path fill-rule="evenodd" clip-rule="evenodd" d="M13.8202 45.8858C15.143 47.8699 16.7303 49.5895 18.5821 51.0445C21.4921 50.2508 24.5344 49.7217 27.9735 49.3249C27.5767 48.2667 27.3121 47.0763 26.9153 45.8858H28.6349C28.8994 47.0763 29.2962 48.1345 29.5608 49.1926C31.8094 49.0604 34.0581 48.9281 36.439 48.9281C38.9522 48.9281 41.3331 49.0604 43.7141 49.1926C44.1109 48.1345 44.3754 47.0763 44.7723 45.8858H46.6241C46.3595 47.0763 45.9627 48.2667 45.5659 49.4572C48.8727 49.854 52.0473 50.3831 54.8251 51.1768C56.6769 49.5895 58.2642 47.8699 59.5869 45.8858H61.7033C56.4123 54.219 47.1532 59.6423 36.5713 59.6423C25.9894 59.6423 16.7303 54.0868 11.4393 45.8858H13.8202ZM36.5713 50.6477C34.4549 50.6477 32.3385 50.7799 30.3544 50.9122C32.2063 55.2772 34.5872 58.055 36.8358 58.055C39.0845 58.055 41.4654 55.4095 43.3172 51.0445C41.0686 50.7799 38.8199 50.6477 36.5713 50.6477ZM45.0368 51.1768C43.9786 53.9545 42.5236 56.2031 41.0686 57.6582C45.4336 56.9968 49.6664 55.0127 53.1055 52.4995C50.7246 51.8381 47.9468 51.4413 45.0368 51.1768ZM28.5026 51.0445C25.5926 51.309 22.8148 51.8381 20.3016 52.3672C23.7408 54.8804 27.9735 56.8645 32.4708 57.5259C31.0158 56.2032 29.5608 53.8222 28.5026 51.0445ZM31.2803 16.5211C32.9999 16.5211 34.7195 16.6533 37.1004 16.9179H43.185V24.722H36.9681V23.1347C36.0422 22.6057 33.9258 22.0766 31.6772 22.0766C28.7672 22.0766 27.709 22.8702 27.709 24.0607C27.709 28.558 44.3754 23.3993 44.3754 34.7748C44.3754 39.5367 41.2009 43.3726 31.8094 43.3726C30.0899 43.3726 27.9735 43.1081 25.7249 42.8435H20.0371V35.833H25.7249V36.8912C26.6508 37.4203 28.7672 37.9494 31.2803 37.9494C34.4549 37.9494 35.7777 37.1558 35.7777 35.9653C35.7777 31.7325 19.3757 36.6267 19.3757 25.2511C19.1112 19.0343 24.0053 16.5211 31.2803 16.5211ZM59.4546 16.5211C67.7879 16.5211 73.6079 21.2829 73.6079 29.8807C73.6079 38.4785 67.6556 43.2403 59.4546 43.2403C51.2537 43.2403 45.3013 38.4785 45.3013 29.8807C45.3013 21.2829 51.2537 16.5211 59.4546 16.5211ZM17.5239 17.1824V23.3993H13.2911V36.3621H17.5239V42.579H0.857422V36.3621H5.09018V23.3993H0.857422V17.1824H17.5239ZM59.4546 22.4734C56.1478 22.4734 54.1637 24.5898 54.1637 29.7484C54.1637 34.9071 56.2801 37.0235 59.4546 37.0235C62.7615 37.0235 64.7456 34.9071 64.7456 29.7484C64.7456 24.5898 62.7615 22.4734 59.4546 22.4734ZM36.8358 0.119141C47.4177 0.119141 56.6769 5.67463 61.9678 13.8756H59.8514C58.5287 11.8915 56.9414 10.1719 55.0896 8.71692C52.3119 9.51057 49.1373 10.0397 45.6982 10.4365C46.095 11.4947 46.3595 12.6851 46.7564 13.8756H44.9045C44.64 12.6851 44.2432 11.6269 43.9786 10.5688C41.73 10.701 39.4813 10.8333 37.1004 10.8333C34.5872 10.8333 32.2063 10.701 29.8253 10.5688C29.4285 11.6269 29.164 12.6851 28.7672 13.8756H26.9153C27.1799 12.6851 27.5767 11.4947 27.9735 10.3042C24.6667 9.90739 21.4921 9.37829 18.7144 8.58465C16.8625 10.1719 15.2752 11.8915 13.9525 13.8756H11.8361C16.9948 5.67463 26.254 0.119141 36.8358 0.119141ZM36.8358 1.8387C34.5872 1.8387 32.2063 4.48417 30.3544 8.8492C32.4708 8.98147 34.7195 9.11375 36.9681 9.11375C39.0845 9.11375 41.2009 8.98147 43.185 8.8492C41.3331 4.48417 39.0845 1.8387 36.8358 1.8387ZM41.0686 2.10324C42.5236 3.55825 43.9786 5.80691 45.0368 8.71692C47.9468 8.45238 50.7246 7.92328 53.2378 7.39419C49.7987 4.74872 45.5659 2.89689 41.0686 2.10324ZM32.4708 2.10324C28.1058 2.76461 23.873 4.74872 20.4339 7.26191C22.9471 7.92328 25.7249 8.3201 28.5026 8.71692C29.5608 5.80691 31.0158 3.55825 32.4708 2.10324Z" fill="#A0A0A0"/>
<path d="M4.93144 83.157V81.1994L11.8612 70.2528H13.4037V73.1343H12.425L7.46843 80.9802V81.1055H16.9665V83.157H4.93144ZM12.5346 86.2891V82.5619L12.5502 81.6692V70.2528H14.8445V86.2891H12.5346ZM19.6953 86.2891V84.5351L25.1217 78.913C25.7011 78.3022 26.1788 77.7672 26.5546 77.3078C26.9357 76.8432 27.2202 76.4021 27.4081 75.9845C27.596 75.5669 27.69 75.1232 27.69 74.6534C27.69 74.1209 27.5647 73.6615 27.3141 73.2752C27.0636 72.8837 26.7216 72.5836 26.2884 72.3748C25.8551 72.1607 25.367 72.0537 24.8241 72.0537C24.2499 72.0537 23.7488 72.1712 23.3207 72.4061C22.8927 72.641 22.5638 72.9725 22.3341 73.4005C22.1044 73.8286 21.9896 74.3297 21.9896 74.9039H19.6797C19.6797 73.9277 19.9041 73.0743 20.3531 72.3434C20.802 71.6126 21.418 71.0462 22.201 70.6443C22.984 70.2371 23.8741 70.0335 24.8711 70.0335C25.8786 70.0335 26.766 70.2345 27.5334 70.6364C28.306 71.0332 28.9089 71.5761 29.3422 72.2651C29.7754 72.949 29.9921 73.7216 29.9921 74.5829C29.9921 75.178 29.8798 75.76 29.6554 76.329C29.4361 76.898 29.0524 77.5323 28.5043 78.2318C27.9562 78.926 27.1941 79.7691 26.2179 80.7609L23.031 84.0966V84.2141H30.2505V86.2891H19.6953ZM38.8011 86.5553C37.5639 86.5501 36.5068 86.2238 35.6298 85.5765C34.7528 84.9292 34.0821 83.987 33.6175 82.7498C33.1529 81.5126 32.9206 80.0223 32.9206 78.2787C32.9206 76.5404 33.1529 75.0553 33.6175 73.8233C34.0873 72.5914 34.7607 71.6518 35.6377 71.0045C36.5199 70.3572 37.5743 70.0335 38.8011 70.0335C40.0278 70.0335 41.0797 70.3598 41.9567 71.0123C42.8336 71.6596 43.5044 72.5992 43.969 73.8312C44.4388 75.0579 44.6737 76.5404 44.6737 78.2787C44.6737 80.0275 44.4414 81.5205 43.9768 82.7576C43.5123 83.9896 42.8415 84.9318 41.9645 85.5843C41.0875 86.2316 40.033 86.5553 38.8011 86.5553ZM38.8011 84.4646C39.8869 84.4646 40.7351 83.9348 41.3459 82.8751C41.9619 81.8154 42.2699 80.2833 42.2699 78.2787C42.2699 76.9476 42.1289 75.8227 41.847 74.9039C41.5704 73.98 41.171 73.2805 40.649 72.8054C40.1322 72.3252 39.5162 72.085 38.8011 72.085C37.7205 72.085 36.8722 72.6175 36.2562 73.6824C35.6403 74.7473 35.3297 76.2794 35.3245 78.2787C35.3245 79.6151 35.4628 80.7453 35.7395 81.6692C36.0213 82.588 36.4207 83.2849 36.9375 83.7599C37.4543 84.2297 38.0755 84.4646 38.8011 84.4646ZM53.0345 86.5553C51.7973 86.5501 50.7402 86.2238 49.8632 85.5765C48.9862 84.9292 48.3154 83.987 47.8509 82.7498C47.3863 81.5126 47.154 80.0223 47.154 78.2787C47.154 76.5404 47.3863 75.0553 47.8509 73.8233C48.3207 72.5914 48.9941 71.6518 49.8711 71.0045C50.7533 70.3572 51.8077 70.0335 53.0345 70.0335C54.2612 70.0335 55.3131 70.3598 56.19 71.0123C57.067 71.6596 57.7378 72.5992 58.2024 73.8312C58.6722 75.0579 58.9071 76.5404 58.9071 78.2787C58.9071 80.0275 58.6748 81.5205 58.2102 82.7576C57.7456 83.9896 57.0749 84.9318 56.1979 85.5843C55.3209 86.2316 54.2664 86.5553 53.0345 86.5553ZM53.0345 84.4646C54.1203 84.4646 54.9685 83.9348 55.5793 82.8751C56.1953 81.8154 56.5033 80.2833 56.5033 78.2787C56.5033 76.9476 56.3623 75.8227 56.0804 74.9039C55.8038 73.98 55.4044 73.2805 54.8824 72.8054C54.3656 72.3252 53.7496 72.085 53.0345 72.085C51.9539 72.085 51.1056 72.6175 50.4896 73.6824C49.8737 74.7473 49.5631 76.2794 49.5578 78.2787C49.5578 79.6151 49.6962 80.7453 49.9728 81.6692C50.2547 82.588 50.6541 83.2849 51.1709 83.7599C51.6877 84.2297 52.3089 84.4646 53.0345 84.4646ZM67.769 70.2528V86.2891H65.3416V72.6801H65.2477L61.4108 75.1858V72.8681L65.4121 70.2528H67.769Z" fill="#A0A0A0"/>
</g>
</svg>
