<svg width="68" height="83" viewBox="0 0 68 83" fill="none" xmlns="http://www.w3.org/2000/svg">
<g clip-path="url(#clip0_1914_4080)">
<mask id="path-1-inside-1_1914_4080" fill="white">
<path d="M33.6805 65.3135C33.708 67.2391 33.7355 68.6421 33.763 69.3299C33.7905 69.4124 33.7905 69.5224 33.763 69.605C33.763 69.715 33.763 69.7975 33.763 69.7975C33.763 70.1827 33.818 70.5678 33.9281 70.9254C34.0381 70.5678 34.0931 70.1827 34.0931 69.7975C34.0931 69.66 34.1482 67.6518 34.2307 64.4331C34.2032 64.4606 34.1757 64.4882 34.1757 64.5157C33.9831 64.7632 33.818 65.0384 33.6805 65.3135ZM27.9585 25.1492C28.3986 24.6815 28.8113 24.1313 29.1139 23.5536C28.8938 24.0488 28.041 25.9195 28.8663 26.0845C29.7741 26.2496 30.792 25.9745 32.6351 23.6362C32.5801 20.6376 32.5251 18.0242 32.4976 16.0435H31.5072C31.4522 16.0435 31.4247 16.0435 31.3697 16.0435C30.8195 16.0435 29.9117 15.9884 29.3064 15.0806C28.6462 14.0903 28.6187 13.0724 28.5912 12.3296C28.5637 11.2568 28.2886 9.30356 26.9406 8.20317C26.0053 7.46041 23.4744 6.8827 21.136 7.81804C20.3658 8.12064 18.8252 8.91843 17.3122 9.66119C15.9367 10.3489 14.1761 11.2017 13.6259 11.2017C14.5337 10.7891 15.7441 10.1839 17.0646 9.44111C18.5776 8.61582 20.1732 7.73551 20.971 7.40539C22.5665 6.77267 25.6201 6.5801 27.1882 7.84555C28.6737 9.05598 28.9763 11.1467 29.0038 12.2746C29.0313 13.0174 29.0588 13.9252 29.6366 14.833C30.1592 15.6033 30.9845 15.6033 31.4797 15.6033H31.5897H32.4701C32.4701 15.3557 32.4701 15.1356 32.4701 14.888C31.5897 14.9431 30.3243 14.9981 29.7741 13.8152C29.1139 12.3847 29.8291 8.72586 27.6283 7.18531C25.4276 5.64477 21.9063 6.0299 18.7702 7.84555C15.6616 9.63368 11.5351 11.972 6.44582 14.0077C1.35651 16.0435 -1.80711 16.8687 -2.41233 16.9513C-2.99003 17.0613 -1.94466 17.4465 0.228609 17.5015C2.40188 17.5565 4.21753 17.3914 4.21753 17.3914L20.1732 10.1289C20.1732 10.1289 6.4183 16.9788 5.26289 17.7216C4.10748 18.4643 3.17215 18.7119 3.25468 19.3996C3.33721 20.0874 4.21752 20.0049 6.63838 19.9498C9.05924 19.8948 9.58193 19.6747 10.4072 19.4272C11.2325 19.1796 20.1732 15.0531 20.1732 15.0531C20.1732 15.0531 10.5998 19.8123 9.2243 20.9127C7.84881 22.0131 9.33434 22.3707 10.2697 22.3982C11.2325 22.4257 13.7909 22.2882 15.2214 21.5729C16.6519 20.8577 21.1085 17.9966 21.1085 17.9966C21.1085 17.9966 16.707 21.1603 15.8542 21.8755C15.1664 22.4532 14.8088 22.9484 14.9738 23.5536C15.2214 24.3239 16.5419 24.2414 18.3025 23.6086C18.3025 23.6086 20.1182 22.9759 20.8059 22.3707C21.4937 21.738 23.4193 20.0324 23.4193 20.0324C23.4193 20.0324 21.136 22.3982 20.5583 23.4161C20.0081 24.4339 19.8981 24.6815 20.1732 25.2592C20.5583 26.0845 23.4744 25.2317 24.2997 24.3514C24.9049 23.6637 25.4826 22.9484 26.0053 22.1781C26.0053 22.1781 25.1249 23.6086 24.9324 24.4339C24.7398 25.2592 24.5197 25.9195 25.3175 26.002C26.1978 26.1395 27.0231 26.1671 27.9585 25.1492ZM33.4054 43.8833C33.4879 43.8283 33.5704 43.7733 33.653 43.7183C33.818 43.6082 33.9556 43.5257 34.0656 43.4157C34.2857 43.2781 34.5058 43.1131 34.7259 42.9755C34.7534 41.4075 34.8084 39.8119 34.8359 38.2438C34.3957 38.0513 33.9281 37.8587 33.4329 37.6661C33.4054 37.6661 33.3779 37.6386 33.3504 37.6386C33.2954 37.6111 33.2678 37.6111 33.2128 37.5836C32.8827 37.4736 32.5801 37.336 32.2225 37.226C31.8098 37.0609 31.3972 36.9234 30.9845 36.7583C28.2336 38.2163 27.6834 38.9041 27.6834 40.2521C27.6834 42.1502 29.3064 43.003 32.1124 44.7912C32.5526 44.461 32.9927 44.1584 33.4054 43.8833ZM30.0217 40.4996C30.0217 40.4996 29.8291 39.2892 32.9377 37.8862C33.0203 37.8587 33.1028 37.8037 33.1853 37.7762C33.2128 39.6744 33.2403 41.5725 33.2954 43.4707C31.7548 42.4253 30.0217 41.435 30.0217 40.4996ZM34.7259 63.8554C34.5883 64.0205 34.4508 64.1856 34.3132 64.3231C35.111 65.396 35.056 66.4414 34.6158 67.7893C35.0285 67.3217 35.8538 66.1387 35.166 64.5982C35.0285 64.3506 34.8909 64.103 34.7259 63.8554ZM33.4604 52.5764C33.763 52.879 34.1206 53.2367 34.4783 53.5943C34.6983 53.8144 34.9184 54.0344 35.166 54.282C35.1935 54.3095 35.2485 54.3371 35.3036 54.3921C37.1742 52.769 38.8798 51.2285 38.8798 49.3028C38.8798 47.7897 37.4218 46.4142 35.9638 45.3139C35.8263 45.3964 35.6887 45.4789 35.5512 45.5889C35.221 45.809 34.9184 46.0016 34.6433 46.1942C34.6433 46.1942 34.6158 46.1942 34.6158 46.2217C34.5608 46.2767 34.4783 46.3042 34.4233 46.3592C34.0381 46.6343 33.6805 46.8819 33.3504 47.1295C33.4054 48.9726 33.4329 50.8158 33.4604 52.5764ZM34.6433 46.4968C36.459 47.8172 37.1742 48.67 37.1742 49.6054C37.1742 50.5682 36.1564 51.6961 34.5058 53.3467C34.5333 51.1459 34.5883 48.8626 34.6433 46.4968ZM44.6844 20.0599C44.6844 20.0599 46.6101 21.7655 47.2978 22.3982C47.9856 23.0309 49.8012 23.6362 49.8012 23.6362C51.5618 24.2689 52.8823 24.3514 53.1299 23.5811C53.3225 22.9759 52.9373 22.4532 52.2496 21.903C51.3968 21.1878 46.9952 18.0242 46.9952 18.0242C46.9952 18.0242 51.4518 20.8852 52.8823 21.6004C54.3128 22.3157 56.8712 22.4532 57.8341 22.4257C58.7969 22.3982 60.2549 22.0406 58.8794 20.9402C57.504 19.8398 47.9305 15.0806 47.9305 15.0806C47.9305 15.0806 56.8437 19.2346 57.6965 19.4547C58.5218 19.7023 59.0445 19.8948 61.4654 19.9774C63.8862 20.0324 64.739 20.1149 64.8491 19.4272C64.9591 18.7669 63.9963 18.5193 62.8408 17.7491C61.6854 17.0063 47.9305 10.1564 47.9305 10.1564L63.8862 17.4189C63.8862 17.4189 65.7019 17.584 67.8751 17.529C70.0484 17.474 71.0938 17.0888 70.5161 16.9788C69.9384 16.8687 66.7472 16.071 61.6579 14.0352C56.5686 11.9995 52.4422 9.6887 49.3335 7.87306C46.2249 6.08492 42.6762 5.67228 40.4754 7.21282C38.2746 8.75337 38.9899 12.3847 38.3296 13.8427C37.7794 15.0256 36.514 14.9706 35.6337 14.9156C35.6337 15.1356 35.6337 15.3832 35.6062 15.6308H36.514H36.624C37.1192 15.6308 37.9445 15.6308 38.4672 14.8605C39.0449 13.9802 39.0724 13.0449 39.0999 12.3021C39.1274 11.1742 39.43 9.08349 40.9156 7.87306C42.4836 6.60761 45.5372 6.80018 47.1328 7.4329C47.9305 7.73551 49.5261 8.61582 51.0392 9.46862C52.3596 10.2114 53.5701 10.8166 54.4779 11.2292C53.9002 11.2292 52.1671 10.3764 50.7916 9.6887C49.306 8.91843 47.7655 8.14815 46.9677 7.84555C44.6294 6.91022 42.0985 7.48792 41.1631 8.23068C39.7877 9.33107 39.5401 11.2843 39.5126 12.3571C39.485 13.0999 39.4575 14.1453 38.7973 15.1081C38.2196 16.0159 37.3118 16.071 36.7341 16.071C36.6791 16.071 36.6515 16.071 36.5965 16.071H35.6062C35.5512 18.0517 35.4961 20.6376 35.4411 23.5811C37.3118 25.9745 38.3847 26.2771 39.265 26.0845C40.0903 25.9195 39.265 24.0488 39.0174 23.5536C39.3475 24.1313 39.7326 24.654 40.1728 25.1492C41.0806 26.1671 41.9334 26.1395 42.7587 26.0295C43.584 25.9195 43.3364 25.2867 43.1438 24.4614C42.9513 23.6362 42.071 22.2056 42.071 22.2056C42.5937 22.9484 43.1714 23.6912 43.7766 24.3789C44.6019 25.2592 47.5179 26.1395 47.903 25.2867C48.1506 24.7365 48.0681 24.4614 47.5179 23.4436C46.9952 22.4257 44.6844 20.0599 44.6844 20.0599ZM34.0931 11.6419C34.5333 11.6419 34.9734 11.5043 35.3311 11.2568C35.6887 11.0092 35.9913 10.6515 36.1564 10.2664C36.3214 9.85376 36.3764 9.4136 36.2939 8.97345C36.2114 8.53329 35.9913 8.14815 35.6887 7.81804C35.3861 7.51543 34.9734 7.29535 34.5333 7.21282C34.0931 7.13029 33.653 7.1578 33.2403 7.35037C32.8277 7.51543 32.4701 7.81804 32.25 8.17566C32.0024 8.53329 31.8648 8.97345 31.8648 9.4136C31.8648 9.71621 31.9199 9.99131 32.0299 10.2664C32.1399 10.5415 32.305 10.7891 32.5251 10.9817C32.7452 11.2017 32.9652 11.3668 33.2403 11.4768C33.4879 11.5869 33.7905 11.6419 34.0931 11.6419ZM41.4107 28.3678C41.4107 28.3678 41.3557 26.8273 38.8523 26.6622C36.2939 26.4972 36.1839 27.5976 36.2389 28.0102C36.4315 28.0102 36.5965 28.0652 36.5965 28.1202C36.5965 28.1753 36.459 28.2303 36.2939 28.2303C36.4315 28.6429 36.8166 29.1381 37.917 29.6883C38.8248 30.1285 39.265 30.1009 39.7877 30.0184C39.7877 30.0184 40.3929 30.376 40.3929 30.9538C40.3929 31.5039 39.43 32.5768 34.9184 34.8326C35.1935 22.6733 35.4411 11.9995 35.4411 11.9995H35.7162C35.8262 11.9995 35.9363 11.9445 36.0188 11.862C36.1013 11.7794 36.1564 11.6694 36.1564 11.5594V11.4218C36.1564 11.3668 36.1564 11.3118 36.1289 11.2568C36.1013 11.2017 36.0738 11.1467 36.0188 11.1192C35.7712 11.3943 35.4961 11.6144 35.166 11.7794C34.8359 11.9445 34.4783 11.9995 34.1206 11.9995C33.763 11.9995 33.4054 11.917 33.0753 11.7794C32.7452 11.6419 32.4425 11.3943 32.2225 11.1192C32.1674 11.1742 32.1399 11.2017 32.1124 11.2568C32.0849 11.3118 32.0849 11.3668 32.0849 11.4218V11.5594C32.0849 11.6694 32.1399 11.7794 32.2225 11.862C32.305 11.9445 32.415 11.9995 32.5251 11.9995H32.8002C32.8002 11.9995 32.9927 22.3707 33.1853 34.3099C33.5704 34.5025 33.9556 34.6951 34.3957 34.9152C34.4508 34.9427 34.5333 34.9702 34.5883 34.9977C35.6062 35.4929 36.459 35.9055 37.1742 36.2906C39.5951 35.3553 41.9609 34.2824 42.6762 32.7694C43.9416 29.9634 41.4107 28.3678 41.4107 28.3678ZM38.0545 27.7351C37.7794 27.7351 37.5594 27.5976 37.5594 27.4325C37.5594 27.2674 37.7794 27.1299 38.0545 27.1299C38.3296 27.1299 38.5497 27.2674 38.5497 27.4325C38.5497 27.5976 38.3296 27.7351 38.0545 27.7351ZM33.6805 62.5625C33.9006 62.2874 34.0931 62.0123 34.3132 61.7647C34.3407 60.1966 34.3957 58.436 34.4233 56.5378C34.1482 56.2627 33.8455 55.9876 33.5154 55.685C33.4054 55.6025 33.3229 55.4925 33.2128 55.4099C33.0753 55.2724 32.9377 55.1623 32.8002 55.0523C32.0299 55.7676 30.5169 57.3631 30.5169 58.7386C30.5169 60.3617 32.0849 62.0123 33.2678 63.1952C33.3779 62.9476 33.5154 62.755 33.6805 62.5625ZM33.5154 56.0151C33.5704 58.3535 33.598 60.4992 33.6255 62.3424C32.7176 61.132 31.7548 59.894 31.7548 59.0412C31.7548 58.2434 32.2225 57.3356 33.5154 56.0151ZM34.1482 35.2728C28.7837 32.6869 27.6834 31.5039 27.6834 30.9262C27.6834 30.3485 28.2886 29.9909 28.2886 29.9909C28.8113 30.1009 29.2514 30.101 30.1592 29.6608C31.2596 29.1381 31.6448 28.6154 31.7823 28.2028C31.6173 28.2028 31.4797 28.1478 31.4797 28.0927C31.4797 28.0377 31.6448 27.9827 31.8373 27.9827V27.9552C31.8648 27.5425 31.7273 26.4697 29.1964 26.6347C26.693 26.7998 26.638 28.3403 26.638 28.3403C26.638 28.3403 24.1071 29.9634 25.4276 32.7144C26.583 35.1627 32.0024 36.4557 35.1385 37.8587C38.2471 39.2617 38.0545 40.4721 38.0545 40.4721C38.0545 41.5175 35.9638 42.6179 34.3132 43.7733C32.6626 44.9287 29.1689 46.9369 29.1689 49.3028C29.1689 51.476 31.3422 53.1541 33.4604 55.0248C35.6062 56.8955 36.2939 58.0234 36.2939 59.0687C36.2939 60.4992 33.9281 62.4249 32.7176 64.8183C31.5072 67.2116 33.9006 70.9254 33.1578 68.9723C32.3875 67.0191 32.8002 65.6436 33.7905 64.2681C35.001 62.59 37.5869 60.9394 37.5869 58.7111C37.5869 56.8404 34.8634 54.6397 34.8634 54.6397C32.4426 52.2188 30.902 50.8433 30.902 49.6329C30.902 48.4225 32.0574 47.3496 35.3036 45.2313C38.5222 43.1406 40.4204 42.3153 40.4204 40.2796C40.4204 38.4914 39.5126 37.8587 34.1482 35.2728ZM30.0217 27.1574C30.2968 27.1574 30.5169 27.295 30.5169 27.46C30.5169 27.6251 30.2968 27.7626 30.0217 27.7626C29.7466 27.7626 29.5265 27.6251 29.5265 27.46C29.5265 27.295 29.7466 27.1574 30.0217 27.1574Z"/>
</mask>
<path d="M33.6805 65.3135C33.708 67.2391 33.7355 68.6421 33.763 69.3299C33.7905 69.4124 33.7905 69.5224 33.763 69.605C33.763 69.715 33.763 69.7975 33.763 69.7975C33.763 70.1827 33.818 70.5678 33.9281 70.9254C34.0381 70.5678 34.0931 70.1827 34.0931 69.7975C34.0931 69.66 34.1482 67.6518 34.2307 64.4331C34.2032 64.4606 34.1757 64.4882 34.1757 64.5157C33.9831 64.7632 33.818 65.0384 33.6805 65.3135ZM27.9585 25.1492C28.3986 24.6815 28.8113 24.1313 29.1139 23.5536C28.8938 24.0488 28.041 25.9195 28.8663 26.0845C29.7741 26.2496 30.792 25.9745 32.6351 23.6362C32.5801 20.6376 32.5251 18.0242 32.4976 16.0435H31.5072C31.4522 16.0435 31.4247 16.0435 31.3697 16.0435C30.8195 16.0435 29.9117 15.9884 29.3064 15.0806C28.6462 14.0903 28.6187 13.0724 28.5912 12.3296C28.5637 11.2568 28.2886 9.30356 26.9406 8.20317C26.0053 7.46041 23.4744 6.8827 21.136 7.81804C20.3658 8.12064 18.8252 8.91843 17.3122 9.66119C15.9367 10.3489 14.1761 11.2017 13.6259 11.2017C14.5337 10.7891 15.7441 10.1839 17.0646 9.44111C18.5776 8.61582 20.1732 7.73551 20.971 7.40539C22.5665 6.77267 25.6201 6.5801 27.1882 7.84555C28.6737 9.05598 28.9763 11.1467 29.0038 12.2746C29.0313 13.0174 29.0588 13.9252 29.6366 14.833C30.1592 15.6033 30.9845 15.6033 31.4797 15.6033H31.5897H32.4701C32.4701 15.3557 32.4701 15.1356 32.4701 14.888C31.5897 14.9431 30.3243 14.9981 29.7741 13.8152C29.1139 12.3847 29.8291 8.72586 27.6283 7.18531C25.4276 5.64477 21.9063 6.0299 18.7702 7.84555C15.6616 9.63368 11.5351 11.972 6.44582 14.0077C1.35651 16.0435 -1.80711 16.8687 -2.41233 16.9513C-2.99003 17.0613 -1.94466 17.4465 0.228609 17.5015C2.40188 17.5565 4.21753 17.3914 4.21753 17.3914L20.1732 10.1289C20.1732 10.1289 6.4183 16.9788 5.26289 17.7216C4.10748 18.4643 3.17215 18.7119 3.25468 19.3996C3.33721 20.0874 4.21752 20.0049 6.63838 19.9498C9.05924 19.8948 9.58193 19.6747 10.4072 19.4272C11.2325 19.1796 20.1732 15.0531 20.1732 15.0531C20.1732 15.0531 10.5998 19.8123 9.2243 20.9127C7.84881 22.0131 9.33434 22.3707 10.2697 22.3982C11.2325 22.4257 13.7909 22.2882 15.2214 21.5729C16.6519 20.8577 21.1085 17.9966 21.1085 17.9966C21.1085 17.9966 16.707 21.1603 15.8542 21.8755C15.1664 22.4532 14.8088 22.9484 14.9738 23.5536C15.2214 24.3239 16.5419 24.2414 18.3025 23.6086C18.3025 23.6086 20.1182 22.9759 20.8059 22.3707C21.4937 21.738 23.4193 20.0324 23.4193 20.0324C23.4193 20.0324 21.136 22.3982 20.5583 23.4161C20.0081 24.4339 19.8981 24.6815 20.1732 25.2592C20.5583 26.0845 23.4744 25.2317 24.2997 24.3514C24.9049 23.6637 25.4826 22.9484 26.0053 22.1781C26.0053 22.1781 25.1249 23.6086 24.9324 24.4339C24.7398 25.2592 24.5197 25.9195 25.3175 26.002C26.1978 26.1395 27.0231 26.1671 27.9585 25.1492ZM33.4054 43.8833C33.4879 43.8283 33.5704 43.7733 33.653 43.7183C33.818 43.6082 33.9556 43.5257 34.0656 43.4157C34.2857 43.2781 34.5058 43.1131 34.7259 42.9755C34.7534 41.4075 34.8084 39.8119 34.8359 38.2438C34.3957 38.0513 33.9281 37.8587 33.4329 37.6661C33.4054 37.6661 33.3779 37.6386 33.3504 37.6386C33.2954 37.6111 33.2678 37.6111 33.2128 37.5836C32.8827 37.4736 32.5801 37.336 32.2225 37.226C31.8098 37.0609 31.3972 36.9234 30.9845 36.7583C28.2336 38.2163 27.6834 38.9041 27.6834 40.2521C27.6834 42.1502 29.3064 43.003 32.1124 44.7912C32.5526 44.461 32.9927 44.1584 33.4054 43.8833ZM30.0217 40.4996C30.0217 40.4996 29.8291 39.2892 32.9377 37.8862C33.0203 37.8587 33.1028 37.8037 33.1853 37.7762C33.2128 39.6744 33.2403 41.5725 33.2954 43.4707C31.7548 42.4253 30.0217 41.435 30.0217 40.4996ZM34.7259 63.8554C34.5883 64.0205 34.4508 64.1856 34.3132 64.3231C35.111 65.396 35.056 66.4414 34.6158 67.7893C35.0285 67.3217 35.8538 66.1387 35.166 64.5982C35.0285 64.3506 34.8909 64.103 34.7259 63.8554ZM33.4604 52.5764C33.763 52.879 34.1206 53.2367 34.4783 53.5943C34.6983 53.8144 34.9184 54.0344 35.166 54.282C35.1935 54.3095 35.2485 54.3371 35.3036 54.3921C37.1742 52.769 38.8798 51.2285 38.8798 49.3028C38.8798 47.7897 37.4218 46.4142 35.9638 45.3139C35.8263 45.3964 35.6887 45.4789 35.5512 45.5889C35.221 45.809 34.9184 46.0016 34.6433 46.1942C34.6433 46.1942 34.6158 46.1942 34.6158 46.2217C34.5608 46.2767 34.4783 46.3042 34.4233 46.3592C34.0381 46.6343 33.6805 46.8819 33.3504 47.1295C33.4054 48.9726 33.4329 50.8158 33.4604 52.5764ZM34.6433 46.4968C36.459 47.8172 37.1742 48.67 37.1742 49.6054C37.1742 50.5682 36.1564 51.6961 34.5058 53.3467C34.5333 51.1459 34.5883 48.8626 34.6433 46.4968ZM44.6844 20.0599C44.6844 20.0599 46.6101 21.7655 47.2978 22.3982C47.9856 23.0309 49.8012 23.6362 49.8012 23.6362C51.5618 24.2689 52.8823 24.3514 53.1299 23.5811C53.3225 22.9759 52.9373 22.4532 52.2496 21.903C51.3968 21.1878 46.9952 18.0242 46.9952 18.0242C46.9952 18.0242 51.4518 20.8852 52.8823 21.6004C54.3128 22.3157 56.8712 22.4532 57.8341 22.4257C58.7969 22.3982 60.2549 22.0406 58.8794 20.9402C57.504 19.8398 47.9305 15.0806 47.9305 15.0806C47.9305 15.0806 56.8437 19.2346 57.6965 19.4547C58.5218 19.7023 59.0445 19.8948 61.4654 19.9774C63.8862 20.0324 64.739 20.1149 64.8491 19.4272C64.9591 18.7669 63.9963 18.5193 62.8408 17.7491C61.6854 17.0063 47.9305 10.1564 47.9305 10.1564L63.8862 17.4189C63.8862 17.4189 65.7019 17.584 67.8751 17.529C70.0484 17.474 71.0938 17.0888 70.5161 16.9788C69.9384 16.8687 66.7472 16.071 61.6579 14.0352C56.5686 11.9995 52.4422 9.6887 49.3335 7.87306C46.2249 6.08492 42.6762 5.67228 40.4754 7.21282C38.2746 8.75337 38.9899 12.3847 38.3296 13.8427C37.7794 15.0256 36.514 14.9706 35.6337 14.9156C35.6337 15.1356 35.6337 15.3832 35.6062 15.6308H36.514H36.624C37.1192 15.6308 37.9445 15.6308 38.4672 14.8605C39.0449 13.9802 39.0724 13.0449 39.0999 12.3021C39.1274 11.1742 39.43 9.08349 40.9156 7.87306C42.4836 6.60761 45.5372 6.80018 47.1328 7.4329C47.9305 7.73551 49.5261 8.61582 51.0392 9.46862C52.3596 10.2114 53.5701 10.8166 54.4779 11.2292C53.9002 11.2292 52.1671 10.3764 50.7916 9.6887C49.306 8.91843 47.7655 8.14815 46.9677 7.84555C44.6294 6.91022 42.0985 7.48792 41.1631 8.23068C39.7877 9.33107 39.5401 11.2843 39.5126 12.3571C39.485 13.0999 39.4575 14.1453 38.7973 15.1081C38.2196 16.0159 37.3118 16.071 36.7341 16.071C36.6791 16.071 36.6515 16.071 36.5965 16.071H35.6062C35.5512 18.0517 35.4961 20.6376 35.4411 23.5811C37.3118 25.9745 38.3847 26.2771 39.265 26.0845C40.0903 25.9195 39.265 24.0488 39.0174 23.5536C39.3475 24.1313 39.7326 24.654 40.1728 25.1492C41.0806 26.1671 41.9334 26.1395 42.7587 26.0295C43.584 25.9195 43.3364 25.2867 43.1438 24.4614C42.9513 23.6362 42.071 22.2056 42.071 22.2056C42.5937 22.9484 43.1714 23.6912 43.7766 24.3789C44.6019 25.2592 47.5179 26.1395 47.903 25.2867C48.1506 24.7365 48.0681 24.4614 47.5179 23.4436C46.9952 22.4257 44.6844 20.0599 44.6844 20.0599ZM34.0931 11.6419C34.5333 11.6419 34.9734 11.5043 35.3311 11.2568C35.6887 11.0092 35.9913 10.6515 36.1564 10.2664C36.3214 9.85376 36.3764 9.4136 36.2939 8.97345C36.2114 8.53329 35.9913 8.14815 35.6887 7.81804C35.3861 7.51543 34.9734 7.29535 34.5333 7.21282C34.0931 7.13029 33.653 7.1578 33.2403 7.35037C32.8277 7.51543 32.4701 7.81804 32.25 8.17566C32.0024 8.53329 31.8648 8.97345 31.8648 9.4136C31.8648 9.71621 31.9199 9.99131 32.0299 10.2664C32.1399 10.5415 32.305 10.7891 32.5251 10.9817C32.7452 11.2017 32.9652 11.3668 33.2403 11.4768C33.4879 11.5869 33.7905 11.6419 34.0931 11.6419ZM41.4107 28.3678C41.4107 28.3678 41.3557 26.8273 38.8523 26.6622C36.2939 26.4972 36.1839 27.5976 36.2389 28.0102C36.4315 28.0102 36.5965 28.0652 36.5965 28.1202C36.5965 28.1753 36.459 28.2303 36.2939 28.2303C36.4315 28.6429 36.8166 29.1381 37.917 29.6883C38.8248 30.1285 39.265 30.1009 39.7877 30.0184C39.7877 30.0184 40.3929 30.376 40.3929 30.9538C40.3929 31.5039 39.43 32.5768 34.9184 34.8326C35.1935 22.6733 35.4411 11.9995 35.4411 11.9995H35.7162C35.8262 11.9995 35.9363 11.9445 36.0188 11.862C36.1013 11.7794 36.1564 11.6694 36.1564 11.5594V11.4218C36.1564 11.3668 36.1564 11.3118 36.1289 11.2568C36.1013 11.2017 36.0738 11.1467 36.0188 11.1192C35.7712 11.3943 35.4961 11.6144 35.166 11.7794C34.8359 11.9445 34.4783 11.9995 34.1206 11.9995C33.763 11.9995 33.4054 11.917 33.0753 11.7794C32.7452 11.6419 32.4425 11.3943 32.2225 11.1192C32.1674 11.1742 32.1399 11.2017 32.1124 11.2568C32.0849 11.3118 32.0849 11.3668 32.0849 11.4218V11.5594C32.0849 11.6694 32.1399 11.7794 32.2225 11.862C32.305 11.9445 32.415 11.9995 32.5251 11.9995H32.8002C32.8002 11.9995 32.9927 22.3707 33.1853 34.3099C33.5704 34.5025 33.9556 34.6951 34.3957 34.9152C34.4508 34.9427 34.5333 34.9702 34.5883 34.9977C35.6062 35.4929 36.459 35.9055 37.1742 36.2906C39.5951 35.3553 41.9609 34.2824 42.6762 32.7694C43.9416 29.9634 41.4107 28.3678 41.4107 28.3678ZM38.0545 27.7351C37.7794 27.7351 37.5594 27.5976 37.5594 27.4325C37.5594 27.2674 37.7794 27.1299 38.0545 27.1299C38.3296 27.1299 38.5497 27.2674 38.5497 27.4325C38.5497 27.5976 38.3296 27.7351 38.0545 27.7351ZM33.6805 62.5625C33.9006 62.2874 34.0931 62.0123 34.3132 61.7647C34.3407 60.1966 34.3957 58.436 34.4233 56.5378C34.1482 56.2627 33.8455 55.9876 33.5154 55.685C33.4054 55.6025 33.3229 55.4925 33.2128 55.4099C33.0753 55.2724 32.9377 55.1623 32.8002 55.0523C32.0299 55.7676 30.5169 57.3631 30.5169 58.7386C30.5169 60.3617 32.0849 62.0123 33.2678 63.1952C33.3779 62.9476 33.5154 62.755 33.6805 62.5625ZM33.5154 56.0151C33.5704 58.3535 33.598 60.4992 33.6255 62.3424C32.7176 61.132 31.7548 59.894 31.7548 59.0412C31.7548 58.2434 32.2225 57.3356 33.5154 56.0151ZM34.1482 35.2728C28.7837 32.6869 27.6834 31.5039 27.6834 30.9262C27.6834 30.3485 28.2886 29.9909 28.2886 29.9909C28.8113 30.1009 29.2514 30.101 30.1592 29.6608C31.2596 29.1381 31.6448 28.6154 31.7823 28.2028C31.6173 28.2028 31.4797 28.1478 31.4797 28.0927C31.4797 28.0377 31.6448 27.9827 31.8373 27.9827V27.9552C31.8648 27.5425 31.7273 26.4697 29.1964 26.6347C26.693 26.7998 26.638 28.3403 26.638 28.3403C26.638 28.3403 24.1071 29.9634 25.4276 32.7144C26.583 35.1627 32.0024 36.4557 35.1385 37.8587C38.2471 39.2617 38.0545 40.4721 38.0545 40.4721C38.0545 41.5175 35.9638 42.6179 34.3132 43.7733C32.6626 44.9287 29.1689 46.9369 29.1689 49.3028C29.1689 51.476 31.3422 53.1541 33.4604 55.0248C35.6062 56.8955 36.2939 58.0234 36.2939 59.0687C36.2939 60.4992 33.9281 62.4249 32.7176 64.8183C31.5072 67.2116 33.9006 70.9254 33.1578 68.9723C32.3875 67.0191 32.8002 65.6436 33.7905 64.2681C35.001 62.59 37.5869 60.9394 37.5869 58.7111C37.5869 56.8404 34.8634 54.6397 34.8634 54.6397C32.4426 52.2188 30.902 50.8433 30.902 49.6329C30.902 48.4225 32.0574 47.3496 35.3036 45.2313C38.5222 43.1406 40.4204 42.3153 40.4204 40.2796C40.4204 38.4914 39.5126 37.8587 34.1482 35.2728ZM30.0217 27.1574C30.2968 27.1574 30.5169 27.295 30.5169 27.46C30.5169 27.6251 30.2968 27.7626 30.0217 27.7626C29.7466 27.7626 29.5265 27.6251 29.5265 27.46C29.5265 27.295 29.7466 27.1574 30.0217 27.1574Z" stroke="black" stroke-opacity="0.21" stroke-width="9.16992" mask="url(#path-1-inside-1_1914_4080)"/>
</g>
<defs>
<clipPath id="clip0_1914_4080">
<rect width="66.3997" height="82.9997" fill="white" transform="translate(0.852417)"/>
</clipPath>
</defs>
</svg>
