<svg width="80" height="61" viewBox="0 0 80 61" fill="none" xmlns="http://www.w3.org/2000/svg">
<rect width="78.7074" height="60.2359" transform="translate(0.336426 0.628906)" fill="white"/>
<path fill-rule="evenodd" clip-rule="evenodd" d="M37.3107 60.1626L26.0805 52.8965H26.0793C20.9622 49.6021 17.1579 44.7707 15.1119 39.2233H18.2535C20.1579 43.76 23.4032 47.6975 27.666 50.4428L38.8962 57.7116C39.3808 58.0237 39.9995 58.0237 40.4814 57.7116L51.7144 50.4428C55.9771 47.698 59.2214 43.76 61.1249 39.2233H64.2664C62.2205 44.7705 58.4164 49.602 53.2993 52.8965L42.0691 60.1626C40.6208 61.0989 38.759 61.0989 37.3107 60.1626ZM65.9726 19.1944V12.9141C65.9726 10.7457 64.3847 8.9032 62.241 8.5829C58.7037 8.08188 55.2265 7.22494 51.8616 6.02307C48.4065 4.78833 45.0882 3.19768 41.9617 1.27573C40.5681 0.413298 38.8105 0.413298 37.4169 1.27573C34.2903 3.20042 30.9721 4.79107 27.517 6.02581C24.1522 7.22494 20.6752 8.08191 17.1376 8.5829C14.9939 8.90322 13.406 10.7457 13.406 12.9141V19.1944H16.3285L16.3285 12.9134C16.3203 12.1989 16.8404 11.5856 17.5468 11.4733C21.2784 10.9449 24.9474 10.0414 28.4981 8.77382C32.1448 7.4706 35.6463 5.78961 38.9482 3.76365C39.4027 3.48165 39.9776 3.48165 40.4321 3.76365C43.7311 5.78961 47.2328 7.47067 50.8794 8.77382C54.4303 10.0387 58.0992 10.9449 61.8307 11.4733C62.537 11.5856 63.0572 12.1989 63.049 12.9134V19.1944H65.9726Z" fill="#909090"/>
<path d="M21.1028 28.0985C21.0761 27.7649 20.9511 27.5047 20.7276 27.3179C20.5074 27.1311 20.1722 27.0377 19.7218 27.0377C19.435 27.0377 19.1998 27.0727 19.0163 27.1428C18.8362 27.2095 18.7028 27.3012 18.616 27.418C18.5293 27.5347 18.4843 27.6682 18.4809 27.8183C18.4743 27.9417 18.496 28.0534 18.546 28.1535C18.5994 28.2502 18.6828 28.3386 18.7962 28.4187C18.9096 28.4954 19.0547 28.5655 19.2315 28.6288C19.4083 28.6922 19.6184 28.7489 19.8619 28.799L20.7025 28.9791C21.2696 29.0992 21.755 29.2576 22.1586 29.4544C22.5622 29.6513 22.8925 29.8831 23.1493 30.1499C23.4062 30.4135 23.5946 30.7104 23.7147 31.0406C23.8381 31.3708 23.9015 31.7311 23.9049 32.1214C23.9015 32.7952 23.7331 33.3656 23.3995 33.8326C23.0659 34.2996 22.5889 34.6549 21.9685 34.8984C21.3513 35.1419 20.6091 35.2636 19.7419 35.2636C18.8512 35.2636 18.074 35.1319 17.4102 34.8684C16.7497 34.6048 16.236 34.1995 15.8691 33.6525C15.5055 33.1021 15.322 32.3982 15.3187 31.541H17.9606C17.9772 31.8545 18.0556 32.118 18.1957 32.3315C18.3358 32.545 18.5326 32.7068 18.7862 32.8169C19.043 32.927 19.3482 32.982 19.7018 32.982C19.9987 32.982 20.2472 32.9453 20.4474 32.8719C20.6475 32.7985 20.7993 32.6968 20.9027 32.5667C21.0061 32.4366 21.0595 32.2882 21.0628 32.1214C21.0595 31.9646 21.0078 31.8278 20.9077 31.7111C20.811 31.591 20.6508 31.4842 20.4273 31.3908C20.2039 31.2941 19.902 31.204 19.5217 31.1206L18.501 30.9005C17.5936 30.7037 16.8781 30.3751 16.3544 29.9148C15.834 29.4511 15.5755 28.819 15.5788 28.0184C15.5755 27.3679 15.749 26.7992 16.0992 26.3122C16.4528 25.8218 16.9415 25.4399 17.5653 25.1663C18.1924 24.8928 18.9113 24.756 19.7218 24.756C20.5491 24.756 21.2646 24.8945 21.8684 25.1713C22.4722 25.4482 22.9375 25.8385 23.2644 26.3422C23.5946 26.8426 23.7614 27.428 23.7648 28.0985H21.1028ZM36.4402 30.0199C36.4402 31.1607 36.2184 32.123 35.7747 32.9069C35.3311 33.6875 34.7323 34.2796 33.9784 34.6832C33.2246 35.0835 32.384 35.2837 31.4566 35.2837C30.5226 35.2837 29.6787 35.0818 28.9248 34.6782C28.1742 34.2713 27.5771 33.6775 27.1335 32.8969C26.6932 32.113 26.473 31.154 26.473 30.0199C26.473 28.879 26.6932 27.9183 27.1335 27.1378C27.5771 26.3539 28.1742 25.7618 28.9248 25.3615C29.6787 24.9579 30.5226 24.756 31.4566 24.756C32.384 24.756 33.2246 24.9579 33.9784 25.3615C34.7323 25.7618 35.3311 26.3539 35.7747 27.1378C36.2184 27.9183 36.4402 28.879 36.4402 30.0199ZM33.5782 30.0199C33.5782 29.4061 33.4964 28.889 33.333 28.4687C33.1729 28.0451 32.9344 27.7249 32.6175 27.508C32.3039 27.2879 31.917 27.1778 31.4566 27.1778C30.9963 27.1778 30.6077 27.2879 30.2908 27.508C29.9772 27.7249 29.7387 28.0451 29.5753 28.4687C29.4151 28.889 29.3351 29.4061 29.3351 30.0199C29.3351 30.6336 29.4151 31.1523 29.5753 31.576C29.7387 31.9963 29.9772 32.3165 30.2908 32.5367C30.6077 32.7535 30.9963 32.8619 31.4566 32.8619C31.917 32.8619 32.3039 32.7535 32.6175 32.5367C32.9344 32.3165 33.1729 31.9963 33.333 31.576C33.4964 31.1523 33.5782 30.6336 33.5782 30.0199ZM48.8442 28.7389H46.0222C46.0022 28.5054 45.9488 28.2936 45.8621 28.1035C45.7787 27.9133 45.6619 27.7499 45.5118 27.6131C45.3651 27.473 45.1866 27.3663 44.9764 27.2929C44.7663 27.2162 44.5278 27.1778 44.2609 27.1778C43.7939 27.1778 43.3986 27.2912 43.0751 27.518C42.7548 27.7449 42.5113 28.0701 42.3445 28.4937C42.1811 28.9174 42.0994 29.4261 42.0994 30.0199C42.0994 30.647 42.1828 31.1724 42.3495 31.596C42.5197 32.0163 42.7648 32.3332 43.0851 32.5467C43.4053 32.7568 43.7906 32.8619 44.2409 32.8619C44.4978 32.8619 44.7279 32.8302 44.9314 32.7668C45.1349 32.7001 45.3117 32.6051 45.4618 32.4816C45.6119 32.3582 45.7337 32.2098 45.8271 32.0363C45.9238 31.8595 45.9888 31.661 46.0222 31.4409L48.8442 31.4609C48.8109 31.8945 48.6891 32.3365 48.479 32.7869C48.2688 33.2338 47.9703 33.6475 47.5833 34.0277C47.1997 34.4047 46.7244 34.7082 46.1573 34.9384C45.5902 35.1686 44.9314 35.2837 44.1809 35.2837C43.2402 35.2837 42.3962 35.0818 41.649 34.6782C40.9052 34.2746 40.3164 33.6808 39.8828 32.8969C39.4524 32.113 39.2373 31.154 39.2373 30.0199C39.2373 28.879 39.4575 27.9183 39.8978 27.1378C40.3381 26.3539 40.9319 25.7618 41.6791 25.3615C42.4263 24.9579 43.2602 24.756 44.1809 24.756C44.828 24.756 45.4234 24.8444 45.9672 25.0212C46.5109 25.198 46.9879 25.4566 47.3982 25.7968C47.8085 26.1337 48.1387 26.549 48.3889 27.0427C48.6391 27.5364 48.7909 28.1018 48.8442 28.7389ZM56.0333 35.1436V33.1421L59.856 29.9798C60.1096 29.7697 60.3264 29.5729 60.5065 29.3894C60.69 29.2026 60.8301 29.0108 60.9268 28.814C61.0269 28.6172 61.0769 28.3987 61.0769 28.1585C61.0769 27.895 61.0202 27.6698 60.9068 27.483C60.7967 27.2962 60.6433 27.1528 60.4465 27.0527C60.2497 26.9493 60.0228 26.8976 59.766 26.8976C59.5091 26.8976 59.2823 26.9493 59.0855 27.0527C58.892 27.1561 58.7419 27.3079 58.6352 27.508C58.5284 27.7082 58.475 27.9517 58.475 28.2386H55.8331C55.8331 27.518 55.9949 26.8976 56.3185 26.3772C56.6421 25.8568 57.0991 25.4566 57.6895 25.1764C58.2799 24.8961 58.9721 24.756 59.766 24.756C60.5866 24.756 61.2971 24.8878 61.8975 25.1513C62.5013 25.4115 62.9666 25.7785 63.2935 26.2521C63.6238 26.7258 63.7889 27.2812 63.7889 27.9183C63.7889 28.312 63.7072 28.7039 63.5437 29.0942C63.3803 29.4811 63.0867 29.9098 62.6631 30.3801C62.2394 30.8505 61.6373 31.4109 60.8568 32.0613L59.8961 32.8619V32.9219H63.899V35.1436H56.0333Z" fill="#909090"/>
</svg>
