<svg width="80" height="61" viewBox="0 0 80 61" fill="none" xmlns="http://www.w3.org/2000/svg">
<rect width="78.7074" height="60.2359" transform="translate(0.336426 0.628906)" fill="white"/>
<path fill-rule="evenodd" clip-rule="evenodd" d="M37.3107 60.1626L26.0805 52.8965H26.0793C20.9622 49.6021 17.1579 44.7707 15.1119 39.2233H18.2535C20.1579 43.76 23.4032 47.6975 27.666 50.4428L38.8962 57.7116C39.3808 58.0237 39.9995 58.0237 40.4814 57.7116L51.7144 50.4428C55.9771 47.698 59.2214 43.76 61.1249 39.2233H64.2664C62.2205 44.7705 58.4164 49.602 53.2993 52.8965L42.0691 60.1626C40.6208 61.0989 38.759 61.0989 37.3107 60.1626ZM65.9726 19.1944V12.9141C65.9726 10.7457 64.3847 8.9032 62.241 8.5829C58.7037 8.08188 55.2265 7.22494 51.8616 6.02307C48.4065 4.78833 45.0882 3.19768 41.9617 1.27573C40.5681 0.413298 38.8105 0.413298 37.4169 1.27573C34.2903 3.20042 30.9721 4.79107 27.517 6.02581C24.1522 7.22494 20.6752 8.08191 17.1376 8.5829C14.9939 8.90322 13.406 10.7457 13.406 12.9141V19.1944H16.3285L16.3285 12.9134C16.3203 12.1989 16.8404 11.5856 17.5468 11.4733C21.2784 10.9449 24.9474 10.0414 28.4981 8.77382C32.1448 7.4706 35.6463 5.78961 38.9482 3.76365C39.4027 3.48165 39.9776 3.48165 40.4321 3.76365C43.7311 5.78961 47.2328 7.47067 50.8794 8.77382C54.4303 10.0387 58.0992 10.9449 61.8307 11.4733C62.537 11.5856 63.0572 12.1989 63.049 12.9134V19.1944H65.9726Z" fill="#909090"/>
<path d="M4.2112 35.1436V24.8961H6.99321V28.899H10.6759V24.8961H13.4579V35.1436H10.6759V31.1407H6.99321V35.1436H4.2112ZM19.1108 24.8961V35.1436H16.3288V24.8961H19.1108ZM21.6989 27.1378V24.8961H30.6054V27.1378H27.5232V35.1436H24.7812V27.1378H21.6989ZM33.2023 35.1436V24.8961H37.6255C38.3861 24.8961 39.0515 25.0346 39.6219 25.3114C40.1924 25.5883 40.636 25.9869 40.9529 26.5073C41.2698 27.0277 41.4283 27.6515 41.4283 28.3787C41.4283 29.1125 41.2648 29.7313 40.9379 30.235C40.6143 30.7387 40.159 31.119 39.5719 31.3758C38.9882 31.6327 38.306 31.7611 37.5254 31.7611H34.8835V29.5995H36.965C37.2919 29.5995 37.5705 29.5595 37.8006 29.4795C38.0341 29.3961 38.2126 29.2643 38.336 29.0842C38.4628 28.904 38.5262 28.6689 38.5262 28.3787C38.5262 28.0851 38.4628 27.8466 38.336 27.6631C38.2126 27.4763 38.0341 27.3396 37.8006 27.2529C37.5705 27.1628 37.2919 27.1178 36.965 27.1178H35.9843V35.1436H33.2023ZM39.2066 30.4402L41.7685 35.1436H38.7463L36.2445 30.4402H39.2066ZM50.2284 24.8961H53.0104V31.4609C53.0104 32.2415 52.8236 32.9169 52.45 33.4874C52.0798 34.0544 51.5627 34.4931 50.8989 34.8033C50.2351 35.1102 49.4645 35.2636 48.5872 35.2636C47.7033 35.2636 46.9294 35.1102 46.2655 34.8033C45.6017 34.4931 45.0847 34.0544 44.7144 33.4874C44.3475 32.9169 44.164 32.2415 44.164 31.4609V24.8961H46.946V31.2207C46.946 31.5376 47.0161 31.8212 47.1562 32.0713C47.2963 32.3182 47.4898 32.5117 47.7366 32.6518C47.9868 32.7919 48.2703 32.8619 48.5872 32.8619C48.9075 32.8619 49.191 32.7919 49.4378 32.6518C49.6847 32.5117 49.8782 32.3182 50.0183 32.0713C50.1584 31.8212 50.2284 31.5376 50.2284 31.2207V24.8961ZM61.4065 28.0985C61.3799 27.7649 61.2548 27.5047 61.0313 27.3179C60.8111 27.1311 60.4759 27.0377 60.0255 27.0377C59.7387 27.0377 59.5035 27.0727 59.32 27.1428C59.1399 27.2095 59.0065 27.3012 58.9197 27.418C58.833 27.5347 58.788 27.6682 58.7846 27.8183C58.778 27.9417 58.7997 28.0534 58.8497 28.1535C58.9031 28.2502 58.9865 28.3386 59.0999 28.4187C59.2133 28.4954 59.3584 28.5655 59.5352 28.6288C59.712 28.6922 59.9221 28.7489 60.1656 28.799L61.0063 28.9791C61.5733 29.0992 62.0587 29.2576 62.4623 29.4544C62.8659 29.6513 63.1962 29.8831 63.453 30.1499C63.7099 30.4135 63.8983 30.7104 64.0184 31.0406C64.1419 31.3708 64.2052 31.7311 64.2086 32.1214C64.2052 32.7952 64.0368 33.3656 63.7032 33.8326C63.3696 34.2996 62.8926 34.6549 62.2722 34.8984C61.6551 35.1419 60.9129 35.2636 60.0456 35.2636C59.1549 35.2636 58.3777 35.1319 57.7139 34.8684C57.0534 34.6048 56.5397 34.1995 56.1728 33.6525C55.8092 33.1021 55.6257 32.3982 55.6224 31.541H58.2643C58.281 31.8545 58.3593 32.118 58.4994 32.3315C58.6395 32.545 58.8364 32.7068 59.0899 32.8169C59.3467 32.927 59.6519 32.982 60.0055 32.982C60.3024 32.982 60.5509 32.9453 60.7511 32.8719C60.9512 32.7985 61.103 32.6968 61.2064 32.5667C61.3098 32.4366 61.3632 32.2882 61.3665 32.1214C61.3632 31.9646 61.3115 31.8278 61.2114 31.7111C61.1147 31.591 60.9545 31.4842 60.7311 31.3908C60.5076 31.2941 60.2057 31.204 59.8254 31.1206L58.8047 30.9005C57.8973 30.7037 57.1818 30.3751 56.6581 29.9148C56.1377 29.4511 55.8792 28.819 55.8825 28.0184C55.8792 27.3679 56.0527 26.7992 56.4029 26.3122C56.7565 25.8218 57.2452 25.4399 57.869 25.1663C58.4961 24.8928 59.215 24.756 60.0255 24.756C60.8528 24.756 61.5683 24.8945 62.1721 25.1713C62.7759 25.4482 63.2412 25.8385 63.5681 26.3422C63.8983 26.8426 64.0651 27.428 64.0685 28.0985H61.4065ZM66.5366 27.1378V24.8961H75.443V27.1378H72.3608V35.1436H69.6188V27.1378H66.5366Z" fill="#909090"/>
</svg>
