<svg width="61" height="74" viewBox="0 0 61 74" fill="none" xmlns="http://www.w3.org/2000/svg">
<path fill-rule="evenodd" clip-rule="evenodd" d="M10.9121 38.3193C12.0187 39.9793 13.3467 41.418 14.8961 42.6353C17.3307 41.9713 19.876 41.5286 22.7534 41.1966C22.4214 40.3113 22.2 39.3153 21.868 38.3193H23.3067C23.528 39.3153 23.86 40.2006 24.0814 41.086C25.9627 40.9753 27.844 40.8646 29.836 40.8646C31.9387 40.8646 33.9307 40.9753 35.9226 41.086C36.2546 40.2006 36.476 39.3153 36.808 38.3193H38.3573C38.136 39.3153 37.804 40.3113 37.472 41.3073C40.2386 41.6393 42.8946 42.082 45.2186 42.746C46.7679 41.418 48.0959 39.9793 49.2026 38.3193H50.9733C46.5466 45.2913 38.8 49.8286 29.9467 49.8286C21.0934 49.8286 13.3467 45.1806 8.92009 38.3193H10.9121ZM29.9467 42.3033C28.176 42.3033 26.4053 42.414 24.7454 42.5246C26.2947 46.1766 28.2867 48.5006 30.168 48.5006C32.0493 48.5006 34.0413 46.2873 35.5906 42.6353C33.7093 42.414 31.828 42.3033 29.9467 42.3033ZM37.0293 42.746C36.144 45.07 34.9267 46.9513 33.7093 48.1686C37.3613 47.6153 40.9026 45.9553 43.7799 43.8526C41.788 43.2993 39.464 42.9673 37.0293 42.746ZM23.196 42.6353C20.7614 42.8566 18.4374 43.2993 16.3347 43.742C19.212 45.8446 22.7534 47.5046 26.516 48.058C25.2987 46.9513 24.0814 44.9593 23.196 42.6353ZM25.52 13.7514C26.9587 13.7514 28.3973 13.8621 30.3893 14.0834H35.48V20.6127H30.2787V19.2847C29.504 18.8421 27.7333 18.3994 25.852 18.3994C23.4174 18.3994 22.532 19.0634 22.532 20.0594C22.532 23.822 36.476 19.5061 36.476 29.0234C36.476 33.0073 33.82 36.2167 25.9627 36.2167C24.524 36.2167 22.7534 35.9953 20.872 35.774H16.1134V29.9087H20.872V30.794C21.6467 31.2367 23.4174 31.6793 25.52 31.6793C28.176 31.6793 29.2827 31.0154 29.2827 30.0194C29.2827 26.478 15.5601 30.5727 15.5601 21.0554C15.3387 15.8541 19.4334 13.7514 25.52 13.7514ZM49.0919 13.7514C56.0639 13.7514 60.9332 17.7354 60.9332 24.9287C60.9332 32.122 55.9532 36.106 49.0919 36.106C42.2306 36.106 37.2506 32.122 37.2506 24.9287C37.2506 17.7354 42.2306 13.7514 49.0919 13.7514ZM14.0107 14.3048V19.5061H10.4694V30.3514H14.0107V35.5527H0.0667877V30.3514H3.60811V19.5061H0.0667877V14.3048H14.0107ZM49.0919 18.7314C46.3253 18.7314 44.6653 20.5021 44.6653 24.818C44.6653 29.134 46.4359 30.9047 49.0919 30.9047C51.8586 30.9047 53.5186 29.134 53.5186 24.818C53.5186 20.5021 51.8586 18.7314 49.0919 18.7314ZM30.168 0.0288086C39.0213 0.0288086 46.7679 4.67679 51.1946 11.5381H49.4239C48.3173 9.8781 46.9893 8.43944 45.4399 7.22211C43.116 7.88611 40.46 8.32878 37.5826 8.66077C37.9146 9.5461 38.136 10.5421 38.468 11.5381H36.9186C36.6973 10.5421 36.3653 9.65677 36.144 8.77144C34.2626 8.88211 32.3813 8.99277 30.3893 8.99277C28.2867 8.99277 26.2947 8.88211 24.3027 8.77144C23.9707 9.65677 23.7494 10.5421 23.4174 11.5381H21.868C22.0894 10.5421 22.4214 9.5461 22.7534 8.55011C19.9867 8.21811 17.3307 7.77544 15.0067 7.11145C13.4574 8.43944 12.1294 9.8781 11.0227 11.5381H9.25208C13.5681 4.67679 21.3147 0.0288086 30.168 0.0288086ZM30.168 1.46747C28.2867 1.46747 26.2947 3.68079 24.7454 7.33278C26.516 7.44345 28.3973 7.55411 30.2787 7.55411C32.0493 7.55411 33.82 7.44345 35.48 7.33278C33.9307 3.68079 32.0493 1.46747 30.168 1.46747ZM33.7093 1.6888C34.9267 2.90613 36.144 4.78746 37.0293 7.22211C39.464 7.00078 41.788 6.55812 43.8906 6.11545C41.0133 3.90213 37.472 2.3528 33.7093 1.6888ZM26.516 1.6888C22.864 2.24213 19.3227 3.90213 16.4454 6.00478C18.548 6.55812 20.872 6.89011 23.196 7.22211C24.0814 4.78746 25.2987 2.90613 26.516 1.6888Z" fill="#909090"/>
<path d="M5.06834 69.8286V68.4407L9.36218 63.992C9.82068 63.5087 10.1986 63.0853 10.496 62.7218C10.7976 62.3542 11.0227 62.0051 11.1714 61.6747C11.3201 61.3442 11.3945 60.9931 11.3945 60.6213C11.3945 60.2 11.2953 59.8365 11.0971 59.5308C10.8988 59.221 10.6282 58.9835 10.2854 58.8183C9.94254 58.6489 9.55632 58.5643 9.12673 58.5643C8.67235 58.5643 8.27581 58.6572 7.93709 58.8431C7.59838 59.029 7.33815 59.2913 7.1564 59.63C6.97465 59.9687 6.88377 60.3652 6.88377 60.8196H5.05595C5.05595 60.0472 5.23357 59.3718 5.58881 58.7935C5.94404 58.2152 6.43146 57.767 7.05106 57.449C7.67067 57.1268 8.37495 56.9657 9.16391 56.9657C9.96113 56.9657 10.6633 57.1247 11.2706 57.4428C11.8819 57.7567 12.359 58.1863 12.7018 58.7316C13.0447 59.2727 13.2161 59.884 13.2161 60.5656C13.2161 61.0365 13.1273 61.497 12.9497 61.9473C12.7762 62.3975 12.4726 62.8994 12.0389 63.4529C11.6051 64.0023 11.0021 64.6694 10.2296 65.4542L7.70784 68.0937V68.1867H13.4206V69.8286H5.06834ZM16.1964 69.8286L21.7356 58.8741V58.7811H15.3289V57.1392H23.7183V58.8369L18.1977 69.8286H16.1964ZM30.0181 70.0393C29.0392 70.0351 28.2027 69.777 27.5088 69.2648C26.8148 68.7526 26.284 68.007 25.9164 67.028C25.5487 66.049 25.3649 64.8697 25.3649 63.4901C25.3649 62.1146 25.5487 60.9394 25.9164 59.9646C26.2881 58.9897 26.821 58.2462 27.515 57.734C28.213 57.2218 29.0474 56.9657 30.0181 56.9657C30.9889 56.9657 31.8212 57.2239 32.5151 57.7402C33.2091 58.2524 33.7399 58.9959 34.1075 59.9708C34.4793 60.9415 34.6652 62.1146 34.6652 63.4901C34.6652 64.8739 34.4813 66.0552 34.1137 67.0342C33.7461 68.0091 33.2153 68.7546 32.5213 69.271C31.8274 69.7832 30.993 70.0393 30.0181 70.0393ZM30.0181 68.3849C30.8773 68.3849 31.5486 67.9657 32.0318 67.1272C32.5193 66.2886 32.763 65.0763 32.763 63.4901C32.763 62.4368 32.6514 61.5466 32.4284 60.8196C32.2095 60.0885 31.8935 59.535 31.4804 59.1591C31.0715 58.7791 30.584 58.589 30.0181 58.589C29.1631 58.589 28.4919 59.0104 28.0044 59.853C27.517 60.6957 27.2712 61.908 27.2671 63.4901C27.2671 64.5475 27.3766 65.4418 27.5955 66.173C27.8186 66.9 28.1346 67.4514 28.5435 67.8273C28.9524 68.1991 29.444 68.3849 30.0181 68.3849ZM41.2809 70.0393C40.302 70.0351 39.4655 69.777 38.7716 69.2648C38.0776 68.7526 37.5468 68.007 37.1792 67.028C36.8116 66.049 36.6277 64.8697 36.6277 63.4901C36.6277 62.1146 36.8116 60.9394 37.1792 59.9646C37.5509 58.9897 38.0838 58.2462 38.7778 57.734C39.4758 57.2218 40.3102 56.9657 41.2809 56.9657C42.2517 56.9657 43.084 57.2239 43.7779 57.7402C44.4719 58.2524 45.0027 58.9959 45.3703 59.9708C45.7421 60.9415 45.928 62.1146 45.928 63.4901C45.928 64.8739 45.7441 66.0552 45.3765 67.0342C45.0089 68.0091 44.4781 68.7546 43.7841 69.271C43.0902 69.7832 42.2558 70.0393 41.2809 70.0393ZM41.2809 68.3849C42.1401 68.3849 42.8114 67.9657 43.2947 67.1272C43.7821 66.2886 44.0258 65.0763 44.0258 63.4901C44.0258 62.4368 43.9143 61.5466 43.6912 60.8196C43.4723 60.0885 43.1563 59.535 42.7432 59.1591C42.3343 58.7791 41.8469 58.589 41.2809 58.589C40.4259 58.589 39.7547 59.0104 39.2672 59.853C38.7798 60.6957 38.534 61.908 38.5299 63.4901C38.5299 64.5475 38.6394 65.4418 38.8583 66.173C39.0814 66.9 39.3974 67.4514 39.8063 67.8273C40.2152 68.1991 40.7068 68.3849 41.2809 68.3849ZM52.9403 57.1392V69.8286H51.0195V59.0599H50.9452L47.9091 61.0427V59.2086L51.0753 57.1392H52.9403Z" fill="#909090"/>
</svg>
