<svg width="1728" height="206" viewBox="0 0 1728 206" fill="none" xmlns="http://www.w3.org/2000/svg">
<mask id="path-1-outside-1_1914_3472" maskUnits="userSpaceOnUse" x="-55.1667" y="-0.30957" width="1812" height="207" fill="black">
<rect fill="white" x="-55.1667" y="-0.30957" width="1812" height="207"/>
<path d="M5.24589 202.69H-53.8619L12.7329 0.935985H87.6027L154.197 202.69H95.0897L50.9559 56.4973H49.3797L5.24589 202.69ZM-5.78756 123.092H105.335V164.073H-5.78756V123.092ZM235.397 205.449C218.978 205.449 204.923 202.198 193.233 195.696C181.543 189.128 172.578 180 166.339 168.309C160.1 156.554 156.98 142.926 156.98 127.427C156.98 111.927 160.1 98.3324 166.339 86.6422C172.578 74.8863 181.543 65.7575 193.233 59.2556C204.923 52.6881 218.978 49.4043 235.397 49.4043C250.239 49.4043 263.079 52.097 273.915 57.4824C284.817 62.8021 293.257 70.3548 299.233 80.1404C305.209 89.8603 308.231 101.288 308.296 114.423H257.858C257.135 106.476 254.837 100.434 250.962 96.2965C247.153 92.0933 242.227 89.9917 236.185 89.9917C231.456 89.9917 227.319 91.3708 223.772 94.1292C220.226 96.8219 217.467 100.927 215.497 106.443C213.527 111.894 212.542 118.757 212.542 127.033C212.542 135.308 213.527 142.203 215.497 147.72C217.467 153.171 220.226 157.276 223.772 160.034C227.319 162.727 231.456 164.073 236.185 164.073C240.191 164.073 243.737 163.154 246.824 161.315C249.911 159.41 252.407 156.652 254.311 153.04C256.281 149.362 257.464 144.896 257.858 139.642H308.296C308.099 152.974 305.045 164.599 299.135 174.516C293.224 184.367 284.85 191.985 274.014 197.371C263.243 202.756 250.371 205.449 235.397 205.449ZM403.632 205.449C387.213 205.449 373.159 202.198 361.469 195.696C349.778 189.128 340.814 180 334.575 168.309C328.335 156.554 325.216 142.926 325.216 127.427C325.216 111.927 328.335 98.3324 334.575 86.6422C340.814 74.8863 349.778 65.7575 361.469 59.2556C373.159 52.6881 387.213 49.4043 403.632 49.4043C418.475 49.4043 431.314 52.097 442.151 57.4824C453.053 62.8021 461.492 70.3548 467.468 80.1404C473.445 89.8603 476.466 101.288 476.532 114.423H426.093C425.371 106.476 423.072 100.434 419.197 96.2965C415.388 92.0933 410.462 89.9917 404.42 89.9917C399.692 89.9917 395.554 91.3708 392.008 94.1292C388.461 96.8219 385.703 100.927 383.732 106.443C381.762 111.894 380.777 118.757 380.777 127.033C380.777 135.308 381.762 142.203 383.732 147.72C385.703 153.171 388.461 157.276 392.008 160.034C395.554 162.727 399.692 164.073 404.42 164.073C408.426 164.073 411.973 163.154 415.06 161.315C418.146 159.41 420.642 156.652 422.547 153.04C424.517 149.362 425.699 144.896 426.093 139.642H476.532C476.335 152.974 473.281 164.599 467.37 174.516C461.459 184.367 453.086 191.985 442.249 197.371C431.478 202.756 418.606 205.449 403.632 205.449ZM571.473 205.449C555.317 205.449 541.394 202.362 529.704 196.189C518.079 189.949 509.115 181.018 502.81 169.393C496.571 157.703 493.451 143.714 493.451 127.427C493.451 111.796 496.604 98.1354 502.908 86.4452C509.213 74.755 518.112 65.659 529.605 59.1571C541.099 52.6553 554.661 49.4043 570.291 49.4043C581.719 49.4043 592.063 51.1776 601.323 54.724C610.583 58.2705 618.497 63.426 625.064 70.1906C631.632 76.8894 636.689 85.0332 640.235 94.6218C643.782 104.21 645.555 115.014 645.555 127.033V139.642H510.395V109.694H595.511C595.445 105.36 594.328 101.551 592.161 98.2667C590.06 94.9173 587.203 92.3231 583.591 90.4842C580.044 88.5796 576.005 87.6273 571.473 87.6273C567.073 87.6273 563.034 88.5796 559.356 90.4842C555.679 92.3231 552.723 94.8845 550.49 98.1682C548.323 101.452 547.174 105.294 547.042 109.694V142.006C547.042 146.866 548.06 151.201 550.096 155.01C552.132 158.819 555.055 161.808 558.864 163.975C562.673 166.142 567.27 167.226 572.656 167.226C576.399 167.226 579.814 166.7 582.901 165.65C586.053 164.599 588.746 163.088 590.979 161.118C593.212 159.082 594.854 156.652 595.905 153.828H645.555C643.848 164.336 639.809 173.465 633.438 181.215C627.068 188.899 618.628 194.875 608.12 199.144C597.678 203.347 585.462 205.449 571.473 205.449ZM722.124 0.935985V202.69H667.745V0.935985H722.124ZM822.337 205.449C806.181 205.449 792.257 202.362 780.567 196.189C768.943 189.949 759.978 181.018 753.673 169.393C747.434 157.703 744.314 143.714 744.314 127.427C744.314 111.796 747.467 98.1354 753.772 86.4452C760.076 74.755 768.975 65.659 780.469 59.1571C791.962 52.6553 805.524 49.4043 821.154 49.4043C832.582 49.4043 842.926 51.1776 852.186 54.724C861.446 58.2705 869.36 63.426 875.928 70.1906C882.495 76.8894 887.552 85.0332 891.099 94.6218C894.645 104.21 896.418 115.014 896.418 127.033V139.642H761.259V109.694H846.374C846.308 105.36 845.192 101.551 843.024 98.2667C840.923 94.9173 838.066 92.3231 834.454 90.4842C830.907 88.5796 826.868 87.6273 822.337 87.6273C817.936 87.6273 813.897 88.5796 810.22 90.4842C806.542 92.3231 803.586 94.8845 801.353 98.1682C799.186 101.452 798.037 105.294 797.905 109.694V142.006C797.905 146.866 798.923 151.201 800.959 155.01C802.995 158.819 805.918 161.808 809.727 163.975C813.536 166.142 818.133 167.226 823.519 167.226C827.262 167.226 830.677 166.7 833.764 165.65C836.917 164.599 839.609 163.088 841.842 161.118C844.075 159.082 845.717 156.652 846.768 153.828H896.418C894.711 164.336 890.672 173.465 884.301 181.215C877.931 188.899 869.491 194.875 858.983 199.144C848.541 203.347 836.325 205.449 822.337 205.449ZM918.608 202.69V51.3746H971.411V80.1404H972.987C975.746 69.501 980.113 61.7185 986.09 56.7928C992.132 51.8672 999.192 49.4043 1007.27 49.4043C1009.63 49.4043 1011.97 49.6014 1014.26 49.9954C1016.63 50.3238 1018.89 50.8164 1021.06 51.4731V97.8727C1018.37 96.9532 1015.05 96.2636 1011.11 95.8039C1007.17 95.3442 1003.79 95.1143 1000.97 95.1143C995.645 95.1143 990.851 96.3293 986.582 98.7593C982.379 101.124 979.062 104.473 976.632 108.808C974.202 113.077 972.987 118.101 972.987 123.88V202.69H918.608ZM1074.01 205.055C1064.36 205.055 1055.82 203.479 1048.4 200.326C1041.04 197.108 1035.26 192.248 1031.06 185.746C1026.86 179.244 1024.76 170.969 1024.76 160.921C1024.76 152.646 1026.17 145.586 1028.99 139.741C1031.82 133.83 1035.76 129.003 1040.81 125.259C1045.87 121.516 1051.75 118.659 1058.45 116.689C1065.21 114.718 1072.5 113.438 1080.32 112.847C1088.79 112.19 1095.59 111.402 1100.71 110.482C1105.9 109.497 1109.64 108.151 1111.94 106.443C1114.24 104.67 1115.39 102.339 1115.39 99.4489V99.0548C1115.39 95.1143 1113.88 92.0933 1110.86 89.9917C1107.84 87.89 1103.96 86.8392 1099.23 86.8392C1094.04 86.8392 1089.81 87.9886 1086.52 90.2872C1083.31 92.5202 1081.37 95.9681 1080.71 100.631H1030.67C1031.32 91.4365 1034.25 82.9644 1039.43 75.2147C1044.69 67.3994 1052.34 61.1602 1062.39 56.4973C1072.44 51.7687 1084.98 49.4043 1100.02 49.4043C1110.86 49.4043 1120.58 50.685 1129.18 53.2463C1137.78 55.742 1145.11 59.2556 1151.15 63.7872C1157.19 68.2531 1161.79 73.5072 1164.94 79.5493C1168.16 85.5257 1169.77 92.0276 1169.77 99.0548V202.69H1118.93V181.412H1117.75C1114.73 187.06 1111.05 191.624 1106.72 195.105C1102.45 198.586 1097.56 201.114 1092.04 202.69C1086.59 204.267 1080.58 205.055 1074.01 205.055ZM1091.74 170.772C1095.88 170.772 1099.76 169.918 1103.37 168.211C1107.05 166.503 1110.04 164.041 1112.33 160.822C1114.63 157.604 1115.78 153.697 1115.78 149.099V136.49C1114.34 137.081 1112.79 137.639 1111.15 138.164C1109.58 138.69 1107.87 139.182 1106.03 139.642C1104.26 140.102 1102.35 140.529 1100.32 140.923C1098.35 141.317 1096.28 141.678 1094.11 142.006C1089.91 142.663 1086.46 143.747 1083.77 145.257C1081.14 146.702 1079.17 148.508 1077.85 150.676C1076.61 152.777 1075.98 155.142 1075.98 157.769C1075.98 161.972 1077.46 165.19 1080.42 167.423C1083.37 169.656 1087.15 170.772 1091.74 170.772ZM1285.99 51.3746V90.7798H1186.29V51.3746H1285.99ZM1205.6 15.1218H1259.98V154.025C1259.98 156.127 1260.34 157.9 1261.06 159.345C1261.79 160.724 1262.9 161.775 1264.41 162.497C1265.92 163.154 1267.86 163.482 1270.23 163.482C1271.87 163.482 1273.77 163.285 1275.94 162.891C1278.17 162.497 1279.81 162.169 1280.86 161.906L1288.75 200.129C1286.32 200.852 1282.84 201.738 1278.3 202.789C1273.84 203.84 1268.52 204.529 1262.34 204.858C1249.87 205.514 1239.39 204.234 1230.92 201.016C1222.45 197.732 1216.08 192.576 1211.81 185.549C1207.54 178.522 1205.47 169.721 1205.6 159.148V15.1218ZM1379.45 205.449C1363.03 205.449 1348.98 202.198 1337.29 195.696C1325.6 189.128 1316.63 180 1310.39 168.309C1304.15 156.554 1301.04 142.926 1301.04 127.427C1301.04 111.927 1304.15 98.3324 1310.39 86.6422C1316.63 74.8863 1325.6 65.7575 1337.29 59.2556C1348.98 52.6881 1363.03 49.4043 1379.45 49.4043C1395.87 49.4043 1409.93 52.6881 1421.62 59.2556C1433.31 65.7575 1442.27 74.8863 1448.51 86.6422C1454.75 98.3324 1457.87 111.927 1457.87 127.427C1457.87 142.926 1454.75 156.554 1448.51 168.309C1442.27 180 1433.31 189.128 1421.62 195.696C1409.93 202.198 1395.87 205.449 1379.45 205.449ZM1379.85 165.256C1384.44 165.256 1388.42 163.712 1391.77 160.625C1395.12 157.539 1397.71 153.138 1399.55 147.425C1401.39 141.711 1402.31 134.914 1402.31 127.033C1402.31 119.086 1401.39 112.288 1399.55 106.64C1397.71 100.927 1395.12 96.5263 1391.77 93.4396C1388.42 90.3529 1384.44 88.8095 1379.85 88.8095C1374.99 88.8095 1370.82 90.3529 1367.33 93.4396C1363.85 96.5263 1361.19 100.927 1359.36 106.64C1357.52 112.288 1356.6 119.086 1356.6 127.033C1356.6 134.914 1357.52 141.711 1359.36 147.425C1361.19 153.138 1363.85 157.539 1367.33 160.625C1370.82 163.712 1374.99 165.256 1379.85 165.256ZM1479.93 202.69V51.3746H1532.74V80.1404H1534.31C1537.07 69.501 1541.44 61.7185 1547.42 56.7928C1553.46 51.8672 1560.52 49.4043 1568.6 49.4043C1570.96 49.4043 1573.29 49.6014 1575.59 49.9954C1577.96 50.3238 1580.22 50.8164 1582.39 51.4731V97.8727C1579.7 96.9532 1576.38 96.2636 1572.44 95.8039C1568.5 95.3442 1565.12 95.1143 1562.29 95.1143C1556.97 95.1143 1552.18 96.3293 1547.91 98.7593C1543.71 101.124 1540.39 104.473 1537.96 108.808C1535.53 113.077 1534.31 118.101 1534.31 123.88V202.69H1479.93Z"/>
<path d="M1660.51 193.627V47.8281H1704.64V193.627H1660.51ZM1609.68 142.795V98.6608H1755.48V142.795H1609.68Z"/>
</mask>
<path d="M5.24589 202.69V203.193H5.619L5.72682 202.836L5.24589 202.69ZM-53.8619 202.69L-54.3389 202.533L-54.5567 203.193H-53.8619V202.69ZM12.7329 0.935982V0.433617H12.3697L12.2558 0.778519L12.7329 0.935982ZM87.6027 0.935982L88.0797 0.778519L87.9659 0.433617H87.6027V0.935982ZM154.197 202.69V203.193H154.892L154.674 202.533L154.197 202.69ZM95.0897 202.69L94.6087 202.836L94.7166 203.193H95.0897V202.69ZM50.9559 56.4973L51.4368 56.3521L51.329 55.9949H50.9559V56.4973ZM49.3797 56.4973V55.9949H49.0066L48.8987 56.3521L49.3797 56.4973ZM-5.78756 123.092V122.59H-6.28993V123.092H-5.78756ZM105.335 123.092H105.837V122.59H105.335V123.092ZM105.335 164.073V164.576H105.837V164.073H105.335ZM-5.78756 164.073H-6.28993V164.576H-5.78756V164.073ZM5.24589 202.188H-53.8619V203.193H5.24589V202.188ZM-53.3848 202.848L13.2099 1.09345L12.2558 0.778519L-54.3389 202.533L-53.3848 202.848ZM12.7329 1.43835H87.6027V0.433617H12.7329V1.43835ZM87.1256 1.09345L153.72 202.848L154.674 202.533L88.0797 0.778519L87.1256 1.09345ZM154.197 202.188H95.0897V203.193H154.197V202.188ZM95.5706 202.545L51.4368 56.3521L50.4749 56.6425L94.6087 202.836L95.5706 202.545ZM50.9559 55.9949H49.3797V56.9996H50.9559V55.9949ZM48.8987 56.3521L4.76495 202.545L5.72682 202.836L49.8606 56.6425L48.8987 56.3521ZM-5.78756 123.594H105.335V122.59H-5.78756V123.594ZM104.833 123.092V164.073H105.837V123.092H104.833ZM105.335 163.571H-5.78756V164.576H105.335V163.571ZM-5.28519 164.073V123.092H-6.28993V164.073H-5.28519ZM193.233 195.696L192.987 196.134L192.989 196.135L193.233 195.696ZM166.339 168.309L165.895 168.545L165.896 168.546L166.339 168.309ZM166.339 86.6422L166.782 86.8788L166.783 86.8777L166.339 86.6422ZM193.233 59.2556L193.477 59.6947L193.479 59.6936L193.233 59.2556ZM273.915 57.4824L273.692 57.9323L273.695 57.9339L273.915 57.4824ZM299.233 80.1404L298.804 80.4022L298.805 80.4035L299.233 80.1404ZM308.296 114.423V114.925H308.801L308.799 114.42L308.296 114.423ZM257.858 114.423L257.357 114.468L257.399 114.925H257.858V114.423ZM250.962 96.2965L250.589 96.6339L250.595 96.6399L250.962 96.2965ZM223.772 94.1292L224.076 94.5293L224.081 94.5257L223.772 94.1292ZM215.497 106.443L215.97 106.614L215.97 106.612L215.497 106.443ZM215.497 147.72L215.024 147.889L215.025 147.891L215.497 147.72ZM223.772 160.034L223.464 160.431L223.468 160.434L223.772 160.034ZM246.824 161.315L247.081 161.747L247.088 161.743L246.824 161.315ZM254.311 153.04L253.868 152.803L253.867 152.806L254.311 153.04ZM257.858 139.642V139.14H257.392L257.357 139.605L257.858 139.642ZM308.296 139.642L308.799 139.65L308.806 139.14H308.296V139.642ZM299.135 174.516L299.565 174.774L299.566 174.773L299.135 174.516ZM274.014 197.371L273.79 196.921L273.789 196.921L274.014 197.371ZM235.397 204.946C219.044 204.946 205.078 201.709 193.477 195.257L192.989 196.135C204.769 202.687 218.912 205.951 235.397 205.951V204.946ZM193.479 195.258C181.872 188.737 172.976 179.677 166.782 168.073L165.896 168.546C172.181 180.322 181.214 189.52 192.987 196.134L193.479 195.258ZM166.783 168.074C160.588 156.402 157.483 142.857 157.483 127.427H156.478C156.478 142.994 159.612 156.705 165.895 168.545L166.783 168.074ZM157.483 127.427C157.483 111.996 160.588 98.4847 166.782 86.8788L165.896 86.4057C159.612 98.1801 156.478 111.859 156.478 127.427H157.483ZM166.783 86.8777C172.976 75.208 181.871 66.1496 193.477 59.6947L192.989 58.8166C181.214 65.3653 172.18 74.5647 165.895 86.4067L166.783 86.8777ZM193.479 59.6936C205.079 53.1768 219.045 49.9067 235.397 49.9067V48.902C218.911 48.902 204.768 52.1994 192.987 58.8176L193.479 59.6936ZM235.397 49.9067C250.179 49.9067 262.939 52.5884 273.692 57.9323L274.139 57.0325C263.219 51.6057 250.3 48.902 235.397 48.902V49.9067ZM273.695 57.9339C284.516 63.2141 292.881 70.7032 298.804 80.4022L299.662 79.8785C293.632 70.0063 285.119 62.3901 274.136 57.0309L273.695 57.9339ZM298.805 80.4035C304.726 90.0338 307.729 101.368 307.794 114.425L308.799 114.42C308.733 101.207 305.693 89.6868 299.661 79.8772L298.805 80.4035ZM308.296 113.92H257.858V114.925H308.296V113.92ZM258.358 114.377C257.629 106.364 255.305 100.2 251.328 95.9531L250.595 96.6399C254.368 100.668 256.641 106.589 257.357 114.468L258.358 114.377ZM251.334 95.9591C247.423 91.6434 242.358 89.4893 236.185 89.4893V90.494C242.095 90.494 246.882 92.5432 250.589 96.6338L251.334 95.9591ZM236.185 89.4893C231.351 89.4893 227.103 90.9019 223.464 93.7327L224.081 94.5257C227.534 91.8397 231.562 90.494 236.185 90.494V89.4893ZM223.468 93.7291C219.823 96.4967 217.017 100.694 215.024 106.274L215.97 106.612C217.918 101.159 220.628 97.1471 224.076 94.5293L223.468 93.7291ZM215.025 106.273C213.028 111.796 212.039 118.722 212.039 127.033H213.044C213.044 118.793 214.026 111.992 215.97 106.614L215.025 106.273ZM212.039 127.033C212.039 135.343 213.028 142.301 215.024 147.889L215.97 147.551C214.025 142.106 213.044 135.272 213.044 127.033H212.039ZM215.025 147.891C217.018 153.406 219.823 157.6 223.464 160.431L224.081 159.638C220.628 156.952 217.917 152.937 215.97 147.549L215.025 147.891ZM223.468 160.434C227.108 163.198 231.354 164.576 236.185 164.576V163.571C231.559 163.571 227.529 162.256 224.076 159.634L223.468 160.434ZM236.185 164.576C240.271 164.576 243.908 163.637 247.081 161.747L246.567 160.883C243.567 162.671 240.111 163.571 236.185 163.571V164.576ZM247.088 161.743C250.26 159.785 252.814 156.956 254.756 153.274L253.867 152.806C251.999 156.349 249.561 159.036 246.56 160.887L247.088 161.743ZM254.754 153.277C256.765 149.524 257.961 144.986 258.359 139.68L257.357 139.605C256.967 144.806 255.798 149.201 253.868 152.803L254.754 153.277ZM257.858 140.145H308.296V139.14H257.858V140.145ZM307.794 139.635C307.598 152.893 304.562 164.428 298.703 174.259L299.566 174.773C305.528 164.769 308.6 153.056 308.799 139.65L307.794 139.635ZM298.704 174.257C292.845 184.022 284.545 191.576 273.79 196.921L274.237 197.821C285.155 192.395 293.602 184.712 299.565 174.774L298.704 174.257ZM273.789 196.921C263.103 202.264 250.311 204.946 235.397 204.946V205.951C250.43 205.951 263.383 203.248 274.238 197.82L273.789 196.921ZM361.469 195.696L361.223 196.134L361.224 196.135L361.469 195.696ZM334.575 168.309L334.131 168.545L334.131 168.546L334.575 168.309ZM334.575 86.6422L335.018 86.8788L335.018 86.8777L334.575 86.6422ZM361.469 59.2556L361.713 59.6947L361.715 59.6936L361.469 59.2556ZM442.151 57.4824L441.927 57.9323L441.93 57.9339L442.151 57.4824ZM467.468 80.1404L467.04 80.4022L467.041 80.4035L467.468 80.1404ZM476.532 114.423V114.925H477.037L477.034 114.42L476.532 114.423ZM426.093 114.423L425.593 114.468L425.634 114.925H426.093V114.423ZM419.197 96.2965L418.825 96.6339L418.83 96.6399L419.197 96.2965ZM392.008 94.1292L392.311 94.5293L392.316 94.5257L392.008 94.1292ZM383.732 106.443L384.205 106.614L384.206 106.612L383.732 106.443ZM383.732 147.72L383.259 147.889L383.26 147.891L383.732 147.72ZM392.008 160.034L391.699 160.431L391.704 160.434L392.008 160.034ZM415.06 161.315L415.317 161.747L415.323 161.743L415.06 161.315ZM422.547 153.04L422.104 152.803L422.102 152.806L422.547 153.04ZM426.093 139.642V139.14H425.627L425.592 139.605L426.093 139.642ZM476.532 139.642L477.034 139.65L477.042 139.14H476.532V139.642ZM467.37 174.516L467.801 174.774L467.802 174.773L467.37 174.516ZM442.249 197.371L442.026 196.921L442.025 196.921L442.249 197.371ZM403.632 204.946C387.279 204.946 373.313 201.709 361.713 195.257L361.224 196.135C373.004 202.687 387.147 205.951 403.632 205.951V204.946ZM361.715 195.258C350.107 188.737 341.211 179.677 335.018 168.073L334.131 168.546C340.416 180.322 349.45 189.52 361.223 196.134L361.715 195.258ZM335.018 168.074C328.824 156.402 325.718 142.857 325.718 127.427H324.713C324.713 142.994 327.847 156.705 334.131 168.545L335.018 168.074ZM325.718 127.427C325.718 111.996 328.824 98.4847 335.018 86.8788L334.131 86.4057C327.847 98.1801 324.713 111.859 324.713 127.427H325.718ZM335.018 86.8777C341.212 75.208 350.107 66.1496 361.713 59.6947L361.224 58.8166C349.45 65.3653 340.416 74.5647 334.131 86.4067L335.018 86.8777ZM361.715 59.6936C373.315 53.1768 387.28 49.9067 403.632 49.9067V48.902C387.146 48.902 373.003 52.1994 361.223 58.8176L361.715 59.6936ZM403.632 49.9067C418.414 49.9067 431.174 52.5884 441.927 57.9323L442.374 57.0325C431.454 51.6057 418.535 48.902 403.632 48.902V49.9067ZM441.93 57.9339C452.752 63.2141 461.116 70.7032 467.04 80.4022L467.897 79.8785C461.868 70.0063 453.354 62.3901 442.371 57.0309L441.93 57.9339ZM467.041 80.4035C472.962 90.0338 475.964 101.368 476.029 114.425L477.034 114.42C476.968 101.207 473.928 89.6868 467.896 79.8772L467.041 80.4035ZM476.532 113.92H426.093V114.925H476.532V113.92ZM426.593 114.377C425.865 106.364 423.541 100.2 419.564 95.9531L418.83 96.6399C422.603 100.668 424.876 106.589 425.593 114.468L426.593 114.377ZM419.569 95.9591C415.658 91.6434 410.594 89.4893 404.42 89.4893V90.494C410.331 90.494 415.118 92.5432 418.825 96.6338L419.569 95.9591ZM404.42 89.4893C399.586 89.4893 395.339 90.9019 391.699 93.7327L392.316 94.5257C395.769 91.8397 399.797 90.494 404.42 90.494V89.4893ZM391.704 93.7291C388.059 96.4967 385.252 100.694 383.259 106.274L384.206 106.612C386.153 101.159 388.864 97.1471 392.311 94.5293L391.704 93.7291ZM383.26 106.273C381.263 111.796 380.275 118.722 380.275 127.033H381.279C381.279 118.793 382.261 111.992 384.205 106.614L383.26 106.273ZM380.275 127.033C380.275 135.343 381.264 142.301 383.259 147.889L384.206 147.551C382.261 142.106 381.279 135.272 381.279 127.033H380.275ZM383.26 147.891C385.253 153.406 388.059 157.6 391.699 160.431L392.316 159.638C388.863 156.952 386.152 152.937 384.205 147.549L383.26 147.891ZM391.704 160.434C395.343 163.198 399.589 164.576 404.42 164.576V163.571C399.794 163.571 395.765 162.256 392.311 159.634L391.704 160.434ZM404.42 164.576C408.506 164.576 412.144 163.637 415.317 161.747L414.802 160.883C411.802 162.671 408.347 163.571 404.42 163.571V164.576ZM415.323 161.743C418.496 159.785 421.05 156.956 422.991 153.274L422.102 152.806C420.234 156.349 417.797 159.036 414.796 160.887L415.323 161.743ZM422.989 153.277C425 149.524 426.196 144.986 426.594 139.68L425.592 139.605C425.202 144.806 424.033 149.201 422.104 152.803L422.989 153.277ZM426.093 140.145H476.532V139.14H426.093V140.145ZM476.029 139.635C475.833 152.893 472.798 164.428 466.938 174.259L467.802 174.773C473.764 164.769 476.836 153.056 477.034 139.65L476.029 139.635ZM466.939 174.257C461.08 184.022 452.781 191.576 442.026 196.921L442.473 197.821C453.39 192.395 461.838 184.712 467.801 174.774L466.939 174.257ZM442.025 196.921C431.338 202.264 418.547 204.946 403.632 204.946V205.951C418.665 205.951 431.618 203.248 442.474 197.82L442.025 196.921ZM529.704 196.189L529.466 196.631L529.469 196.633L529.704 196.189ZM502.81 169.393L502.367 169.63L502.368 169.633L502.81 169.393ZM502.908 86.4452L503.351 86.6837L502.908 86.4452ZM529.605 59.1571L529.853 59.5944L529.605 59.1571ZM601.323 54.724L601.503 54.2549L601.323 54.724ZM625.064 70.1906L624.704 70.5405L624.706 70.5423L625.064 70.1906ZM640.235 94.6218L639.764 94.796L640.235 94.6218ZM645.555 139.642V140.145H646.058V139.642H645.555ZM510.395 139.642H509.893V140.145H510.395V139.642ZM510.395 109.694V109.192H509.893V109.694H510.395ZM595.511 109.694V110.197H596.021L596.013 109.687L595.511 109.694ZM592.161 98.2667L591.736 98.5338L591.742 98.5435L592.161 98.2667ZM583.591 90.4842L583.353 90.9269L583.363 90.9319L583.591 90.4842ZM559.356 90.4842L559.581 90.9336L559.587 90.9303L559.356 90.4842ZM550.49 98.1682L550.075 97.8857L550.071 97.8915L550.49 98.1682ZM547.042 109.694L546.54 109.679L546.54 109.687V109.694H547.042ZM550.096 155.01L549.653 155.247L550.096 155.01ZM558.864 163.975L558.615 164.411L558.864 163.975ZM582.901 165.65L582.742 165.173L582.739 165.174L582.901 165.65ZM590.979 161.118L591.311 161.495L591.318 161.489L590.979 161.118ZM595.905 153.828V153.326H595.556L595.434 153.653L595.905 153.828ZM645.555 153.828L646.051 153.909L646.146 153.326H645.555V153.828ZM633.438 181.215L633.825 181.535L633.826 181.534L633.438 181.215ZM608.12 199.144L608.308 199.61L608.309 199.609L608.12 199.144ZM571.473 204.946C555.381 204.946 541.542 201.872 529.939 195.744L529.469 196.633C541.246 202.852 555.254 205.951 571.473 205.951V204.946ZM529.942 195.746C518.404 189.553 509.51 180.692 503.252 169.154L502.368 169.633C508.72 181.343 517.755 190.346 529.466 196.631L529.942 195.746ZM503.253 169.157C497.061 157.554 493.954 143.65 493.954 127.427H492.949C492.949 143.778 496.081 157.852 502.367 169.63L503.253 169.157ZM493.954 127.427C493.954 111.864 497.092 98.2886 503.351 86.6837L502.466 86.2067C496.116 97.9822 492.949 111.727 492.949 127.427H493.954ZM503.351 86.6837C509.611 75.0762 518.443 66.0493 529.853 59.5944L529.358 58.7199C517.782 65.2686 508.816 74.4337 502.466 86.2067L503.351 86.6837ZM529.853 59.5944C541.258 53.1424 554.731 49.9067 570.291 49.9067V48.902C554.59 48.902 540.94 52.1681 529.358 58.7199L529.853 59.5944ZM570.291 49.9067C581.667 49.9067 591.948 51.6718 601.143 55.1932L601.503 54.2549C592.177 50.6834 581.771 48.902 570.291 48.902V49.9067ZM601.143 55.1932C610.339 58.7149 618.19 63.8311 624.704 70.5405L625.425 69.8406C618.804 63.021 610.827 57.8261 601.503 54.2549L601.143 55.1932ZM624.706 70.5423C631.219 77.1862 636.24 85.2678 639.764 94.796L640.707 94.4475C637.138 84.7985 632.045 76.5927 625.423 69.8389L624.706 70.5423ZM639.764 94.796C643.287 104.32 645.053 115.063 645.053 127.033H646.058C646.058 114.965 644.277 104.101 640.707 94.4475L639.764 94.796ZM645.053 127.033V139.642H646.058V127.033H645.053ZM645.555 139.14H510.395V140.145H645.555V139.14ZM510.898 139.642V109.694H509.893V139.642H510.898ZM510.395 110.197H595.511V109.192H510.395V110.197ZM596.013 109.687C595.946 105.266 594.806 101.362 592.58 97.99L591.742 98.5435C593.851 101.739 594.944 105.453 595.008 109.702L596.013 109.687ZM592.587 97.9997C590.436 94.5713 587.509 91.9156 583.818 90.0365L583.363 90.9319C586.896 92.7307 589.684 95.2633 591.736 98.5338L592.587 97.9997ZM583.828 90.0416C580.2 88.0931 576.077 87.125 571.473 87.125V88.1297C575.933 88.1297 579.888 89.0662 583.353 90.9268L583.828 90.0416ZM571.473 87.125C566.998 87.125 562.879 88.0943 559.125 90.0381L559.587 90.9303C563.189 89.065 567.148 88.1297 571.473 88.1297V87.125ZM559.132 90.0349C555.38 91.9108 552.358 94.5284 550.075 97.8857L550.906 98.4507C553.089 95.2405 555.977 92.7355 559.581 90.9336L559.132 90.0349ZM550.071 97.8915C547.846 101.262 546.674 105.197 546.54 109.679L547.544 109.709C547.673 105.391 548.8 101.642 550.909 98.4449L550.071 97.8915ZM546.54 109.694V142.006H547.545V109.694H546.54ZM546.54 142.006C546.54 146.939 547.574 151.356 549.653 155.247L550.539 154.773C548.547 151.046 547.545 146.794 547.545 142.006H546.54ZM549.653 155.247C551.734 159.141 554.725 162.198 558.615 164.411L559.112 163.538C555.384 161.417 552.53 158.498 550.539 154.773L549.653 155.247ZM558.615 164.411C562.516 166.631 567.203 167.728 572.656 167.728V166.723C567.338 166.723 562.83 165.654 559.112 163.538L558.615 164.411ZM572.656 167.728C576.446 167.728 579.917 167.196 583.063 166.125L582.739 165.174C579.712 166.205 576.352 166.723 572.656 166.723V167.728ZM583.06 166.126C586.269 165.057 589.022 163.514 591.311 161.495L590.647 160.741C588.47 162.662 585.838 164.141 582.742 165.173L583.06 166.126ZM591.318 161.489C593.609 159.4 595.297 156.902 596.375 154.003L595.434 153.653C594.411 156.402 592.815 158.765 590.641 160.747L591.318 161.489ZM595.905 154.33H645.555V153.326H595.905V154.33ZM645.059 153.747C643.365 164.173 639.361 173.219 633.05 180.896L633.826 181.534C640.257 173.711 644.33 164.499 646.051 153.909L645.059 153.747ZM633.051 180.894C626.741 188.506 618.373 194.437 607.931 198.679L608.309 199.609C618.884 195.314 627.395 189.291 633.825 181.535L633.051 180.894ZM607.933 198.678C597.562 202.852 585.413 204.946 571.473 204.946V205.951C585.511 205.951 597.793 203.842 608.308 199.61L607.933 198.678ZM722.124 0.935982H722.627V0.433617H722.124V0.935982ZM722.124 202.69V203.193H722.627V202.69H722.124ZM667.745 202.69H667.243V203.193H667.745V202.69ZM667.745 0.935982V0.433617H667.243V0.935982H667.745ZM721.622 0.935982V202.69H722.627V0.935982H721.622ZM722.124 202.188H667.745V203.193H722.124V202.188ZM668.248 202.69V0.935982H667.243V202.69H668.248ZM667.745 1.43835H722.124V0.433617H667.745V1.43835ZM780.567 196.189L780.33 196.631L780.333 196.633L780.567 196.189ZM753.673 169.393L753.23 169.63L753.232 169.633L753.673 169.393ZM753.772 86.4452L754.214 86.6837L753.772 86.4452ZM780.469 59.1571L780.716 59.5944L780.469 59.1571ZM852.186 54.724L852.366 54.2549L852.186 54.724ZM875.928 70.1906L875.567 70.5405L875.569 70.5423L875.928 70.1906ZM891.099 94.6218L890.627 94.796L891.099 94.6218ZM896.418 139.642V140.145H896.921V139.642H896.418ZM761.259 139.642H760.756V140.145H761.259V139.642ZM761.259 109.694V109.192H760.756V109.694H761.259ZM846.374 109.694V110.197H846.884L846.876 109.687L846.374 109.694ZM843.024 98.2667L842.599 98.5338L842.605 98.5435L843.024 98.2667ZM834.454 90.4842L834.216 90.9269L834.226 90.9319L834.454 90.4842ZM810.22 90.4842L810.444 90.9336L810.451 90.9303L810.22 90.4842ZM801.353 98.1682L800.938 97.8857L800.934 97.8915L801.353 98.1682ZM797.905 109.694L797.403 109.679L797.403 109.687V109.694H797.905ZM800.959 155.01L800.516 155.247L800.959 155.01ZM809.727 163.975L809.479 164.411L809.727 163.975ZM833.764 165.65L833.605 165.173L833.602 165.174L833.764 165.65ZM841.842 161.118L842.175 161.495L842.181 161.489L841.842 161.118ZM846.768 153.828V153.326H846.419L846.297 153.653L846.768 153.828ZM896.418 153.828L896.914 153.909L897.009 153.326H896.418V153.828ZM884.301 181.215L884.688 181.535L884.689 181.534L884.301 181.215ZM858.983 199.144L859.171 199.61L859.172 199.609L858.983 199.144ZM822.337 204.946C806.244 204.946 792.405 201.872 780.802 195.744L780.333 196.633C792.109 202.852 806.117 205.951 822.337 205.951V204.946ZM780.805 195.746C769.267 189.553 760.373 180.692 754.115 169.154L753.232 169.633C759.583 181.343 768.618 190.346 780.33 196.631L780.805 195.746ZM754.116 169.157C747.924 157.554 744.817 143.65 744.817 127.427H743.812C743.812 143.778 746.944 157.852 753.23 169.63L754.116 169.157ZM744.817 127.427C744.817 111.864 747.955 98.2886 754.214 86.6837L753.329 86.2067C746.979 97.9822 743.812 111.727 743.812 127.427H744.817ZM754.214 86.6837C760.474 75.0762 769.306 66.0493 780.716 59.5944L780.221 58.7199C768.645 65.2686 759.679 74.4337 753.329 86.2067L754.214 86.6837ZM780.716 59.5944C792.121 53.1424 805.594 49.9067 821.154 49.9067V48.902C805.453 48.902 791.803 52.1681 780.221 58.7199L780.716 59.5944ZM821.154 49.9067C832.53 49.9067 842.812 51.6718 852.006 55.1932L852.366 54.2549C843.04 50.6834 832.634 48.902 821.154 48.902V49.9067ZM852.006 55.1932C861.202 58.7149 869.053 63.8311 875.567 70.5405L876.288 69.8406C869.667 63.021 861.69 57.8261 852.366 54.2549L852.006 55.1932ZM875.569 70.5423C882.083 77.1862 887.103 85.2678 890.627 94.796L891.57 94.4475C888.001 84.7985 882.908 76.5927 876.286 69.8389L875.569 70.5423ZM890.627 94.796C894.15 104.32 895.916 115.063 895.916 127.033H896.921C896.921 114.965 895.14 104.101 891.57 94.4475L890.627 94.796ZM895.916 127.033V139.642H896.921V127.033H895.916ZM896.418 139.14H761.259V140.145H896.418V139.14ZM761.761 139.642V109.694H760.756V139.642H761.761ZM761.259 110.197H846.374V109.192H761.259V110.197ZM846.876 109.687C846.809 105.266 845.669 101.362 843.444 97.99L842.605 98.5435C844.714 101.739 845.807 105.453 845.871 109.702L846.876 109.687ZM843.45 97.9997C841.299 94.5713 838.373 91.9156 834.682 90.0365L834.226 90.9319C837.759 92.7307 840.547 95.2633 842.599 98.5338L843.45 97.9997ZM834.691 90.0416C831.063 88.0931 826.941 87.125 822.337 87.125V88.1297C826.796 88.1297 830.751 89.0662 834.216 90.9268L834.691 90.0416ZM822.337 87.125C817.861 87.125 813.742 88.0943 809.989 90.0381L810.451 90.9303C814.053 89.065 818.012 88.1297 822.337 88.1297V87.125ZM809.995 90.0349C806.243 91.9108 803.221 94.5284 800.938 97.8857L801.769 98.4507C803.952 95.2405 806.84 92.7355 810.444 90.9336L809.995 90.0349ZM800.934 97.8915C798.709 101.262 797.537 105.197 797.403 109.679L798.408 109.709C798.536 105.391 799.663 101.642 801.773 98.4449L800.934 97.8915ZM797.403 109.694V142.006H798.408V109.694H797.403ZM797.403 142.006C797.403 146.939 798.437 151.356 800.516 155.247L801.402 154.773C799.41 151.046 798.408 146.794 798.408 142.006H797.403ZM800.516 155.247C802.598 159.141 805.588 162.198 809.479 164.411L809.975 163.538C806.247 161.417 803.393 158.498 801.402 154.773L800.516 155.247ZM809.479 164.411C813.379 166.631 818.066 167.728 823.519 167.728V166.723C818.201 166.723 813.693 165.654 809.975 163.538L809.479 164.411ZM823.519 167.728C827.309 167.728 830.78 167.196 833.926 166.125L833.602 165.174C830.575 166.205 827.215 166.723 823.519 166.723V167.728ZM833.923 166.126C837.132 165.057 839.885 163.514 842.175 161.495L841.51 160.741C839.333 162.662 836.701 164.141 833.605 165.173L833.923 166.126ZM842.181 161.489C844.473 159.4 846.16 156.902 847.239 154.003L846.297 153.653C845.274 156.402 843.678 158.765 841.504 160.747L842.181 161.489ZM846.768 154.33H896.418V153.326H846.768V154.33ZM895.922 153.747C894.228 164.173 890.224 173.219 883.913 180.896L884.689 181.534C891.12 173.711 895.193 164.499 896.914 153.909L895.922 153.747ZM883.914 180.894C877.604 188.506 869.236 194.437 858.794 198.679L859.172 199.609C869.747 195.314 878.258 189.291 884.688 181.535L883.914 180.894ZM858.796 198.678C848.426 202.852 836.276 204.946 822.337 204.946V205.951C836.375 205.951 848.656 203.842 859.171 199.61L858.796 198.678ZM918.608 202.69H918.106V203.193H918.608V202.69ZM918.608 51.3746V50.8722H918.106V51.3746H918.608ZM971.411 51.3746H971.914V50.8722H971.411V51.3746ZM971.411 80.1404H970.909V80.6427H971.411V80.1404ZM972.987 80.1404V80.6427H973.376L973.474 80.2664L972.987 80.1404ZM986.09 56.7928L985.772 56.4034L985.77 56.4051L986.09 56.7928ZM1014.26 49.9954L1014.18 50.4906L1014.19 50.4919L1014.2 50.493L1014.26 49.9954ZM1021.06 51.4731H1021.56V51.1004L1021.21 50.9923L1021.06 51.4731ZM1021.06 97.8727L1020.9 98.3481L1021.56 98.5751V97.8727H1021.06ZM1011.11 95.8039L1011.17 95.3049L1011.11 95.8039ZM986.582 98.7593L986.829 99.1972L986.831 99.1959L986.582 98.7593ZM976.632 108.808L977.069 109.056L977.071 109.053L976.632 108.808ZM972.987 202.69V203.193H973.49V202.69H972.987ZM919.111 202.69V51.3746H918.106V202.69H919.111ZM918.608 51.877H971.411V50.8722H918.608V51.877ZM970.909 51.3746V80.1404H971.914V51.3746H970.909ZM971.411 80.6427H972.987V79.638H971.411V80.6427ZM973.474 80.2664C976.216 69.6881 980.542 62.0157 986.409 57.1805L985.77 56.4051C979.684 61.4212 975.275 69.3139 972.501 80.0143L973.474 80.2664ZM986.407 57.1822C992.356 52.3324 999.303 49.9067 1007.27 49.9067V48.902C999.081 48.902 991.908 51.4019 985.772 56.4034L986.407 57.1822ZM1007.27 49.9067C1009.61 49.9067 1011.91 50.1014 1014.18 50.4906L1014.35 49.5003C1012.02 49.1013 1009.66 48.902 1007.27 48.902V49.9067ZM1014.2 50.493C1016.53 50.818 1018.78 51.3051 1020.92 51.9539L1021.21 50.9923C1019.01 50.3276 1016.72 49.8296 1014.33 49.4978L1014.2 50.493ZM1020.56 51.4731V97.8727H1021.56V51.4731H1020.56ZM1021.22 97.3973C1018.49 96.4628 1015.13 95.7673 1011.17 95.3049L1011.05 96.3029C1014.97 96.76 1018.25 97.4437 1020.9 98.3481L1021.22 97.3973ZM1011.17 95.3049C1007.22 94.8438 1003.81 94.612 1000.97 94.612V95.6167C1003.76 95.6167 1007.13 95.8446 1011.05 96.3029L1011.17 95.3049ZM1000.97 94.612C995.566 94.612 990.685 95.8461 986.334 98.3227L986.831 99.1959C991.018 96.8126 995.725 95.6167 1000.97 95.6167V94.612ZM986.336 98.3215C982.05 100.732 978.668 104.149 976.194 108.562L977.071 109.053C979.457 104.797 982.708 101.515 986.829 99.1972L986.336 98.3215ZM976.196 108.559C973.716 112.916 972.485 118.029 972.485 123.88H973.49C973.49 118.172 974.689 113.237 977.069 109.056L976.196 108.559ZM972.485 123.88V202.69H973.49V123.88H972.485ZM972.987 202.188H918.608V203.193H972.987V202.188ZM1048.4 200.326L1048.2 200.786L1048.2 200.789L1048.4 200.326ZM1031.06 185.746L1030.64 186.019L1031.06 185.746ZM1028.99 139.741L1029.44 139.959L1029.45 139.957L1028.99 139.741ZM1040.81 125.259L1041.11 125.663L1040.81 125.259ZM1058.45 116.689L1058.31 116.206L1058.31 116.207L1058.45 116.689ZM1080.32 112.847L1080.36 113.348L1080.36 113.348L1080.32 112.847ZM1100.71 110.482L1100.8 110.977L1100.8 110.976L1100.71 110.482ZM1111.94 106.443L1112.24 106.847L1112.25 106.841L1111.94 106.443ZM1110.86 89.9917L1110.57 90.4041L1110.86 89.9917ZM1086.52 90.2872L1086.81 90.7L1086.81 90.6988L1086.52 90.2872ZM1080.71 100.631V101.133H1081.15L1081.21 100.701L1080.71 100.631ZM1030.67 100.631L1030.17 100.595L1030.13 101.133H1030.67V100.631ZM1039.43 75.2147L1039.02 74.9344L1039.02 74.9352L1039.43 75.2147ZM1062.39 56.4973L1062.6 56.953L1062.6 56.9518L1062.39 56.4973ZM1129.18 53.2464L1129.04 53.7278L1129.04 53.7288L1129.18 53.2464ZM1151.15 63.7872L1150.85 64.1891L1150.85 64.1912L1151.15 63.7872ZM1164.94 79.5493L1164.49 79.7817L1164.5 79.7875L1164.94 79.5493ZM1169.77 202.69V203.193H1170.27V202.69H1169.77ZM1118.93 202.69H1118.43V203.193H1118.93V202.69ZM1118.93 181.412H1119.44V180.909H1118.93V181.412ZM1117.75 181.412V180.909H1117.45L1117.31 181.175L1117.75 181.412ZM1106.72 195.105L1106.4 194.713L1106.4 194.716L1106.72 195.105ZM1092.04 202.69L1091.9 202.207L1091.9 202.208L1092.04 202.69ZM1103.37 168.211L1103.16 167.755L1103.15 167.757L1103.37 168.211ZM1112.33 160.822L1111.93 160.53L1112.33 160.822ZM1115.78 136.49H1116.28V135.741L1115.59 136.025L1115.78 136.49ZM1111.15 138.164L1111 137.686L1110.99 137.688L1111.15 138.164ZM1106.03 139.642L1105.91 139.155L1105.9 139.156L1106.03 139.642ZM1100.32 140.923L1100.22 140.43L1100.22 140.43L1100.32 140.923ZM1094.11 142.006L1094.03 141.51L1094.03 141.51L1094.11 142.006ZM1083.77 145.257L1084.01 145.698L1084.01 145.696L1083.77 145.257ZM1077.85 150.676L1077.42 150.415L1077.42 150.419L1077.85 150.676ZM1080.42 167.423L1080.72 167.022L1080.42 167.423ZM1074.01 204.552C1064.41 204.552 1055.94 202.985 1048.6 199.864L1048.2 200.789C1055.7 203.972 1064.3 205.557 1074.01 205.557V204.552ZM1048.6 199.866C1041.33 196.686 1035.63 191.889 1031.48 185.473L1030.64 186.019C1034.9 192.607 1040.76 197.53 1048.2 200.786L1048.6 199.866ZM1031.48 185.473C1027.35 179.074 1025.26 170.901 1025.26 160.921H1024.25C1024.25 171.038 1026.37 179.415 1030.64 186.019L1031.48 185.473ZM1025.26 160.921C1025.26 152.701 1026.66 145.72 1029.44 139.959L1028.54 139.522C1025.67 145.451 1024.25 152.59 1024.25 160.921H1025.26ZM1029.45 139.957C1032.24 134.117 1036.12 129.356 1041.11 125.663L1040.51 124.856C1035.39 128.65 1031.4 133.542 1028.54 139.524L1029.45 139.957ZM1041.11 125.663C1046.12 121.958 1051.94 119.126 1058.59 117.171L1058.31 116.207C1051.56 118.192 1045.62 121.073 1040.51 124.856L1041.11 125.663ZM1058.59 117.171C1065.32 115.211 1072.57 113.936 1080.36 113.348L1080.28 112.346C1072.43 112.939 1065.11 114.225 1058.31 116.206L1058.59 117.171ZM1080.36 113.348C1088.84 112.69 1095.65 111.9 1100.8 110.977L1100.62 109.988C1095.52 110.903 1088.74 111.69 1080.28 112.346L1080.36 113.348ZM1100.8 110.976C1106.01 109.987 1109.85 108.623 1112.24 106.847L1111.64 106.04C1109.43 107.679 1105.78 109.008 1100.62 109.989L1100.8 110.976ZM1112.25 106.841C1114.67 104.973 1115.89 102.495 1115.89 99.4489H1114.89C1114.89 102.182 1113.81 104.367 1111.63 106.046L1112.25 106.841ZM1115.89 99.4489V99.0548H1114.89V99.4489H1115.89ZM1115.89 99.0548C1115.89 94.9636 1114.31 91.7823 1111.14 89.5793L1110.57 90.4041C1113.44 92.4042 1114.89 95.2651 1114.89 99.0548H1115.89ZM1111.14 89.5793C1108.02 87.4044 1104.03 86.3369 1099.23 86.3369V87.3416C1103.89 87.3416 1107.65 88.3757 1110.57 90.4041L1111.14 89.5793ZM1099.23 86.3369C1093.97 86.3369 1089.63 87.5027 1086.24 89.8756L1086.81 90.6988C1089.99 88.4745 1094.12 87.3416 1099.23 87.3416V86.3369ZM1086.24 89.8745C1082.88 92.2032 1080.89 95.7898 1080.21 100.561L1081.21 100.701C1081.85 96.1465 1083.73 92.8371 1086.81 90.6999L1086.24 89.8745ZM1080.71 100.129H1030.67V101.133H1080.71V100.129ZM1031.17 100.667C1031.82 91.5605 1034.71 83.1722 1039.85 75.4942L1039.02 74.9352C1033.78 82.7566 1030.83 91.3125 1030.17 100.595L1031.17 100.667ZM1039.85 75.495C1045.05 67.7683 1052.62 61.5842 1062.6 56.953L1062.18 56.0416C1052.06 60.7363 1044.33 67.0304 1039.02 74.9344L1039.85 75.495ZM1062.6 56.9518C1072.56 52.2638 1085.03 49.9067 1100.02 49.9067V48.902C1084.93 48.902 1072.31 51.2735 1062.17 56.0427L1062.6 56.9518ZM1100.02 49.9067C1110.82 49.9067 1120.49 51.1829 1129.04 53.7278L1129.32 52.7649C1120.66 50.1872 1110.9 48.902 1100.02 48.902V49.9067ZM1129.04 53.7288C1137.6 56.2107 1144.86 59.7 1150.85 64.1891L1151.45 63.3853C1145.35 58.8113 1137.97 55.2733 1129.32 52.7639L1129.04 53.7288ZM1150.85 64.1912C1156.84 68.6165 1161.38 73.8138 1164.49 79.7817L1165.39 79.3169C1162.19 73.2005 1157.54 67.8898 1151.45 63.3832L1150.85 64.1912ZM1164.5 79.7875C1167.67 85.6881 1169.26 92.1077 1169.26 99.0548H1170.27C1170.27 91.9475 1168.64 85.3634 1165.38 79.3111L1164.5 79.7875ZM1169.26 99.0548V202.69H1170.27V99.0548H1169.26ZM1169.77 202.188H1118.93V203.193H1169.77V202.188ZM1119.44 202.69V181.412H1118.43V202.69H1119.44ZM1118.93 180.909H1117.75V181.914H1118.93V180.909ZM1117.31 181.175C1114.32 186.772 1110.68 191.281 1106.4 194.713L1107.03 195.497C1111.43 191.967 1115.15 187.347 1118.2 181.649L1117.31 181.175ZM1106.4 194.716C1102.19 198.151 1097.36 200.649 1091.9 202.207L1092.18 203.173C1097.76 201.579 1102.71 199.02 1107.04 195.494L1106.4 194.716ZM1091.9 202.208C1086.5 203.769 1080.54 204.552 1074.01 204.552V205.557C1080.62 205.557 1086.68 204.764 1092.18 203.173L1091.9 202.208ZM1091.74 171.275C1095.95 171.275 1099.9 170.406 1103.58 168.665L1103.15 167.757C1099.61 169.431 1095.81 170.27 1091.74 170.27V171.275ZM1103.58 168.667C1107.34 166.923 1110.39 164.405 1112.74 161.114L1111.93 160.53C1109.68 163.676 1106.76 166.083 1103.16 167.755L1103.58 168.667ZM1112.74 161.114C1115.11 157.798 1116.28 153.784 1116.28 149.099H1115.28C1115.28 153.61 1114.15 157.411 1111.93 160.53L1112.74 161.114ZM1116.28 149.099V136.49H1115.28V149.099H1116.28ZM1115.59 136.025C1114.16 136.61 1112.63 137.164 1111 137.686L1111.3 138.643C1112.96 138.114 1114.51 137.551 1115.97 136.955L1115.59 136.025ZM1110.99 137.688C1109.43 138.209 1107.74 138.698 1105.91 139.155L1106.15 140.13C1108 139.667 1109.72 139.171 1111.31 138.641L1110.99 137.688ZM1105.9 139.156C1104.14 139.613 1102.25 140.037 1100.22 140.43L1100.41 141.416C1102.46 141.02 1104.37 140.591 1106.16 140.128L1105.9 139.156ZM1100.22 140.43C1098.25 140.823 1096.19 141.182 1094.03 141.51L1094.18 142.503C1096.36 142.174 1098.44 141.811 1100.41 141.415L1100.22 140.43ZM1094.03 141.51C1089.79 142.173 1086.28 143.271 1083.52 144.819L1084.01 145.696C1086.64 144.223 1090.02 143.154 1094.19 142.503L1094.03 141.51ZM1083.52 144.817C1080.83 146.297 1078.79 148.16 1077.42 150.415L1078.28 150.936C1079.54 148.857 1081.44 147.108 1084.01 145.698L1083.52 144.817ZM1077.42 150.419C1076.13 152.604 1075.48 155.058 1075.48 157.769H1076.49C1076.49 155.225 1077.09 152.95 1078.29 150.932L1077.42 150.419ZM1075.48 157.769C1075.48 162.105 1077.01 165.482 1080.11 167.824L1080.72 167.022C1077.91 164.898 1076.49 161.839 1076.49 157.769H1075.48ZM1080.11 167.824C1083.17 170.137 1087.07 171.275 1091.74 171.275V170.27C1087.23 170.27 1083.57 169.175 1080.72 167.022L1080.11 167.824ZM1285.99 51.3746H1286.49V50.8722H1285.99V51.3746ZM1285.99 90.7798V91.2821H1286.49V90.7798H1285.99ZM1186.29 90.7798H1185.79V91.2821H1186.29V90.7798ZM1186.29 51.3746V50.8722H1185.79V51.3746H1186.29ZM1205.6 15.1218V14.6195H1205.1V15.1218H1205.6ZM1259.98 15.1218H1260.48V14.6195H1259.98V15.1218ZM1261.06 159.345L1260.61 159.569L1260.62 159.578L1261.06 159.345ZM1264.41 162.497L1264.2 162.95L1264.2 162.954L1264.21 162.958L1264.41 162.497ZM1275.94 162.891L1275.85 162.396L1275.85 162.397L1275.94 162.891ZM1280.86 161.906L1281.36 161.805L1281.25 161.292L1280.74 161.419L1280.86 161.906ZM1288.75 200.129L1288.89 200.611L1289.33 200.479L1289.24 200.028L1288.75 200.129ZM1278.3 202.789L1278.19 202.3L1278.19 202.3L1278.3 202.789ZM1262.34 204.858L1262.37 205.359L1262.37 205.359L1262.34 204.858ZM1230.92 201.016L1230.74 201.484L1230.74 201.485L1230.92 201.016ZM1211.81 185.549L1211.38 185.81L1211.81 185.549ZM1205.6 159.148L1206.1 159.154V159.148H1205.6ZM1285.49 51.3746V90.7798H1286.49V51.3746H1285.49ZM1285.99 90.2774H1186.29V91.2821H1285.99V90.2774ZM1186.79 90.7798V51.3746H1185.79V90.7798H1186.79ZM1186.29 51.877H1285.99V50.8722H1186.29V51.877ZM1205.6 15.6242H1259.98V14.6195H1205.6V15.6242ZM1259.48 15.1218V154.025H1260.48V15.1218H1259.48ZM1259.48 154.025C1259.48 156.182 1259.85 158.037 1260.61 159.569L1261.51 159.12C1260.83 157.763 1260.48 156.071 1260.48 154.025H1259.48ZM1260.62 159.578C1261.4 161.061 1262.6 162.185 1264.2 162.95L1264.63 162.044C1263.21 161.365 1262.18 160.387 1261.51 159.112L1260.62 159.578ZM1264.21 162.958C1265.81 163.651 1267.82 163.985 1270.23 163.985V162.98C1267.9 162.98 1266.04 162.656 1264.61 162.036L1264.21 162.958ZM1270.23 163.985C1271.91 163.985 1273.84 163.783 1276.03 163.385L1275.85 162.397C1273.7 162.787 1271.83 162.98 1270.23 162.98V163.985ZM1276.03 163.386C1278.26 162.992 1279.92 162.661 1280.99 162.393L1280.74 161.419C1279.71 161.677 1278.08 162.003 1275.85 162.396L1276.03 163.386ZM1280.37 162.008L1288.25 200.231L1289.24 200.028L1281.36 161.805L1280.37 162.008ZM1288.6 199.648C1286.19 200.366 1282.72 201.25 1278.19 202.3L1278.42 203.278C1282.95 202.227 1286.44 201.337 1288.89 200.611L1288.6 199.648ZM1278.19 202.3C1273.76 203.342 1268.47 204.029 1262.32 204.356L1262.37 205.359C1268.56 205.03 1273.92 204.337 1278.42 203.278L1278.19 202.3ZM1262.32 204.356C1249.88 205.01 1239.48 203.732 1231.1 200.546L1230.74 201.485C1239.3 204.736 1249.85 206.019 1262.37 205.359L1262.32 204.356ZM1231.1 200.547C1222.72 197.299 1216.44 192.211 1212.24 185.288L1211.38 185.81C1215.71 192.942 1222.17 198.165 1230.74 201.484L1231.1 200.547ZM1212.24 185.288C1208.03 178.362 1205.97 169.66 1206.1 159.154L1205.1 159.141C1204.97 169.783 1207.05 178.682 1211.38 185.81L1212.24 185.288ZM1206.1 159.148V15.1218H1205.1V159.148H1206.1ZM1337.29 195.696L1337.04 196.134L1337.04 196.135L1337.29 195.696ZM1310.39 168.309L1309.95 168.545L1309.95 168.546L1310.39 168.309ZM1310.39 86.6422L1310.84 86.8788L1310.84 86.8777L1310.39 86.6422ZM1337.29 59.2556L1337.53 59.6947L1337.53 59.6936L1337.29 59.2556ZM1421.62 59.2556L1421.37 59.6936L1421.37 59.6947L1421.62 59.2556ZM1448.51 86.6422L1448.07 86.8777L1448.07 86.8788L1448.51 86.6422ZM1448.51 168.309L1448.95 168.546L1448.95 168.545L1448.51 168.309ZM1421.62 195.696L1421.86 196.135L1421.86 196.134L1421.62 195.696ZM1391.77 160.625L1392.11 160.995L1391.77 160.625ZM1399.55 147.425L1400.03 147.579L1399.55 147.425ZM1399.55 106.64L1399.07 106.794L1399.07 106.796L1399.55 106.64ZM1391.77 93.4396L1392.11 93.0702L1391.77 93.4396ZM1359.36 106.64L1359.83 106.796L1359.83 106.794L1359.36 106.64ZM1359.36 147.425L1359.83 147.271L1359.36 147.425ZM1379.45 204.946C1363.1 204.946 1349.13 201.709 1337.53 195.257L1337.04 196.135C1348.82 202.687 1362.97 205.951 1379.45 205.951V204.946ZM1337.53 195.258C1325.93 188.737 1317.03 179.677 1310.84 168.073L1309.95 168.546C1316.24 180.322 1325.27 189.52 1337.04 196.134L1337.53 195.258ZM1310.84 168.074C1304.64 156.402 1301.54 142.857 1301.54 127.427H1300.53C1300.53 142.994 1303.67 156.705 1309.95 168.545L1310.84 168.074ZM1301.54 127.427C1301.54 111.996 1304.64 98.4847 1310.84 86.8788L1309.95 86.4057C1303.67 98.1801 1300.53 111.859 1300.53 127.427H1301.54ZM1310.84 86.8777C1317.03 75.208 1325.93 66.1496 1337.53 59.6947L1337.04 58.8166C1325.27 65.3653 1316.24 74.5647 1309.95 86.4067L1310.84 86.8777ZM1337.53 59.6936C1349.13 53.1768 1363.1 49.9067 1379.45 49.9067V48.902C1362.97 48.902 1348.82 52.1994 1337.04 58.8176L1337.53 59.6936ZM1379.45 49.9067C1395.8 49.9067 1409.77 53.1768 1421.37 59.6936L1421.86 58.8176C1410.08 52.1994 1395.94 48.902 1379.45 48.902V49.9067ZM1421.37 59.6947C1432.98 66.1496 1441.87 75.208 1448.07 86.8777L1448.95 86.4067C1442.67 74.5647 1433.63 65.3653 1421.86 58.8166L1421.37 59.6947ZM1448.07 86.8788C1454.26 98.4847 1457.37 111.996 1457.37 127.427H1458.37C1458.37 111.859 1455.24 98.1801 1448.95 86.4057L1448.07 86.8788ZM1457.37 127.427C1457.37 142.857 1454.26 156.402 1448.07 168.074L1448.95 168.545C1455.24 156.705 1458.37 142.994 1458.37 127.427H1457.37ZM1448.07 168.073C1441.87 179.677 1432.98 188.737 1421.37 195.258L1421.86 196.134C1433.63 189.52 1442.67 180.322 1448.95 168.546L1448.07 168.073ZM1421.37 195.257C1409.77 201.709 1395.8 204.946 1379.45 204.946V205.951C1395.94 205.951 1410.08 202.687 1421.86 196.135L1421.37 195.257ZM1379.85 165.758C1384.57 165.758 1388.66 164.168 1392.11 160.995L1391.43 160.256C1388.17 163.256 1384.32 164.753 1379.85 164.753V165.758ZM1392.11 160.995C1395.54 157.834 1398.17 153.349 1400.03 147.579L1399.07 147.271C1397.25 152.927 1394.69 157.244 1391.43 160.256L1392.11 160.995ZM1400.03 147.579C1401.89 141.802 1402.81 134.95 1402.81 127.033H1401.8C1401.8 134.877 1400.89 141.62 1399.07 147.271L1400.03 147.579ZM1402.81 127.033C1402.81 119.05 1401.89 112.197 1400.03 106.485L1399.07 106.796C1400.89 112.38 1401.8 119.122 1401.8 127.033H1402.81ZM1400.03 106.486C1398.17 100.716 1395.54 96.2314 1392.11 93.0702L1391.43 93.809C1394.69 96.8213 1397.25 101.138 1399.07 106.794L1400.03 106.486ZM1392.11 93.0702C1388.66 89.8971 1384.57 88.3071 1379.85 88.3071V89.3119C1384.32 89.3119 1388.17 90.8087 1391.43 93.809L1392.11 93.0702ZM1379.85 88.3071C1374.87 88.3071 1370.58 89.8916 1367 93.0637L1367.67 93.8155C1371.05 90.8141 1375.1 89.3119 1379.85 89.3119V88.3071ZM1367 93.0637C1363.44 96.2251 1360.74 100.711 1358.88 106.486L1359.83 106.794C1361.65 101.142 1364.27 96.8276 1367.67 93.8155L1367 93.0637ZM1358.88 106.485C1357.02 112.197 1356.09 119.05 1356.09 127.033H1357.1C1357.1 119.122 1358.01 112.38 1359.83 106.796L1358.88 106.485ZM1356.09 127.033C1356.09 134.95 1357.02 141.802 1358.88 147.579L1359.83 147.271C1358.01 141.62 1357.1 134.877 1357.1 127.033H1356.09ZM1358.88 147.579C1360.74 153.354 1363.44 157.84 1367 161.001L1367.67 160.25C1364.27 157.237 1361.65 152.923 1359.83 147.271L1358.88 147.579ZM1367 161.001C1370.58 164.173 1374.87 165.758 1379.85 165.758V164.753C1375.1 164.753 1371.05 163.251 1367.67 160.25L1367 161.001ZM1479.93 202.69H1479.43V203.193H1479.93V202.69ZM1479.93 51.3746V50.8722H1479.43V51.3746H1479.93ZM1532.74 51.3746H1533.24V50.8722H1532.74V51.3746ZM1532.74 80.1404H1532.24V80.6427H1532.74V80.1404ZM1534.31 80.1404V80.6427H1534.7L1534.8 80.2664L1534.31 80.1404ZM1547.42 56.7928L1547.1 56.4034L1547.1 56.4051L1547.42 56.7928ZM1575.59 49.9954L1575.51 50.4906L1575.51 50.4919L1575.52 50.493L1575.59 49.9954ZM1582.39 51.4731H1582.89V51.1004L1582.53 50.9923L1582.39 51.4731ZM1582.39 97.8727L1582.23 98.3481L1582.89 98.5751V97.8727H1582.39ZM1572.44 95.8039L1572.5 95.3049L1572.44 95.8039ZM1547.91 98.7593L1548.16 99.1972L1548.16 99.1959L1547.91 98.7593ZM1537.96 108.808L1538.4 109.056L1538.4 109.053L1537.96 108.808ZM1534.31 202.69V203.193H1534.82V202.69H1534.31ZM1480.44 202.69V51.3746H1479.43V202.69H1480.44ZM1479.93 51.877H1532.74V50.8722H1479.93V51.877ZM1532.24 51.3746V80.1404H1533.24V51.3746H1532.24ZM1532.74 80.6427H1534.31V79.638H1532.74V80.6427ZM1534.8 80.2664C1537.54 69.6881 1541.87 62.0157 1547.74 57.1805L1547.1 56.4051C1541.01 61.4212 1536.6 69.3139 1533.83 80.0143L1534.8 80.2664ZM1547.73 57.1822C1553.68 52.3324 1560.63 49.9067 1568.6 49.9067V48.902C1560.41 48.902 1553.23 51.4019 1547.1 56.4034L1547.73 57.1822ZM1568.6 49.9067C1570.93 49.9067 1573.24 50.1014 1575.51 50.4906L1575.68 49.5003C1573.35 49.1013 1570.99 48.902 1568.6 48.902V49.9067ZM1575.52 50.493C1577.86 50.818 1580.1 51.3051 1582.24 51.9539L1582.53 50.9923C1580.34 50.3276 1578.05 49.8296 1575.66 49.4978L1575.52 50.493ZM1581.89 51.4731V97.8727H1582.89V51.4731H1581.89ZM1582.55 97.3973C1579.81 96.4628 1576.46 95.7673 1572.5 95.3049L1572.38 96.3029C1576.3 96.76 1579.58 97.4437 1582.23 98.3481L1582.55 97.3973ZM1572.5 95.3049C1568.54 94.8438 1565.14 94.612 1562.29 94.612V95.6167C1565.09 95.6167 1568.45 95.8446 1572.38 96.3029L1572.5 95.3049ZM1562.29 94.612C1556.89 94.612 1552.01 95.8461 1547.66 98.3227L1548.16 99.1959C1552.34 96.8126 1557.05 95.6167 1562.29 95.6167V94.612ZM1547.66 98.3215C1543.38 100.732 1539.99 104.149 1537.52 108.562L1538.4 109.053C1540.78 104.797 1544.03 101.515 1548.16 99.1972L1547.66 98.3215ZM1537.52 108.559C1535.04 112.916 1533.81 118.029 1533.81 123.88H1534.82C1534.82 118.172 1536.02 113.237 1538.4 109.056L1537.52 108.559ZM1533.81 123.88V202.69H1534.82V123.88H1533.81ZM1534.31 202.188H1479.93V203.193H1534.31V202.188ZM1660.51 193.627H1660.01V194.13H1660.51V193.627ZM1660.51 47.8281V47.3258H1660.01V47.8281H1660.51ZM1704.64 47.8281H1705.15V47.3258H1704.64V47.8281ZM1704.64 193.627V194.13H1705.15V193.627H1704.64ZM1609.68 142.795H1609.17V143.297H1609.68V142.795ZM1609.68 98.6608V98.1584H1609.17V98.6608H1609.68ZM1755.48 98.6608H1755.98V98.1584H1755.48V98.6608ZM1755.48 142.795V143.297H1755.98V142.795H1755.48ZM1661.01 193.627V47.8281H1660.01V193.627H1661.01ZM1660.51 48.3305H1704.64V47.3258H1660.51V48.3305ZM1704.14 47.8281V193.627H1705.15V47.8281H1704.14ZM1704.64 193.125H1660.51V194.13H1704.64V193.125ZM1610.18 142.795V98.6608H1609.17V142.795H1610.18ZM1609.68 99.1632H1755.48V98.1584H1609.68V99.1632ZM1754.97 98.6608V142.795H1755.98V98.6608H1754.97ZM1755.48 142.292H1609.68V143.297H1755.48V142.292Z" fill="#00BFFB" mask="url(#path-1-outside-1_1914_3472)"/>
</svg>
