<svg width="1728" height="241" viewBox="0 0 1728 241" fill="none" xmlns="http://www.w3.org/2000/svg">
<mask id="path-1-outside-1_2007_788" maskUnits="userSpaceOnUse" x="-66.5" y="-1.43359" width="1864" height="243" fill="black">
<rect fill="white" x="-66.5" y="-1.43359" width="1864" height="243"/>
<path d="M107.633 101.942C107.633 121.675 103.796 138.321 96.1224 151.88C88.4486 165.381 78.0918 175.623 65.0521 182.604C52.0124 189.528 37.4725 192.99 21.4325 192.99C5.27708 192.99 -9.32049 189.499 -22.3602 182.518C-35.3423 175.478 -45.6702 165.208 -53.344 151.707C-60.9601 138.148 -64.7682 121.56 -64.7682 101.942C-64.7682 82.2097 -60.9601 65.5927 -53.344 52.0914C-45.6702 38.5324 -35.3423 28.291 -22.3602 21.3673C-9.32049 14.3858 5.27708 10.8951 21.4325 10.8951C37.4725 10.8951 52.0124 14.3858 65.0521 21.3673C78.0918 28.291 88.4486 38.5324 96.1224 52.0914C103.796 65.5927 107.633 82.2097 107.633 101.942ZM58.1284 101.942C58.1284 91.326 56.7148 82.3828 53.8876 75.1129C51.1181 67.7852 46.9927 62.2462 41.5114 58.4959C36.0878 54.6878 29.3948 52.7838 21.4325 52.7838C13.4702 52.7838 6.74837 54.6878 1.26707 58.4959C-4.15653 62.2462 -8.28193 67.7852 -11.1091 75.1129C-13.8786 82.3828 -15.2634 91.326 -15.2634 101.942C-15.2634 112.559 -13.8786 121.531 -11.1091 128.858C-8.28193 136.128 -4.15653 141.667 1.26707 145.475C6.74837 149.226 13.4702 151.101 21.4325 151.101C29.3948 151.101 36.0878 149.226 41.5114 145.475C46.9927 141.667 51.1181 136.128 53.8876 128.858C56.7148 121.531 58.1284 112.559 58.1284 101.942ZM216.79 132.407V57.6304H264.564V190.566H219.214V165.295H217.829C214.944 173.776 209.896 180.412 202.683 185.201C195.471 189.932 186.903 192.297 176.979 192.297C167.689 192.297 159.554 190.163 152.573 185.893C145.649 181.623 140.254 175.738 136.388 168.237C132.58 160.737 130.647 152.14 130.59 142.446V57.6304H178.364V132.407C178.421 138.984 180.095 144.148 183.383 147.899C186.73 151.649 191.403 153.524 197.404 153.524C201.385 153.524 204.818 152.688 207.703 151.014C210.646 149.284 212.896 146.86 214.454 143.745C216.069 140.571 216.848 136.792 216.79 132.407ZM288.862 190.566V57.6304H335.251V82.9021H336.636C339.059 73.555 342.896 66.7178 348.147 62.3905C353.455 58.0632 359.658 55.8995 366.754 55.8995C368.832 55.8995 370.88 56.0726 372.899 56.4188C374.976 56.7073 376.967 57.14 378.871 57.717V98.4805C376.505 97.6728 373.592 97.0669 370.13 96.6631C366.668 96.2592 363.696 96.0572 361.215 96.0572C356.542 96.0572 352.33 97.1246 348.58 99.2595C344.887 101.337 341.973 104.279 339.838 108.087C337.704 111.838 336.636 116.251 336.636 121.329V190.566H288.862ZM442.396 190.566V13.3184H490.517V151.793H562.177V190.566H442.396ZM646.02 192.99C631.826 192.99 619.594 190.278 609.324 184.854C599.111 179.373 591.235 171.526 585.696 161.314C580.215 151.043 577.474 138.754 577.474 124.445C577.474 110.712 580.244 98.7113 585.783 88.4411C591.322 78.1709 599.14 70.1797 609.237 64.4676C619.334 58.7555 631.249 55.8995 644.981 55.8995C655.02 55.8995 664.108 57.4573 672.243 60.573C680.379 63.6887 687.331 68.218 693.101 74.1609C698.871 80.0461 703.314 87.2006 706.429 95.6245C709.545 104.048 711.103 113.54 711.103 124.098V135.176H592.361V108.866H667.137C667.079 105.058 666.098 101.712 664.194 98.8267C662.348 95.8841 659.838 93.6051 656.665 91.9895C653.549 90.3163 650.001 89.4797 646.02 89.4797C642.154 89.4797 638.605 90.3163 635.374 91.9895C632.143 93.6051 629.547 95.8553 627.585 98.7402C625.681 101.625 624.671 105 624.556 108.866V137.254C624.556 141.523 625.45 145.331 627.239 148.678C629.028 152.024 631.595 154.649 634.942 156.553C638.288 158.458 642.327 159.41 647.058 159.41C650.347 159.41 653.347 158.948 656.059 158.025C658.829 157.102 661.194 155.775 663.156 154.044C665.118 152.255 666.56 150.12 667.483 147.639H711.103C709.603 156.871 706.054 164.891 700.458 171.699C694.861 178.45 687.447 183.7 678.215 187.451C669.041 191.143 658.309 192.99 646.02 192.99ZM767.64 192.644C759.158 192.644 751.657 191.259 745.137 188.489C738.675 185.662 733.598 181.392 729.905 175.68C726.212 169.968 724.366 162.698 724.366 153.871C724.366 146.601 725.607 140.398 728.088 135.263C730.569 130.07 734.031 125.829 738.473 122.541C742.916 119.252 748.08 116.742 753.965 115.011C759.908 113.28 766.313 112.155 773.179 111.636C780.622 111.059 786.593 110.366 791.094 109.559C795.652 108.693 798.941 107.51 800.96 106.01C802.98 104.452 803.989 102.404 803.989 99.8653V99.5191C803.989 96.0572 802.662 93.4031 800.008 91.5568C797.354 89.7105 793.95 88.7873 789.796 88.7873C785.237 88.7873 781.516 89.797 778.631 91.8164C775.804 93.7782 774.102 96.8073 773.525 100.904H729.559C730.136 92.8261 732.703 85.3831 737.262 78.5748C741.877 71.7087 748.599 66.2274 757.427 62.1309C766.255 57.9766 777.275 55.8995 790.488 55.8995C800.008 55.8995 808.547 57.0246 816.106 59.2748C823.664 61.4673 830.098 64.5542 835.406 68.5353C840.714 72.4588 844.753 77.0746 847.522 82.3828C850.35 87.6333 851.763 93.3454 851.763 99.5191V190.566H807.105V171.872H806.066C803.412 176.834 800.181 180.844 796.373 183.902C792.623 186.96 788.324 189.182 783.478 190.566C778.689 191.951 773.409 192.644 767.64 192.644ZM783.218 162.525C786.853 162.525 790.257 161.775 793.431 160.275C796.662 158.775 799.287 156.611 801.306 153.784C803.326 150.957 804.335 147.524 804.335 143.485V132.407C803.066 132.926 801.71 133.417 800.268 133.878C798.883 134.34 797.383 134.773 795.767 135.176C794.209 135.58 792.536 135.955 790.748 136.302C789.017 136.648 787.199 136.965 785.295 137.254C781.602 137.831 778.573 138.783 776.208 140.11C773.9 141.379 772.169 142.966 771.015 144.87C769.919 146.716 769.371 148.793 769.371 151.101C769.371 154.794 770.669 157.621 773.265 159.583C775.862 161.544 779.179 162.525 783.218 162.525ZM922.71 192.297C913.247 192.297 904.535 189.816 896.573 184.854C888.668 179.892 882.321 172.363 877.532 162.266C872.801 152.168 870.436 139.446 870.436 124.098C870.436 108.058 872.917 95.0187 877.879 84.9792C882.898 74.9398 889.36 67.5833 897.265 62.9098C905.227 58.2362 913.594 55.8995 922.364 55.8995C928.941 55.8995 934.711 57.0534 939.673 59.3613C944.635 61.6116 948.789 64.6407 952.136 68.4488C955.482 72.1991 958.021 76.3245 959.752 80.825H960.444V13.3184H1008.22V190.566H960.791V168.757H959.752C957.906 173.257 955.252 177.296 951.79 180.873C948.385 184.393 944.231 187.191 939.327 189.268C934.48 191.288 928.941 192.297 922.71 192.297ZM940.365 155.601C944.75 155.601 948.501 154.332 951.617 151.793C954.79 149.197 957.213 145.562 958.886 140.889C960.617 136.157 961.483 130.561 961.483 124.098C961.483 117.521 960.617 111.895 958.886 107.222C957.213 102.491 954.79 98.8844 951.617 96.4034C948.501 93.8647 944.75 92.5954 940.365 92.5954C935.98 92.5954 932.23 93.8647 929.114 96.4034C926.056 98.8844 923.691 102.491 922.018 107.222C920.402 111.895 919.594 117.521 919.594 124.098C919.594 130.676 920.402 136.33 922.018 141.062C923.691 145.735 926.056 149.341 929.114 151.88C932.23 154.361 935.98 155.601 940.365 155.601ZM1095.37 192.99C1081.18 192.99 1068.95 190.278 1058.67 184.854C1048.46 179.373 1040.59 171.526 1035.05 161.314C1029.57 151.043 1026.83 138.754 1026.83 124.445C1026.83 110.712 1029.6 98.7113 1035.13 88.4411C1040.67 78.1709 1048.49 70.1797 1058.59 64.4676C1068.69 58.7555 1080.6 55.8995 1094.33 55.8995C1104.37 55.8995 1113.46 57.4573 1121.59 60.573C1129.73 63.6887 1136.68 68.218 1142.45 74.1609C1148.22 80.0461 1152.66 87.2006 1155.78 95.6245C1158.9 104.048 1160.45 113.54 1160.45 124.098V135.176H1041.71V108.866H1116.49C1116.43 105.058 1115.45 101.712 1113.55 98.8267C1111.7 95.8841 1109.19 93.6051 1106.02 91.9895C1102.9 90.3163 1099.35 89.4797 1095.37 89.4797C1091.51 89.4797 1087.96 90.3163 1084.73 91.9895C1081.49 93.6051 1078.9 95.8553 1076.94 98.7402C1075.03 101.625 1074.02 105 1073.91 108.866V137.254C1073.91 141.523 1074.8 145.331 1076.59 148.678C1078.38 152.024 1080.95 154.649 1084.29 156.553C1087.64 158.458 1091.68 159.41 1096.41 159.41C1099.7 159.41 1102.7 158.948 1105.41 158.025C1108.18 157.102 1110.55 155.775 1112.51 154.044C1114.47 152.255 1115.91 150.12 1116.83 147.639H1160.45C1158.95 156.871 1155.41 164.891 1149.81 171.699C1144.21 178.45 1136.8 183.7 1127.57 187.451C1118.39 191.143 1107.66 192.99 1095.37 192.99ZM1179.95 190.566V57.6304H1226.34V82.9021H1227.72C1230.15 73.555 1233.98 66.7178 1239.23 62.3905C1244.54 58.0632 1250.74 55.8995 1257.84 55.8995C1259.92 55.8995 1261.97 56.0726 1263.99 56.4188C1266.06 56.7073 1268.05 57.14 1269.96 57.717V98.4805C1267.59 97.6728 1264.68 97.0669 1261.22 96.6631C1257.75 96.2592 1254.78 96.0572 1252.3 96.0572C1247.63 96.0572 1243.42 97.1246 1239.67 99.2595C1235.97 101.337 1233.06 104.279 1230.92 108.087C1228.79 111.838 1227.72 116.251 1227.72 121.329V190.566H1179.95ZM1407.13 100.904H1363.17C1362.94 98.192 1361.99 95.8553 1360.31 93.8936C1358.64 91.9318 1356.48 90.4317 1353.82 89.3931C1351.23 88.2969 1348.34 87.7487 1345.17 87.7487C1341.07 87.7487 1337.55 88.4988 1334.61 89.9989C1331.67 91.4991 1330.22 93.6339 1330.28 96.4034C1330.22 98.3651 1331.06 100.183 1332.79 101.856C1334.58 103.529 1338.01 104.827 1343.09 105.75L1370.09 110.597C1383.71 113.078 1393.83 117.261 1400.47 123.146C1407.16 128.974 1410.54 136.792 1410.6 146.601C1410.54 156.063 1407.71 164.285 1402.11 171.266C1396.58 178.19 1388.99 183.556 1379.35 187.364C1369.77 191.115 1358.84 192.99 1346.55 192.99C1326.24 192.99 1310.35 188.835 1298.86 180.527C1287.44 172.218 1281.06 161.256 1279.74 147.639H1327.17C1327.8 151.851 1329.88 155.111 1333.4 157.419C1336.97 159.669 1341.47 160.794 1346.9 160.794C1351.28 160.794 1354.89 160.044 1357.72 158.544C1360.6 157.044 1362.07 154.909 1362.13 152.14C1362.07 149.601 1360.8 147.581 1358.32 146.081C1355.9 144.581 1352.09 143.37 1346.9 142.446L1323.36 138.292C1309.8 135.926 1299.64 131.426 1292.89 124.791C1286.14 118.156 1282.8 109.616 1282.85 99.1729C1282.8 89.9412 1285.22 82.1232 1290.12 75.7187C1295.09 69.2565 1302.15 64.3522 1311.33 61.0057C1320.56 57.6016 1331.49 55.8995 1344.13 55.8995C1363.34 55.8995 1378.49 59.8806 1389.57 67.843C1400.7 75.8053 1406.56 86.8256 1407.13 100.904ZM1476.67 115.79V190.566H1428.9V13.3184H1474.94V82.9021H1476.33C1479.33 74.4205 1484.32 67.8141 1491.3 63.0829C1498.28 58.2939 1506.68 55.8995 1516.49 55.8995C1525.89 55.8995 1534.06 58.0343 1540.98 62.3039C1547.96 66.5736 1553.36 72.4588 1557.16 79.9595C1561.03 87.4602 1562.93 96.0572 1562.88 105.75V190.566H1515.1V115.79C1515.16 109.212 1513.51 104.048 1510.17 100.298C1506.88 96.5477 1502.18 94.6725 1496.06 94.6725C1492.2 94.6725 1488.79 95.5379 1485.85 97.2689C1482.96 98.9421 1480.71 101.365 1479.1 104.539C1477.54 107.655 1476.73 111.405 1476.67 115.79ZM1586.46 190.566V57.6304H1634.23V190.566H1586.46ZM1610.35 43.7829C1603.88 43.7829 1598.35 41.6481 1593.73 37.3785C1589.11 33.1088 1586.81 27.9737 1586.81 21.9731C1586.81 15.9725 1589.11 10.8374 1593.73 6.56776C1598.35 2.29812 1603.88 0.163302 1610.35 0.163302C1616.87 0.163302 1622.41 2.29812 1626.96 6.56776C1631.58 10.8374 1633.89 15.9725 1633.89 21.9731C1633.89 27.9737 1631.58 33.1088 1626.96 37.3785C1622.41 41.6481 1616.87 43.7829 1610.35 43.7829ZM1658.57 240.417V57.6304H1706V80.825H1707.04C1708.77 76.3245 1711.31 72.1991 1714.66 68.4488C1718 64.6407 1722.16 61.6116 1727.12 59.3613C1732.08 57.0534 1737.85 55.8995 1744.43 55.8995C1753.2 55.8995 1761.54 58.2362 1769.44 62.9098C1777.4 67.5833 1783.87 74.9398 1788.83 84.9792C1793.85 95.0187 1796.36 108.058 1796.36 124.098C1796.36 139.446 1793.96 152.168 1789.17 162.266C1784.44 172.363 1778.1 179.892 1770.13 184.854C1762.23 189.816 1753.55 192.297 1744.08 192.297C1737.85 192.297 1732.28 191.288 1727.38 189.268C1722.53 187.191 1718.38 184.393 1714.92 180.873C1711.51 177.296 1708.89 173.257 1707.04 168.757H1706.35V240.417H1658.57ZM1705.31 124.098C1705.31 130.561 1706.15 136.157 1707.82 140.889C1709.55 145.562 1711.97 149.197 1715.09 151.793C1718.26 154.332 1722.04 155.601 1726.43 155.601C1730.81 155.601 1734.53 154.361 1737.59 151.88C1740.71 149.341 1743.07 145.735 1744.69 141.062C1746.36 136.33 1747.2 130.676 1747.2 124.098C1747.2 117.521 1746.36 111.895 1744.69 107.222C1743.07 102.491 1740.71 98.8844 1737.59 96.4034C1734.53 93.8647 1730.81 92.5954 1726.43 92.5954C1722.04 92.5954 1718.26 93.8647 1715.09 96.4034C1711.97 98.8844 1709.55 102.491 1707.82 107.222C1706.15 111.895 1705.31 117.521 1705.31 124.098Z"/>
</mask>
<path d="M96.1224 151.88L96.9918 152.374L96.9927 152.372L96.1224 151.88ZM65.0521 182.604L65.5211 183.487L65.5241 183.486L65.0521 182.604ZM-22.3602 182.518L-22.8369 183.397L-22.8322 183.399L-22.3602 182.518ZM-53.344 151.707L-54.2159 152.197L-54.2134 152.201L-53.344 151.707ZM-53.344 52.0914L-54.2143 51.5989L-54.215 51.6001L-53.344 52.0914ZM-22.3602 21.3673L-21.8896 22.2496L-21.8882 22.2489L-22.3602 21.3673ZM65.0521 21.3673L64.5801 22.2489L64.5831 22.2505L65.0521 21.3673ZM96.1224 52.0914L95.2522 52.584L95.2531 52.5856L96.1224 52.0914ZM53.8876 75.1129L52.9521 75.4664L52.9556 75.4753L53.8876 75.1129ZM41.5114 58.4959L40.9367 59.3144L40.9467 59.3212L41.5114 58.4959ZM1.26707 58.4959L1.83583 59.3184L1.83763 59.3171L1.26707 58.4959ZM-11.1091 75.1129L-12.0421 74.7529L-12.0436 74.7569L-11.1091 75.1129ZM-11.1091 128.858L-12.0446 129.212L-12.0411 129.221L-11.1091 128.858ZM1.26707 145.475L0.692398 146.294L0.702393 146.301L1.26707 145.475ZM41.5114 145.475L42.0801 146.298L42.0819 146.297L41.5114 145.475ZM53.8876 128.858L52.9546 128.499L52.9531 128.502L53.8876 128.858ZM106.633 101.942C106.633 121.548 102.821 138.014 95.2522 151.387L96.9927 152.372C104.771 138.628 108.633 121.803 108.633 101.942H106.633ZM95.2531 151.386C87.6676 164.732 77.445 174.835 64.5801 181.723L65.5241 183.486C78.7387 176.411 89.2296 166.031 96.9918 152.374L95.2531 151.386ZM64.5831 181.721C51.7001 188.561 37.3235 191.99 21.4325 191.99V193.99C37.6216 193.99 52.3247 190.494 65.5211 183.487L64.5831 181.721ZM21.4325 191.99C5.42622 191.99 -9.00678 188.533 -21.8882 181.636L-22.8322 183.399C-9.63421 190.465 5.12793 193.99 21.4325 193.99V191.99ZM-21.8836 181.638C-34.6926 174.693 -44.8882 164.56 -52.4746 151.213L-54.2134 152.201C-46.4522 165.856 -35.9919 176.264 -22.8369 183.397L-21.8836 181.638ZM-52.4721 151.217C-59.985 137.842 -63.7682 121.432 -63.7682 101.942H-65.7682C-65.7682 121.687 -61.9352 138.454 -54.2159 152.197L-52.4721 151.217ZM-63.7682 101.942C-63.7682 82.3358 -59.9845 65.8985 -52.473 52.5827L-54.215 51.6001C-61.9358 65.2869 -65.7682 82.0836 -65.7682 101.942H-63.7682ZM-52.4737 52.584C-44.8876 39.18 -34.6941 29.0787 -21.8896 22.2496L-22.8308 20.4849C-35.9904 27.5034 -46.4527 37.8848 -54.2143 51.5989L-52.4737 52.584ZM-21.8882 22.2489C-9.00678 15.3522 5.42622 11.8951 21.4325 11.8951V9.8951C5.12793 9.8951 -9.63421 13.4195 -22.8322 20.4857L-21.8882 22.2489ZM21.4325 11.8951C37.3221 11.8951 51.6976 15.3516 64.5801 22.2489L65.5241 20.4857C52.3271 13.42 37.6229 9.8951 21.4325 9.8951V11.8951ZM64.5831 22.2505C77.4451 29.0799 87.6667 39.1811 95.2522 52.584L96.9927 51.5989C89.2305 37.8837 78.7386 27.5022 65.5211 20.4841L64.5831 22.2505ZM95.2531 52.5856C102.821 65.9007 106.633 82.337 106.633 101.942H108.633C108.633 82.0825 104.771 65.2847 96.9918 51.5973L95.2531 52.5856ZM59.1284 101.942C59.1284 91.2439 57.7047 82.1694 54.8196 74.7504L52.9556 75.4753C55.7248 82.5962 57.1284 91.4081 57.1284 101.942H59.1284ZM54.823 74.7593C51.9944 67.2755 47.7549 61.5561 42.076 57.6706L40.9467 59.3212C46.2304 62.9364 50.2417 68.295 52.9521 75.4664L54.823 74.7593ZM42.086 57.6775C36.4625 53.7291 29.5582 51.7838 21.4325 51.7838V53.7838C29.2314 53.7838 35.713 55.6466 40.9367 59.3143L42.086 57.6775ZM21.4325 51.7838C13.3064 51.7838 6.37556 53.7292 0.696518 57.6746L1.83763 59.3171C7.12119 55.6465 13.6339 53.7838 21.4325 53.7838V51.7838ZM0.698318 57.6734C-4.91982 61.5583 -9.15673 67.2745 -12.0421 74.7529L-10.1762 75.4729C-7.40713 68.296 -3.39323 62.9342 1.83583 59.3184L0.698318 57.6734ZM-12.0436 74.7569C-14.8691 82.1737 -16.2634 91.2458 -16.2634 101.942H-14.2634C-14.2634 91.4062 -12.8882 82.592 -10.1746 75.4689L-12.0436 74.7569ZM-16.2634 101.942C-16.2634 112.639 -14.869 121.739 -12.0445 129.212L-10.1737 128.505C-12.8883 121.323 -14.2634 112.478 -14.2634 101.942H-16.2634ZM-12.0411 129.221C-9.15534 136.642 -4.91958 142.354 0.692444 146.294L1.84171 144.657C-3.39349 140.981 -7.40852 135.615 -10.1771 128.496L-12.0411 129.221ZM0.702393 146.301C6.38078 150.186 13.3094 152.101 21.4325 152.101V150.101C13.6309 150.101 7.11597 148.266 1.83176 144.65L0.702393 146.301ZM21.4325 152.101C29.5551 152.101 36.4573 150.186 42.0801 146.298L40.9426 144.653C35.7183 148.266 29.2345 150.101 21.4325 150.101V152.101ZM42.0819 146.297C47.7547 142.356 51.993 136.641 54.8221 129.214L52.9531 128.502C50.2431 135.616 46.2307 140.979 40.9408 144.654L42.0819 146.297ZM54.8205 129.218C57.7046 121.743 59.1284 112.641 59.1284 101.942H57.1284C57.1284 112.476 55.7249 121.318 52.9546 128.499L54.8205 129.218ZM216.79 132.407H215.79L215.79 132.42L216.79 132.407ZM216.79 57.6304V56.6304H215.79V57.6304H216.79ZM264.564 57.6304H265.564V56.6304H264.564V57.6304ZM264.564 190.566V191.566H265.564V190.566H264.564ZM219.214 190.566H218.214V191.566H219.214V190.566ZM219.214 165.295H220.214V164.295H219.214V165.295ZM217.829 165.295V164.295H217.113L216.882 164.973L217.829 165.295ZM202.683 185.201L203.232 186.037L203.236 186.034L202.683 185.201ZM152.573 185.893L152.048 186.744L152.051 186.746L152.573 185.893ZM136.388 168.237L135.497 168.69L135.499 168.695L136.388 168.237ZM130.59 142.446H129.59L129.59 142.452L130.59 142.446ZM130.59 57.6304V56.6304H129.59V57.6304H130.59ZM178.364 57.6304H179.364V56.6304H178.364V57.6304ZM178.364 132.407H177.364L177.364 132.416L178.364 132.407ZM183.383 147.899L182.631 148.558L182.637 148.565L183.383 147.899ZM207.703 151.014L208.205 151.88L208.21 151.876L207.703 151.014ZM214.454 143.745L213.562 143.291L213.559 143.297L214.454 143.745ZM217.79 132.407V57.6304H215.79V132.407H217.79ZM216.79 58.6304H264.564V56.6304H216.79V58.6304ZM263.564 57.6304V190.566H265.564V57.6304H263.564ZM264.564 189.566H219.214V191.566H264.564V189.566ZM220.214 190.566V165.295H218.214V190.566H220.214ZM219.214 164.295H217.829V166.295H219.214V164.295ZM216.882 164.973C214.066 173.253 209.152 179.705 202.13 184.367L203.236 186.034C210.639 181.118 215.822 174.3 218.776 165.617L216.882 164.973ZM202.135 184.364C195.109 188.973 186.738 191.297 176.979 191.297V193.297C187.068 193.297 195.833 190.89 203.232 186.037L202.135 184.364ZM176.979 191.297C167.848 191.297 159.898 189.201 153.094 185.04L152.051 186.746C159.21 191.124 167.531 193.297 176.979 193.297V191.297ZM153.098 185.042C146.335 180.871 141.063 175.125 137.277 167.779L135.499 168.695C139.445 176.352 144.963 182.375 152.048 186.744L153.098 185.042ZM137.28 167.785C133.552 160.442 131.647 152.002 131.59 142.44L129.59 142.452C129.648 152.277 131.608 161.031 135.497 168.69L137.28 167.785ZM131.59 142.446V57.6304H129.59V142.446H131.59ZM130.59 58.6304H178.364V56.6304H130.59V58.6304ZM177.364 57.6304V132.407H179.364V57.6304H177.364ZM177.364 132.416C177.423 139.155 179.14 144.577 182.631 148.558L184.135 147.239C181.049 143.72 179.42 138.814 179.364 132.398L177.364 132.416ZM182.637 148.565C186.21 152.569 191.179 154.524 197.404 154.524V152.524C191.628 152.524 187.249 150.73 184.129 147.233L182.637 148.565ZM197.404 154.524C201.527 154.524 205.14 153.657 208.205 151.88L207.201 150.149C204.496 151.719 201.243 152.524 197.404 152.524V154.524ZM208.21 151.876C211.323 150.045 213.706 147.476 215.348 144.192L213.559 143.297C212.086 146.244 209.969 148.522 207.196 150.153L208.21 151.876ZM215.345 144.198C217.049 140.851 217.85 136.904 217.79 132.394L215.79 132.42C215.847 136.68 215.089 140.292 213.562 143.291L215.345 144.198ZM288.862 190.566H287.862V191.566H288.862V190.566ZM288.862 57.6304V56.6304H287.862V57.6304H288.862ZM335.251 57.6304H336.251V56.6304H335.251V57.6304ZM335.251 82.9021H334.251V83.9021H335.251V82.9021ZM336.636 82.9021V83.9021H337.41L337.604 83.1531L336.636 82.9021ZM348.147 62.3905L347.515 61.6154L347.511 61.6188L348.147 62.3905ZM372.899 56.4188L372.73 57.4044L372.746 57.4071L372.762 57.4093L372.899 56.4188ZM378.871 57.717H379.871V56.9751L379.161 56.7599L378.871 57.717ZM378.871 98.4805L378.548 99.4269L379.871 99.8787V98.4805H378.871ZM370.13 96.6631L370.246 95.6698L370.13 96.6631ZM348.58 99.2595L349.07 100.131L349.074 100.129L348.58 99.2595ZM339.838 108.087L340.707 108.582L340.711 108.576L339.838 108.087ZM336.636 190.566V191.566H337.636V190.566H336.636ZM289.862 190.566V57.6304H287.862V190.566H289.862ZM288.862 58.6304H335.251V56.6304H288.862V58.6304ZM334.251 57.6304V82.9021H336.251V57.6304H334.251ZM335.251 83.9021H336.636V81.9021H335.251V83.9021ZM337.604 83.1531C339.996 73.9274 343.751 67.3096 348.783 63.1622L347.511 61.6188C342.042 66.1261 338.123 73.1826 335.668 82.6511L337.604 83.1531ZM348.779 63.1656C353.902 58.9893 359.879 56.8995 366.754 56.8995V54.8995C359.436 54.8995 353.009 57.137 347.515 61.6154L348.779 63.1656ZM366.754 56.8995C368.776 56.8995 370.767 57.0679 372.73 57.4044L373.068 55.4332C370.992 55.0773 368.887 54.8995 366.754 54.8995V56.8995ZM372.762 57.4093C374.79 57.691 376.729 58.1129 378.581 58.674L379.161 56.7599C377.205 56.1671 375.163 55.7235 373.037 55.4283L372.762 57.4093ZM377.871 57.717V98.4805H379.871V57.717H377.871ZM379.194 97.5342C376.741 96.6965 373.753 96.0789 370.246 95.6698L370.014 97.6563C373.431 98.0549 376.27 98.6491 378.548 99.4269L379.194 97.5342ZM370.246 95.6698C366.759 95.2631 363.747 95.0572 361.215 95.0572V97.0572C363.646 97.0572 366.576 97.2553 370.014 97.6563L370.246 95.6698ZM361.215 95.0572C356.383 95.0572 351.998 96.1627 348.085 98.3904L349.074 100.129C352.662 98.0866 356.701 97.0572 361.215 97.0572V95.0572ZM348.089 98.3879C344.232 100.558 341.188 103.635 338.966 107.598L340.711 108.576C342.759 104.923 345.542 102.115 349.07 100.131L348.089 98.3879ZM338.969 107.593C336.735 111.518 335.636 116.109 335.636 121.329H337.636C337.636 116.394 338.673 112.157 340.707 108.582L338.969 107.593ZM335.636 121.329V190.566H337.636V121.329H335.636ZM336.636 189.566H288.862V191.566H336.636V189.566ZM442.396 190.566H441.396V191.566H442.396V190.566ZM442.396 13.3184V12.3184H441.396V13.3184H442.396ZM490.516 13.3184H491.516V12.3184H490.516V13.3184ZM490.516 151.793H489.516V152.793H490.516V151.793ZM562.177 151.793H563.177V150.793H562.177V151.793ZM562.177 190.566V191.566H563.177V190.566H562.177ZM443.396 190.566V13.3184H441.396V190.566H443.396ZM442.396 14.3184H490.516V12.3184H442.396V14.3184ZM489.516 13.3184V151.793H491.516V13.3184H489.516ZM490.516 152.793H562.177V150.793H490.516V152.793ZM561.177 151.793V190.566H563.177V151.793H561.177ZM562.177 189.566H442.396V191.566H562.177V189.566ZM609.324 184.854L608.851 185.735L608.857 185.739L609.324 184.854ZM585.696 161.314L584.814 161.784L584.817 161.79L585.696 161.314ZM585.783 88.4411L586.663 88.9158L585.783 88.4411ZM609.237 64.4676L609.73 65.338L609.237 64.4676ZM672.243 60.573L672.601 59.6392L672.243 60.573ZM693.101 74.1609L692.384 74.8575L692.387 74.8609L693.101 74.1609ZM706.429 95.6245L705.491 95.9714L706.429 95.6245ZM711.103 135.176V136.176H712.103V135.176H711.103ZM592.361 135.176H591.361V136.176H592.361V135.176ZM592.361 108.866V107.866H591.361V108.866H592.361ZM667.137 108.866V109.866H668.152L668.137 108.851L667.137 108.866ZM664.194 98.8267L663.347 99.3582L663.353 99.368L663.36 99.3776L664.194 98.8267ZM656.665 91.9895L656.192 92.8705L656.201 92.8757L656.211 92.8807L656.665 91.9895ZM635.374 91.9895L635.822 92.884L635.828 92.8808L635.834 92.8775L635.374 91.9895ZM627.585 98.7402L626.758 98.1778L626.75 98.1893L627.585 98.7402ZM624.556 108.866L623.556 108.836L623.556 108.851V108.866H624.556ZM627.239 148.678L626.357 149.149L627.239 148.678ZM634.942 156.553L634.447 157.423L634.942 156.553ZM656.059 158.025L655.743 157.076L655.737 157.078L656.059 158.025ZM663.156 154.044L663.818 154.793L663.824 154.788L663.83 154.783L663.156 154.044ZM667.483 147.639V146.639H666.788L666.546 147.29L667.483 147.639ZM711.103 147.639L712.09 147.8L712.278 146.639H711.103V147.639ZM700.458 171.699L701.227 172.337L701.23 172.334L700.458 171.699ZM678.215 187.451L678.588 188.378L678.591 188.377L678.215 187.451ZM646.02 191.99C631.953 191.99 619.888 189.303 609.791 183.97L608.857 185.739C619.299 191.253 631.699 193.99 646.02 193.99V191.99ZM609.797 183.973C599.756 178.584 592.022 170.878 586.575 160.837L584.817 161.79C590.449 172.174 598.466 180.162 608.851 185.735L609.797 183.973ZM586.579 160.843C581.19 150.747 578.474 138.627 578.474 124.445H576.474C576.474 138.881 579.24 151.34 584.814 161.784L586.579 160.843ZM578.474 124.445C578.474 110.849 581.216 99.0164 586.663 88.9158L584.903 87.9664C579.272 98.4063 576.474 110.576 576.474 124.445H578.474ZM586.663 88.9158C592.113 78.8103 599.797 70.9568 609.73 65.338L608.745 63.5972C598.483 69.4026 590.531 77.5314 584.903 87.9664L586.663 88.9158ZM609.73 65.338C619.651 59.7253 631.39 56.8995 644.981 56.8995V54.8995C631.108 54.8995 619.018 57.7858 608.745 63.5972L609.73 65.338ZM644.981 56.8995C654.917 56.8995 663.88 58.441 671.886 61.5069L672.601 59.6392C664.335 56.4736 655.124 54.8995 644.981 54.8995V56.8995ZM671.886 61.5069C679.892 64.5733 686.72 69.0243 692.384 74.8575L693.819 73.4643C687.942 67.4117 680.865 62.8041 672.601 59.6392L671.886 61.5069ZM692.387 74.8609C698.05 80.6367 702.42 87.6677 705.491 95.9714L707.367 95.2776C704.207 86.7335 699.692 79.4554 693.815 73.4608L692.387 74.8609ZM705.491 95.9714C708.56 104.267 710.103 113.638 710.103 124.098H712.103C712.103 113.442 710.53 103.83 707.367 95.2776L705.491 95.9714ZM710.103 124.098V135.176H712.103V124.098H710.103ZM711.103 134.176H592.361V136.176H711.103V134.176ZM593.361 135.176V108.866H591.361V135.176H593.361ZM592.361 109.866H667.137V107.866H592.361V109.866ZM668.137 108.851C668.077 104.872 667.049 101.336 665.029 98.2759L663.36 99.3776C665.148 102.087 666.082 105.244 666.137 108.881L668.137 108.851ZM665.042 98.2952C663.096 95.1954 660.449 92.7938 657.119 91.0984L656.211 92.8807C659.228 94.4163 661.6 96.5729 663.347 99.3582L665.042 98.2952ZM657.138 91.1085C653.859 89.3478 650.145 88.4797 646.02 88.4797V90.4797C649.857 90.4797 653.239 91.2848 656.192 92.8705L657.138 91.1085ZM646.02 88.4797C642.004 88.4797 638.297 89.3501 634.914 91.1015L635.834 92.8775C638.914 91.2825 642.304 90.4797 646.02 90.4797V88.4797ZM634.927 91.0951C631.549 92.7843 628.82 95.1465 626.758 98.1779L628.412 99.3025C630.274 96.5641 632.738 94.4259 635.822 92.884L634.927 91.0951ZM626.75 98.1893C624.732 101.247 623.677 104.808 623.556 108.836L625.556 108.896C625.666 105.193 626.63 102.003 628.42 99.291L626.75 98.1893ZM623.556 108.866V137.254H625.556V108.866H623.556ZM623.556 137.254C623.556 141.667 624.482 145.64 626.357 149.149L628.121 148.206C626.419 145.022 625.556 141.38 625.556 137.254H623.556ZM626.357 149.149C628.236 152.665 630.939 155.427 634.447 157.423L635.436 155.684C632.251 153.872 629.819 151.384 628.121 148.206L626.357 149.149ZM634.447 157.423C637.975 159.43 642.193 160.41 647.058 160.41V158.41C642.461 158.41 638.601 157.485 635.436 155.684L634.447 157.423ZM647.058 160.41C650.441 160.41 653.552 159.935 656.381 158.971L655.737 157.078C653.143 157.961 650.253 158.41 647.058 158.41V160.41ZM656.375 158.973C659.257 158.013 661.744 156.623 663.818 154.793L662.494 153.294C660.644 154.926 658.4 156.19 655.743 157.076L656.375 158.973ZM663.83 154.783C665.909 152.887 667.442 150.619 668.42 147.988L666.546 147.29C665.678 149.622 664.327 151.623 662.482 153.305L663.83 154.783ZM667.483 148.639H711.103V146.639H667.483V148.639ZM710.116 147.479C708.642 156.547 705.163 164.401 699.685 171.064L701.23 172.334C706.946 165.381 710.563 157.195 712.09 147.8L710.116 147.479ZM699.688 171.061C694.21 177.668 686.938 182.827 677.839 186.524L678.591 188.377C687.955 184.573 695.512 179.232 701.227 172.337L699.688 171.061ZM677.842 186.523C668.811 190.158 658.211 191.99 646.02 191.99V193.99C658.407 193.99 669.271 192.129 678.588 188.378L677.842 186.523ZM745.137 188.489L744.737 189.405L744.746 189.41L745.137 188.489ZM729.905 175.68L729.065 176.223L729.905 175.68ZM728.088 135.263L728.988 135.698L728.99 135.694L728.088 135.263ZM738.473 122.541L739.068 123.344L738.473 122.541ZM753.965 115.011L753.686 114.051L753.683 114.052L753.965 115.011ZM773.179 111.636L773.254 112.633L773.256 112.633L773.179 111.636ZM791.094 109.559L791.27 110.543L791.28 110.541L791.094 109.559ZM800.96 106.01L801.556 106.813L801.564 106.807L801.571 106.802L800.96 106.01ZM800.008 91.5568L799.437 92.3777L800.008 91.5568ZM778.631 91.8164L779.201 92.638L779.204 92.6357L778.631 91.8164ZM773.525 100.904V101.904H774.394L774.515 101.043L773.525 100.904ZM729.559 100.904L728.562 100.833L728.485 101.904H729.559V100.904ZM737.262 78.5748L736.432 78.0168L736.431 78.0184L737.262 78.5748ZM757.427 62.1309L757.848 63.038L757.853 63.0357L757.427 62.1309ZM816.106 59.2748L815.82 60.2333L815.827 60.2352L816.106 59.2748ZM835.406 68.5353L834.806 69.3353L834.811 69.3395L835.406 68.5353ZM847.522 82.3828L846.636 82.8454L846.642 82.8569L847.522 82.3828ZM851.763 190.566V191.566H852.763V190.566H851.763ZM807.105 190.566H806.105V191.566H807.105V190.566ZM807.105 171.872H808.105V170.872H807.105V171.872ZM806.066 171.872V170.872H805.467L805.185 171.401L806.066 171.872ZM796.373 183.902L795.747 183.123L795.741 183.127L796.373 183.902ZM783.478 190.566L783.203 189.605L783.2 189.606L783.478 190.566ZM793.431 160.275L793.009 159.368L793.003 159.371L793.431 160.275ZM801.306 153.784L800.493 153.203L801.306 153.784ZM804.335 132.407H805.335V130.917L803.957 131.481L804.335 132.407ZM800.268 133.878L799.963 132.926L799.952 132.93L800.268 133.878ZM795.767 135.176L795.525 134.206L795.516 134.208L795.767 135.176ZM790.748 136.302L790.558 135.32L790.551 135.321L790.748 136.302ZM785.295 137.254L785.145 136.265L785.141 136.266L785.295 137.254ZM776.208 140.11L776.69 140.986L776.697 140.982L776.208 140.11ZM771.015 144.87L770.16 144.351L770.155 144.359L771.015 144.87ZM773.265 159.583L773.868 158.785L773.265 159.583ZM767.64 191.644C759.266 191.644 751.903 190.277 745.528 187.569L744.746 189.41C751.412 192.241 759.05 193.644 767.64 193.644V191.644ZM745.538 187.573C739.249 184.822 734.327 180.678 730.745 175.137L729.065 176.223C732.869 182.106 738.102 186.503 744.737 189.405L745.538 187.573ZM730.745 175.137C727.184 169.629 725.366 162.562 725.366 153.871H723.366C723.366 162.834 725.241 170.308 729.065 176.223L730.745 175.137ZM725.366 153.871C725.366 146.711 726.588 140.665 728.988 135.698L727.187 134.828C724.625 140.131 723.366 146.49 723.366 153.871H725.366ZM728.99 135.694C731.404 130.642 734.762 126.532 739.068 123.344L737.878 121.737C733.299 125.127 729.734 129.498 727.185 134.832L728.99 135.694ZM739.068 123.344C743.407 120.133 748.462 117.672 754.247 115.97L753.683 114.052C747.698 115.812 742.425 118.371 737.878 121.737L739.068 123.344ZM754.245 115.971C760.114 114.262 766.45 113.147 773.254 112.633L773.103 110.639C766.176 111.162 759.702 112.299 753.686 114.051L754.245 115.971ZM773.256 112.633C780.714 112.055 786.723 111.359 791.27 110.543L790.917 108.574C786.464 109.374 780.529 110.063 773.101 110.639L773.256 112.633ZM791.28 110.541C795.882 109.667 799.352 108.45 801.556 106.813L800.364 105.207C798.529 106.57 795.422 107.719 790.907 108.576L791.28 110.541ZM801.571 106.802C803.834 105.056 804.989 102.716 804.989 99.8653H802.989C802.989 102.092 802.125 103.849 800.349 105.218L801.571 106.802ZM804.989 99.8653V99.5191H802.989V99.8653H804.989ZM804.989 99.5191C804.989 95.7572 803.524 92.7842 800.579 90.7359L799.437 92.3777C801.801 94.022 802.989 96.3573 802.989 99.5191H804.989ZM800.579 90.7359C797.715 88.7437 794.096 87.7873 789.796 87.7873V89.7873C793.804 89.7873 796.993 90.6772 799.437 92.3777L800.579 90.7359ZM789.796 87.7873C785.092 87.7873 781.154 88.8298 778.058 90.9972L779.204 92.6357C781.878 90.7642 785.383 89.7873 789.796 89.7873V87.7873ZM778.061 90.9948C774.959 93.1472 773.142 96.4523 772.535 100.764L774.515 101.043C775.062 97.1623 776.649 94.4091 779.201 92.638L778.061 90.9948ZM773.525 99.9039H729.559V101.904H773.525V99.9039ZM730.556 100.975C731.121 93.0729 733.63 85.7967 738.093 79.1311L736.431 78.0184C731.777 84.9695 729.151 92.5794 728.562 100.833L730.556 100.975ZM738.092 79.1327C742.589 72.4431 749.156 67.0713 757.848 63.0379L757.006 61.2238C748.042 65.3835 741.166 70.9743 736.432 78.0168L738.092 79.1327ZM757.853 63.0357C766.509 58.9622 777.373 56.8995 790.488 56.8995V54.8995C777.177 54.8995 766.001 56.991 757.001 61.226L757.853 63.0357ZM790.488 56.8995C799.931 56.8995 808.372 58.0156 815.82 60.2332L816.391 58.3164C808.723 56.0336 800.085 54.8995 790.488 54.8995V56.8995ZM815.827 60.2352C823.291 62.4002 829.61 65.4387 834.806 69.3353L836.006 67.7353C830.585 63.6696 824.038 60.5344 816.384 58.3144L815.827 60.2352ZM834.811 69.3395C840.01 73.1821 843.943 77.6851 846.636 82.8454L848.409 81.9203C845.562 76.4642 841.418 71.7355 836 67.7311L834.811 69.3395ZM846.642 82.8569C849.388 87.9565 850.763 93.5049 850.763 99.5191H852.763C852.763 93.186 851.311 87.3102 848.403 81.9087L846.642 82.8569ZM850.763 99.5191V190.566H852.763V99.5191H850.763ZM851.763 189.566H807.105V191.566H851.763V189.566ZM808.105 190.566V171.872H806.105V190.566H808.105ZM807.105 170.872H806.066V172.872H807.105V170.872ZM805.185 171.401C802.584 176.262 799.435 180.161 795.747 183.123L796.999 184.682C800.927 181.528 804.24 177.407 806.948 172.344L805.185 171.401ZM795.741 183.127C792.1 186.096 787.925 188.256 783.203 189.605L783.752 191.528C788.724 190.107 793.145 187.825 797.005 184.677L795.741 183.127ZM783.2 189.606C778.514 190.961 773.33 191.644 767.64 191.644V193.644C773.489 193.644 778.863 192.942 783.755 191.527L783.2 189.606ZM783.218 163.525C786.995 163.525 790.546 162.745 793.858 161.179L793.003 159.371C789.968 160.806 786.711 161.525 783.218 161.525V163.525ZM793.852 161.182C797.235 159.611 799.997 157.337 802.12 154.365L800.493 153.203C798.576 155.886 796.088 157.939 793.009 159.368L793.852 161.182ZM802.12 154.365C804.279 151.342 805.335 147.697 805.335 143.485H803.335C803.335 147.35 802.372 150.572 800.493 153.203L802.12 154.365ZM805.335 143.485V132.407H803.335V143.485H805.335ZM803.957 131.481C802.714 131.99 801.383 132.471 799.963 132.926L800.573 134.831C802.037 134.362 803.418 133.863 804.714 133.332L803.957 131.481ZM799.952 132.93C798.594 133.382 797.119 133.808 795.525 134.206L796.01 136.147C797.647 135.737 799.172 135.298 800.584 134.827L799.952 132.93ZM795.516 134.208C793.981 134.606 792.328 134.977 790.558 135.32L790.938 137.283C792.744 136.934 794.438 136.554 796.018 136.144L795.516 134.208ZM790.551 135.321C788.837 135.664 787.035 135.978 785.145 136.265L785.445 138.242C787.363 137.952 789.196 137.632 790.944 137.282L790.551 135.321ZM785.141 136.266C781.372 136.854 778.219 137.835 775.718 139.237L776.697 140.982C778.928 139.73 781.833 138.807 785.45 138.242L785.141 136.266ZM775.726 139.233C773.292 140.572 771.42 142.272 770.16 144.351L771.87 145.388C772.918 143.659 774.507 142.186 776.69 140.986L775.726 139.233ZM770.155 144.359C768.96 146.372 768.371 148.627 768.371 151.101H770.371C770.371 148.959 770.877 147.06 771.875 145.38L770.155 144.359ZM768.371 151.101C768.371 155.059 769.78 158.202 772.662 160.38L773.868 158.785C771.558 157.039 770.371 154.528 770.371 151.101H768.371ZM772.662 160.38C775.471 162.502 779.015 163.525 783.218 163.525V161.525C779.343 161.525 776.253 160.586 773.868 158.785L772.662 160.38ZM896.573 184.854L896.041 185.701L896.044 185.703L896.573 184.854ZM877.532 162.266L876.627 162.69L876.629 162.694L877.532 162.266ZM877.879 84.9792L876.984 84.532L876.982 84.5361L877.879 84.9792ZM897.265 62.9098L896.759 62.0474L896.756 62.049L897.265 62.9098ZM939.673 59.3613L939.251 60.2681L939.26 60.2721L939.673 59.3613ZM952.136 68.4488L951.385 69.1089L951.39 69.1146L952.136 68.4488ZM959.752 80.825L958.819 81.184L959.065 81.825H959.752V80.825ZM960.444 80.825V81.825H961.444V80.825H960.444ZM960.444 13.3184V12.3184H959.444V13.3184H960.444ZM1008.22 13.3184H1009.22V12.3184H1008.22V13.3184ZM1008.22 190.566V191.566H1009.22V190.566H1008.22ZM960.791 190.566H959.791V191.566H960.791V190.566ZM960.791 168.757H961.791V167.757H960.791V168.757ZM959.752 168.757V167.757H959.081L958.827 168.377L959.752 168.757ZM951.79 180.873L951.071 180.178L951.071 180.178L951.79 180.873ZM939.327 189.268L939.711 190.191L939.717 190.189L939.327 189.268ZM951.617 151.793L952.248 152.569L952.25 152.567L951.617 151.793ZM958.886 140.889L957.947 140.545L957.945 140.551L958.886 140.889ZM958.886 107.222L957.944 107.555L957.946 107.562L957.949 107.569L958.886 107.222ZM951.617 96.4034L950.985 97.1786L950.993 97.185L951.001 97.1912L951.617 96.4034ZM929.114 96.4034L929.744 97.18L929.746 97.1786L929.114 96.4034ZM922.018 107.222L921.075 106.888L921.072 106.895L922.018 107.222ZM922.018 141.062L921.071 141.385L921.074 141.392L921.076 141.399L922.018 141.062ZM929.114 151.88L928.476 152.649L928.483 152.656L928.491 152.662L929.114 151.88ZM922.71 191.297C913.433 191.297 904.904 188.868 897.102 184.006L896.044 185.703C904.166 190.765 913.062 193.297 922.71 193.297V191.297ZM897.104 184.007C889.39 179.165 883.16 171.796 878.436 161.837L876.629 162.694C881.483 172.929 887.946 180.62 896.041 185.701L897.104 184.007ZM878.438 161.841C873.788 151.917 871.436 139.351 871.436 124.098H869.436C869.436 139.541 871.815 152.42 876.627 162.69L878.438 161.841ZM871.436 124.098C871.436 108.15 873.904 95.2776 878.775 85.4223L876.982 84.5361C871.929 94.7598 869.436 107.967 869.436 124.098H871.436ZM878.773 85.4264C883.726 75.5206 890.069 68.3264 897.774 63.7706L896.756 62.049C888.652 66.8402 882.071 74.359 876.984 84.532L878.773 85.4264ZM897.771 63.7722C905.589 59.1838 913.781 56.8995 922.364 56.8995V54.8995C913.406 54.8995 904.866 57.2887 896.759 62.0474L897.771 63.7722ZM922.364 56.8995C928.825 56.8995 934.445 58.0327 939.251 60.2681L940.095 58.4546C934.977 56.0741 929.058 54.8995 922.364 54.8995V56.8995ZM939.26 60.2721C944.103 62.4681 948.139 65.4152 951.385 69.1089L952.887 67.7887C949.44 63.8662 945.168 60.755 940.086 58.4506L939.26 60.2721ZM951.39 69.1146C954.659 72.7787 957.133 76.801 958.819 81.184L960.685 80.466C958.909 75.8481 956.305 71.6196 952.882 67.783L951.39 69.1146ZM959.752 81.825H960.444V79.825H959.752V81.825ZM961.444 80.825V13.3184H959.444V80.825H961.444ZM960.444 14.3184H1008.22V12.3184H960.444V14.3184ZM1007.22 13.3184V190.566H1009.22V13.3184H1007.22ZM1008.22 189.566H960.791V191.566H1008.22V189.566ZM961.791 190.566V168.757H959.791V190.566H961.791ZM960.791 167.757H959.752V169.757H960.791V167.757ZM958.827 168.377C957.03 172.757 954.447 176.69 951.071 180.178L952.508 181.569C956.056 177.902 958.781 173.757 960.677 169.136L958.827 168.377ZM951.071 180.178C947.768 183.593 943.729 186.318 938.937 188.347L939.717 190.189C944.734 188.064 949.003 185.193 952.508 181.568L951.071 180.178ZM938.942 188.345C934.238 190.305 928.833 191.297 922.71 191.297V193.297C929.049 193.297 934.722 192.27 939.711 190.191L938.942 188.345ZM940.365 156.601C944.958 156.601 948.938 155.266 952.248 152.569L950.985 151.018C948.064 153.398 944.543 154.601 940.365 154.601V156.601ZM952.25 152.567C955.591 149.834 958.106 146.034 959.828 141.226L957.945 140.551C956.32 145.09 953.989 148.56 950.983 151.019L952.25 152.567ZM959.826 141.232C961.606 136.365 962.483 130.646 962.483 124.098H960.483C960.483 130.475 959.628 135.95 957.947 140.545L959.826 141.232ZM962.483 124.098C962.483 117.438 961.607 111.688 959.824 106.874L957.949 107.569C959.628 112.102 960.483 117.604 960.483 124.098H962.483ZM959.829 106.888C958.108 102.022 955.589 98.2397 952.232 95.6156L951.001 97.1912C953.991 99.5292 956.318 102.959 957.944 107.555L959.829 106.888ZM952.248 95.6282C948.938 92.9305 944.958 91.5954 940.365 91.5954V93.5954C944.543 93.5954 948.064 94.7989 950.985 97.1786L952.248 95.6282ZM940.365 91.5954C935.773 91.5954 931.793 92.9305 928.483 95.6282L929.746 97.1786C932.667 94.7989 936.188 93.5954 940.365 93.5954V91.5954ZM928.484 95.6268C925.249 98.2518 922.793 102.03 921.075 106.888L922.96 107.555C924.589 102.951 926.864 99.517 929.744 97.18L928.484 95.6268ZM921.072 106.895C919.411 111.702 918.594 117.444 918.594 124.098H920.594C920.594 117.598 921.393 112.089 922.963 107.548L921.072 106.895ZM918.594 124.098C918.594 130.753 919.411 136.523 921.071 141.385L922.964 140.738C921.393 136.138 920.594 130.599 920.594 124.098H918.594ZM921.076 141.399C922.795 146.199 925.249 149.971 928.476 152.649L929.753 151.111C926.863 148.712 924.587 145.271 922.959 140.725L921.076 141.399ZM928.491 152.662C931.802 155.299 935.778 156.601 940.365 156.601V154.601C936.182 154.601 932.658 153.423 929.737 151.098L928.491 152.662ZM1058.67 184.854L1058.2 185.735L1058.21 185.739L1058.67 184.854ZM1035.05 161.314L1034.17 161.784L1034.17 161.79L1035.05 161.314ZM1035.13 88.4411L1036.01 88.9158L1035.13 88.4411ZM1058.59 64.4676L1059.08 65.338L1058.59 64.4676ZM1121.59 60.573L1121.95 59.6392L1121.59 60.573ZM1142.45 74.1609L1141.73 74.8575L1141.74 74.8609L1142.45 74.1609ZM1155.78 95.6245L1154.84 95.9714L1155.78 95.6245ZM1160.45 135.176V136.176H1161.45V135.176H1160.45ZM1041.71 135.176H1040.71V136.176H1041.71V135.176ZM1041.71 108.866V107.866H1040.71V108.866H1041.71ZM1116.49 108.866V109.866H1117.5L1117.49 108.851L1116.49 108.866ZM1113.55 98.8267L1112.7 99.3582L1112.7 99.368L1112.71 99.3776L1113.55 98.8267ZM1106.02 91.9895L1105.54 92.8705L1105.55 92.8757L1105.56 92.8807L1106.02 91.9895ZM1084.73 91.9895L1085.17 92.884L1085.18 92.8808L1085.19 92.8775L1084.73 91.9895ZM1076.94 98.7402L1076.11 98.1778L1076.1 98.1893L1076.94 98.7402ZM1073.91 108.866L1072.91 108.836L1072.91 108.851V108.866H1073.91ZM1076.59 148.678L1075.71 149.149L1076.59 148.678ZM1084.29 156.553L1083.8 157.423L1084.29 156.553ZM1105.41 158.025L1105.09 157.076L1105.09 157.078L1105.41 158.025ZM1112.51 154.044L1113.17 154.793L1113.17 154.788L1113.18 154.783L1112.51 154.044ZM1116.83 147.639V146.639H1116.14L1115.9 147.29L1116.83 147.639ZM1160.45 147.639L1161.44 147.8L1161.63 146.639H1160.45V147.639ZM1149.81 171.699L1150.58 172.337L1150.58 172.334L1149.81 171.699ZM1127.57 187.451L1127.94 188.378L1127.94 188.377L1127.57 187.451ZM1095.37 191.99C1081.3 191.99 1069.24 189.303 1059.14 183.97L1058.21 185.739C1068.65 191.253 1081.05 193.99 1095.37 193.99V191.99ZM1059.15 183.973C1049.11 178.584 1041.37 170.878 1035.93 160.837L1034.17 161.79C1039.8 172.174 1047.82 180.162 1058.2 185.735L1059.15 183.973ZM1035.93 160.843C1030.54 150.747 1027.83 138.627 1027.83 124.445H1025.83C1025.83 138.881 1028.59 151.34 1034.17 161.784L1035.93 160.843ZM1027.83 124.445C1027.83 110.849 1030.57 99.0164 1036.01 88.9158L1034.25 87.9664C1028.62 98.4063 1025.83 110.576 1025.83 124.445H1027.83ZM1036.01 88.9158C1041.46 78.8103 1049.15 70.9568 1059.08 65.338L1058.1 63.5972C1047.83 69.4026 1039.88 77.5314 1034.25 87.9664L1036.01 88.9158ZM1059.08 65.338C1069 59.7253 1080.74 56.8995 1094.33 56.8995V54.8995C1080.46 54.8995 1068.37 57.7858 1058.1 63.5972L1059.08 65.338ZM1094.33 56.8995C1104.27 56.8995 1113.23 58.441 1121.24 61.5069L1121.95 59.6392C1113.69 56.4736 1104.48 54.8995 1094.33 54.8995V56.8995ZM1121.24 61.5069C1129.24 64.5733 1136.07 69.0243 1141.73 74.8575L1143.17 73.4643C1137.29 67.4117 1130.22 62.8041 1121.95 59.6392L1121.24 61.5069ZM1141.74 74.8609C1147.4 80.6367 1151.77 87.6677 1154.84 95.9714L1156.72 95.2776C1153.56 86.7335 1149.04 79.4554 1143.17 73.4608L1141.74 74.8609ZM1154.84 95.9714C1157.91 104.267 1159.45 113.638 1159.45 124.098H1161.45C1161.45 113.442 1159.88 103.83 1156.72 95.2776L1154.84 95.9714ZM1159.45 124.098V135.176H1161.45V124.098H1159.45ZM1160.45 134.176H1041.71V136.176H1160.45V134.176ZM1042.71 135.176V108.866H1040.71V135.176H1042.71ZM1041.71 109.866H1116.49V107.866H1041.71V109.866ZM1117.49 108.851C1117.43 104.872 1116.4 101.336 1114.38 98.2759L1112.71 99.3776C1114.5 102.087 1115.43 105.244 1115.49 108.881L1117.49 108.851ZM1114.39 98.2952C1112.45 95.1954 1109.8 92.7938 1106.47 91.0984L1105.56 92.8807C1108.58 94.4163 1110.95 96.5729 1112.7 99.3582L1114.39 98.2952ZM1106.49 91.1085C1103.21 89.3478 1099.5 88.4797 1095.37 88.4797V90.4797C1099.21 90.4797 1102.59 91.2848 1105.54 92.8705L1106.49 91.1085ZM1095.37 88.4797C1091.36 88.4797 1087.65 89.3501 1084.27 91.1015L1085.19 92.8775C1088.27 91.2825 1091.65 90.4797 1095.37 90.4797V88.4797ZM1084.28 91.0951C1080.9 92.7843 1078.17 95.1465 1076.11 98.1779L1077.76 99.3025C1079.63 96.5641 1082.09 94.4259 1085.17 92.884L1084.28 91.0951ZM1076.1 98.1893C1074.08 101.247 1073.03 104.808 1072.91 108.836L1074.91 108.896C1075.02 105.193 1075.98 102.003 1077.77 99.291L1076.1 98.1893ZM1072.91 108.866V137.254H1074.91V108.866H1072.91ZM1072.91 137.254C1072.91 141.667 1073.83 145.64 1075.71 149.149L1077.47 148.206C1075.77 145.022 1074.91 141.38 1074.91 137.254H1072.91ZM1075.71 149.149C1077.59 152.665 1080.29 155.427 1083.8 157.423L1084.79 155.684C1081.6 153.872 1079.17 151.384 1077.47 148.206L1075.71 149.149ZM1083.8 157.423C1087.33 159.43 1091.54 160.41 1096.41 160.41V158.41C1091.81 158.41 1087.95 157.485 1084.79 155.684L1083.8 157.423ZM1096.41 160.41C1099.79 160.41 1102.9 159.935 1105.73 158.971L1105.09 157.078C1102.49 157.961 1099.6 158.41 1096.41 158.41V160.41ZM1105.73 158.973C1108.61 158.013 1111.1 156.623 1113.17 154.793L1111.85 153.294C1110 154.926 1107.75 156.19 1105.09 157.076L1105.73 158.973ZM1113.18 154.783C1115.26 152.887 1116.79 150.619 1117.77 147.988L1115.9 147.29C1115.03 149.622 1113.68 151.623 1111.83 153.305L1113.18 154.783ZM1116.83 148.639H1160.45V146.639H1116.83V148.639ZM1159.47 147.479C1157.99 156.547 1154.51 164.401 1149.04 171.064L1150.58 172.334C1156.3 165.381 1159.91 157.195 1161.44 147.8L1159.47 147.479ZM1149.04 171.061C1143.56 177.668 1136.29 182.827 1127.19 186.524L1127.94 188.377C1137.31 184.573 1144.86 179.232 1150.58 172.337L1149.04 171.061ZM1127.19 186.523C1118.16 190.158 1107.56 191.99 1095.37 191.99V193.99C1107.76 193.99 1118.62 192.129 1127.94 188.378L1127.19 186.523ZM1179.95 190.566H1178.95V191.566H1179.95V190.566ZM1179.95 57.6304V56.6304H1178.95V57.6304H1179.95ZM1226.34 57.6304H1227.34V56.6304H1226.34V57.6304ZM1226.34 82.9021H1225.34V83.9021H1226.34V82.9021ZM1227.72 82.9021V83.9021H1228.5L1228.69 83.1531L1227.72 82.9021ZM1239.23 62.3905L1238.6 61.6154L1238.6 61.6188L1239.23 62.3905ZM1263.99 56.4188L1263.82 57.4044L1263.83 57.4071L1263.85 57.4093L1263.99 56.4188ZM1269.96 57.717H1270.96V56.9751L1270.25 56.7599L1269.96 57.717ZM1269.96 98.4805L1269.63 99.4269L1270.96 99.8787V98.4805H1269.96ZM1261.22 96.6631L1261.33 95.6698L1261.22 96.6631ZM1239.67 99.2595L1240.16 100.131L1240.16 100.129L1239.67 99.2595ZM1230.92 108.087L1231.79 108.582L1231.8 108.576L1230.92 108.087ZM1227.72 190.566V191.566H1228.72V190.566H1227.72ZM1180.95 190.566V57.6304H1178.95V190.566H1180.95ZM1179.95 58.6304H1226.34V56.6304H1179.95V58.6304ZM1225.34 57.6304V82.9021H1227.34V57.6304H1225.34ZM1226.34 83.9021H1227.72V81.9021H1226.34V83.9021ZM1228.69 83.1531C1231.08 73.9274 1234.84 67.3096 1239.87 63.1622L1238.6 61.6188C1233.13 66.1261 1229.21 73.1826 1226.75 82.6511L1228.69 83.1531ZM1239.87 63.1656C1244.99 58.9893 1250.97 56.8995 1257.84 56.8995V54.8995C1250.52 54.8995 1244.1 57.137 1238.6 61.6154L1239.87 63.1656ZM1257.84 56.8995C1259.86 56.8995 1261.85 57.0679 1263.82 57.4044L1264.15 55.4332C1262.08 55.0773 1259.97 54.8995 1257.84 54.8995V56.8995ZM1263.85 57.4093C1265.88 57.691 1267.82 58.1129 1269.67 58.674L1270.25 56.7599C1268.29 56.1671 1266.25 55.7235 1264.12 55.4283L1263.85 57.4093ZM1268.96 57.717V98.4805H1270.96V57.717H1268.96ZM1270.28 97.5342C1267.83 96.6965 1264.84 96.0789 1261.33 95.6698L1261.1 97.6563C1264.52 98.0549 1267.36 98.6491 1269.63 99.4269L1270.28 97.5342ZM1261.33 95.6698C1257.85 95.2631 1254.83 95.0572 1252.3 95.0572V97.0572C1254.73 97.0572 1257.66 97.2553 1261.1 97.6563L1261.33 95.6698ZM1252.3 95.0572C1247.47 95.0572 1243.08 96.1627 1239.17 98.3904L1240.16 100.129C1243.75 98.0866 1247.79 97.0572 1252.3 97.0572V95.0572ZM1239.18 98.3879C1235.32 100.558 1232.27 103.635 1230.05 107.598L1231.8 108.576C1233.85 104.923 1236.63 102.115 1240.16 100.131L1239.18 98.3879ZM1230.06 107.593C1227.82 111.518 1226.72 116.109 1226.72 121.329H1228.72C1228.72 116.394 1229.76 112.157 1231.79 108.582L1230.06 107.593ZM1226.72 121.329V190.566H1228.72V121.329H1226.72ZM1227.72 189.566H1179.95V191.566H1227.72V189.566ZM1407.13 100.904V101.904H1408.18L1408.13 100.863L1407.13 100.904ZM1363.17 100.904L1362.17 100.989L1362.25 101.904H1363.17V100.904ZM1360.31 93.8936L1361.07 93.2446L1360.31 93.8936ZM1353.82 89.3931L1353.43 90.3144L1353.44 90.3195L1353.46 90.3244L1353.82 89.3931ZM1334.61 89.9989L1334.15 89.108L1334.61 89.9989ZM1330.28 96.4034L1331.28 96.4328L1331.28 96.4077L1331.28 96.3826L1330.28 96.4034ZM1332.79 101.856L1332.1 102.575L1332.1 102.581L1332.11 102.586L1332.79 101.856ZM1343.09 105.75L1342.91 106.734L1342.91 106.735L1343.09 105.75ZM1370.09 110.597L1370.27 109.613L1370.27 109.613L1370.09 110.597ZM1400.47 123.146L1399.81 123.895L1399.81 123.901L1400.47 123.146ZM1410.6 146.601L1411.6 146.607L1411.6 146.595L1410.6 146.601ZM1402.11 171.266L1401.33 170.641L1401.33 170.642L1402.11 171.266ZM1379.35 187.364L1379.72 188.295L1379.72 188.294L1379.35 187.364ZM1298.86 180.527L1298.28 181.336L1298.28 181.337L1298.86 180.527ZM1279.74 147.639V146.639H1278.64L1278.74 147.736L1279.74 147.639ZM1327.17 147.639L1328.15 147.49L1328.03 146.639H1327.17V147.639ZM1333.4 157.419L1332.85 158.255L1332.86 158.26L1332.86 158.265L1333.4 157.419ZM1357.72 158.544L1357.25 157.657L1357.25 157.661L1357.72 158.544ZM1362.13 152.14L1363.13 152.16L1363.13 152.139L1363.13 152.117L1362.13 152.14ZM1358.32 146.081L1357.8 146.932L1357.8 146.937L1358.32 146.081ZM1346.9 142.446L1347.07 141.462L1347.07 141.462L1346.9 142.446ZM1323.36 138.292L1323.53 137.307L1323.53 137.307L1323.36 138.292ZM1292.89 124.791L1293.59 124.078L1292.89 124.791ZM1282.85 99.1729L1283.85 99.1784L1283.85 99.1667L1282.85 99.1729ZM1290.12 75.7187L1289.33 75.1097L1289.33 75.1107L1290.12 75.7187ZM1311.33 61.0058L1311.67 61.9452L1311.67 61.944L1311.33 61.0058ZM1389.57 67.843L1388.98 68.655L1388.98 68.6564L1389.57 67.843ZM1407.13 99.9039H1363.17V101.904H1407.13V99.9039ZM1364.16 100.819C1363.92 97.9115 1362.89 95.3743 1361.07 93.2446L1359.55 94.5425C1361.08 96.3363 1361.96 98.4726 1362.17 100.989L1364.16 100.819ZM1361.07 93.2446C1359.28 91.1448 1356.98 89.554 1354.19 88.4619L1353.46 90.3244C1355.97 91.3094 1358 92.7189 1359.55 94.5425L1361.07 93.2446ZM1354.21 88.4719C1351.48 87.3175 1348.46 86.7487 1345.17 86.7487V88.7487C1348.22 88.7487 1350.97 89.2762 1353.43 90.3144L1354.21 88.4719ZM1345.17 86.7487C1340.95 86.7487 1337.27 87.521 1334.15 89.108L1335.06 90.8898C1337.83 89.4766 1341.19 88.7487 1345.17 88.7487V86.7487ZM1334.15 89.108C1332.57 89.9138 1331.33 90.9235 1330.49 92.1653C1329.64 93.417 1329.25 94.8493 1329.28 96.4242L1331.28 96.3826C1331.26 95.1881 1331.55 94.1681 1332.15 93.285C1332.75 92.392 1333.7 91.5842 1335.06 90.8898L1334.15 89.108ZM1329.28 96.374C1329.21 98.679 1330.21 100.754 1332.1 102.575L1333.49 101.137C1331.91 99.6113 1331.23 98.0512 1331.28 96.4328L1329.28 96.374ZM1332.11 102.586C1334.12 104.472 1337.81 105.807 1342.91 106.734L1343.27 104.767C1338.21 103.847 1335.04 102.586 1333.47 101.126L1332.11 102.586ZM1342.91 106.735L1369.92 111.581L1370.27 109.613L1343.27 104.766L1342.91 106.735ZM1369.91 111.581C1383.44 114.046 1393.36 118.181 1399.81 123.895L1401.13 122.398C1394.31 116.342 1383.98 112.11 1370.27 109.613L1369.91 111.581ZM1399.81 123.901C1406.27 129.518 1409.54 137.051 1409.6 146.606L1411.6 146.595C1411.54 136.533 1408.06 128.429 1401.13 122.392L1399.81 123.901ZM1409.6 146.594C1409.54 155.846 1406.78 163.846 1401.33 170.641L1402.89 171.892C1408.64 164.724 1411.54 156.281 1411.6 146.607L1409.6 146.594ZM1401.33 170.642C1395.92 177.408 1388.49 182.679 1378.99 186.434L1379.72 188.294C1389.49 184.433 1397.23 178.972 1402.9 171.891L1401.33 170.642ZM1378.99 186.433C1369.55 190.13 1358.74 191.99 1346.55 191.99V193.99C1358.94 193.99 1370 192.099 1379.72 188.295L1378.99 186.433ZM1346.55 191.99C1326.36 191.99 1310.7 187.859 1299.45 179.717L1298.28 181.337C1309.99 189.812 1326.12 193.99 1346.55 193.99V191.99ZM1299.45 179.718C1288.25 171.572 1282.03 160.864 1280.73 147.542L1278.74 147.736C1280.1 161.648 1286.63 172.865 1298.28 181.336L1299.45 179.718ZM1279.74 148.639H1327.17V146.639H1279.74V148.639ZM1326.18 147.788C1326.85 152.278 1329.09 155.789 1332.85 158.255L1333.94 156.583C1330.67 154.433 1328.75 151.425 1328.15 147.49L1326.18 147.788ZM1332.86 158.265C1336.64 160.641 1341.34 161.794 1346.9 161.794V159.794C1341.61 159.794 1337.31 158.698 1333.93 156.572L1332.86 158.265ZM1346.9 161.794C1351.39 161.794 1355.17 161.027 1358.18 159.427L1357.25 157.661C1354.61 159.061 1351.18 159.794 1346.9 159.794V161.794ZM1358.18 159.431C1361.32 157.798 1363.06 155.366 1363.13 152.16L1361.13 152.119C1361.08 154.452 1359.88 156.29 1357.25 157.657L1358.18 159.431ZM1363.13 152.117C1363.06 149.183 1361.56 146.873 1358.84 145.226L1357.8 146.937C1360.04 148.29 1361.08 150.019 1361.13 152.162L1363.13 152.117ZM1358.85 145.231C1356.26 143.63 1352.3 142.392 1347.07 141.462L1346.72 143.431C1351.88 144.348 1355.54 145.533 1357.8 146.932L1358.85 145.231ZM1347.07 141.462L1323.53 137.307L1323.18 139.277L1346.72 143.431L1347.07 141.462ZM1323.53 137.307C1310.08 134.961 1300.15 130.52 1293.59 124.078L1292.19 125.504C1299.14 132.333 1309.51 136.892 1323.19 139.277L1323.53 137.307ZM1293.59 124.078C1287.06 117.652 1283.8 109.382 1283.85 99.1784L1281.85 99.1674C1281.79 109.85 1285.23 118.659 1292.19 125.504L1293.59 124.078ZM1283.85 99.1667C1283.8 90.1233 1286.17 82.53 1290.92 76.3267L1289.33 75.1107C1284.27 81.7163 1281.79 89.7592 1281.85 99.1792L1283.85 99.1667ZM1290.92 76.3277C1295.74 70.0439 1302.64 65.2396 1311.67 61.9452L1310.98 60.0663C1301.67 63.4648 1294.43 68.4692 1289.33 75.1097L1290.92 76.3277ZM1311.67 61.944C1320.77 58.5904 1331.58 56.8995 1344.13 56.8995V54.8995C1331.41 54.8995 1320.35 56.6127 1310.98 60.0675L1311.67 61.944ZM1344.13 56.8995C1363.22 56.8995 1378.13 60.8557 1388.98 68.655L1390.15 67.0309C1378.84 58.9056 1363.47 54.8995 1344.13 54.8995V56.8995ZM1388.98 68.6564C1399.86 76.4333 1405.57 87.1641 1406.14 100.945L1408.13 100.863C1407.54 86.487 1401.54 75.1772 1390.15 67.0295L1388.98 68.6564ZM1476.67 115.79L1475.67 115.777V115.79H1476.67ZM1476.67 190.566V191.566H1477.67V190.566H1476.67ZM1428.9 190.566H1427.9V191.566H1428.9V190.566ZM1428.9 13.3184V12.3184H1427.9V13.3184H1428.9ZM1474.94 13.3184H1475.94V12.3184H1474.94V13.3184ZM1474.94 82.9021H1473.94V83.9021H1474.94V82.9021ZM1476.33 82.9021V83.9021H1477.04L1477.27 83.2356L1476.33 82.9021ZM1491.3 63.0829L1491.86 63.9107L1491.87 63.9075L1491.3 63.0829ZM1540.98 62.3039L1540.45 63.1551L1540.46 63.1571L1540.98 62.3039ZM1557.16 79.9595L1556.27 80.4122L1556.27 80.4176L1557.16 79.9595ZM1562.88 105.75L1561.88 105.745V105.75H1562.88ZM1562.88 190.566V191.566H1563.88V190.566H1562.88ZM1515.1 190.566H1514.1V191.566H1515.1V190.566ZM1515.1 115.79L1514.1 115.781V115.79H1515.1ZM1510.17 100.298L1509.42 100.957L1509.42 100.964L1510.17 100.298ZM1485.85 97.2689L1486.35 98.1339L1486.36 98.1308L1485.85 97.2689ZM1479.1 104.539L1478.21 104.085L1478.2 104.092L1479.1 104.539ZM1475.67 115.79V190.566H1477.67V115.79H1475.67ZM1476.67 189.566H1428.9V191.566H1476.67V189.566ZM1429.9 190.566V13.3184H1427.9V190.566H1429.9ZM1428.9 14.3184H1474.94V12.3184H1428.9V14.3184ZM1473.94 13.3184V82.9021H1475.94V13.3184H1473.94ZM1474.94 83.9021H1476.33V81.9021H1474.94V83.9021ZM1477.27 83.2356C1480.21 74.941 1485.07 68.5139 1491.86 63.9107L1490.74 62.2551C1483.57 67.1143 1478.45 73.9 1475.39 82.5686L1477.27 83.2356ZM1491.87 63.9075C1498.66 59.2501 1506.85 56.8995 1516.49 56.8995V54.8995C1506.51 54.8995 1497.91 57.3378 1490.74 62.2582L1491.87 63.9075ZM1516.49 56.8995C1525.74 56.8995 1533.71 58.9972 1540.45 63.1551L1541.5 61.4528C1534.4 57.0714 1526.05 54.8995 1516.49 54.8995V56.8995ZM1540.46 63.1571C1547.28 67.3273 1552.54 73.0718 1556.27 80.4122L1558.05 79.5068C1554.17 71.8458 1548.64 65.8199 1541.5 61.4508L1540.46 63.1571ZM1556.27 80.4176C1560.06 87.7549 1561.93 96.1885 1561.88 105.745L1563.88 105.756C1563.93 95.9259 1562 87.1656 1558.05 79.5014L1556.27 80.4176ZM1561.88 105.75V190.566H1563.88V105.75H1561.88ZM1562.88 189.566H1515.1V191.566H1562.88V189.566ZM1516.1 190.566V115.79H1514.1V190.566H1516.1ZM1516.1 115.799C1516.16 109.051 1514.47 103.619 1510.91 99.6322L1509.42 100.964C1512.56 104.477 1514.16 109.374 1514.1 115.781L1516.1 115.799ZM1510.92 99.6387C1507.4 95.6238 1502.39 93.6725 1496.06 93.6725V95.6725C1501.96 95.6725 1506.36 97.4715 1509.42 100.957L1510.92 99.6387ZM1496.06 93.6725C1492.04 93.6725 1488.46 94.5741 1485.34 96.407L1486.36 98.1308C1489.13 96.5018 1492.35 95.6725 1496.06 95.6725V93.6725ZM1485.35 96.4039C1482.28 98.1805 1479.9 100.752 1478.21 104.085L1479.99 104.993C1481.52 101.979 1483.64 99.7038 1486.35 98.1339L1485.35 96.4039ZM1478.2 104.092C1476.56 107.372 1475.73 111.279 1475.67 115.777L1477.67 115.803C1477.73 111.531 1478.52 107.937 1479.99 104.986L1478.2 104.092ZM1586.46 190.566H1585.46V191.566H1586.46V190.566ZM1586.46 57.6304V56.6304H1585.46V57.6304H1586.46ZM1634.23 57.6304H1635.23V56.6304H1634.23V57.6304ZM1634.23 190.566V191.566H1635.23V190.566H1634.23ZM1593.73 37.3785L1593.05 38.1125V38.1126L1593.73 37.3785ZM1593.73 6.56776L1593.05 5.83366L1593.73 6.56776ZM1626.96 6.56776L1626.28 7.2976L1626.28 7.30186L1626.96 6.56776ZM1626.96 37.3785L1626.28 36.6443L1626.28 36.6486L1626.96 37.3785ZM1587.46 190.566V57.6304H1585.46V190.566H1587.46ZM1586.46 58.6304H1634.23V56.6304H1586.46V58.6304ZM1633.23 57.6304V190.566H1635.23V57.6304H1633.23ZM1634.23 189.566H1586.46V191.566H1634.23V189.566ZM1610.35 42.7829C1604.13 42.7829 1598.83 40.7379 1594.41 36.6444L1593.05 38.1126C1597.86 42.5583 1603.64 44.7829 1610.35 44.7829V42.7829ZM1594.41 36.6444C1589.99 32.5538 1587.81 27.6803 1587.81 21.9731H1585.81C1585.81 28.2671 1588.24 33.6638 1593.05 38.1125L1594.41 36.6444ZM1587.81 21.9731C1587.81 16.266 1589.99 11.3924 1594.41 7.30186L1593.05 5.83366C1588.24 10.2824 1585.81 15.6791 1585.81 21.9731H1587.81ZM1594.41 7.30186C1598.83 3.20834 1604.13 1.1633 1610.35 1.1633V-0.8367C1603.64 -0.8367 1597.86 1.3879 1593.05 5.83366L1594.41 7.30186ZM1610.35 1.1633C1616.62 1.1633 1621.92 3.20977 1626.28 7.29758L1627.65 5.83794C1622.89 1.38647 1617.11 -0.8367 1610.35 -0.8367V1.1633ZM1626.28 7.30186C1630.71 11.3924 1632.89 16.266 1632.89 21.9731H1634.89C1634.89 15.6791 1632.45 10.2824 1627.64 5.83366L1626.28 7.30186ZM1632.89 21.9731C1632.89 27.6803 1630.71 32.5538 1626.28 36.6444L1627.64 38.1125C1632.45 33.6638 1634.89 28.2671 1634.89 21.9731H1632.89ZM1626.28 36.6486C1621.92 40.7365 1616.62 42.7829 1610.35 42.7829V44.7829C1617.11 44.7829 1622.89 42.5597 1627.65 38.1083L1626.28 36.6486ZM1658.57 240.417H1657.57V241.417H1658.57V240.417ZM1658.57 57.6304V56.6304H1657.57V57.6304H1658.57ZM1706 57.6304H1707V56.6304H1706V57.6304ZM1706 80.825H1705V81.825H1706V80.825ZM1707.04 80.825V81.825H1707.73L1707.97 81.184L1707.04 80.825ZM1714.66 68.4488L1715.4 69.1146L1715.41 69.1089L1714.66 68.4488ZM1727.12 59.3613L1727.53 60.2721L1727.54 60.2681L1727.12 59.3613ZM1769.44 62.9098L1768.93 63.7706L1768.93 63.7722L1769.44 62.9098ZM1788.83 84.9792L1787.93 85.4223L1787.93 85.4264L1788.83 84.9792ZM1789.17 162.266L1788.27 161.837L1788.27 161.841L1789.17 162.266ZM1770.13 184.854L1769.6 184.006L1769.6 184.007L1770.13 184.854ZM1727.38 189.268L1726.99 190.187L1726.99 190.19L1727 190.193L1727.38 189.268ZM1714.92 180.873L1714.19 181.563L1714.2 181.569L1714.2 181.574L1714.92 180.873ZM1707.04 168.757L1707.97 168.377L1707.71 167.757H1707.04V168.757ZM1706.35 168.757V167.757H1705.35V168.757H1706.35ZM1706.35 240.417V241.417H1707.35V240.417H1706.35ZM1707.82 140.889L1706.88 141.222L1706.88 141.229L1706.88 141.236L1707.82 140.889ZM1715.09 151.793L1714.45 152.562L1714.46 152.568L1714.46 152.574L1715.09 151.793ZM1737.59 151.88L1738.22 152.657L1738.22 152.655L1737.59 151.88ZM1744.69 141.062L1743.75 140.728L1743.74 140.735L1744.69 141.062ZM1744.69 107.222L1743.74 107.545L1743.74 107.552L1743.75 107.559L1744.69 107.222ZM1737.59 96.4034L1736.95 97.1728L1736.96 97.1793L1736.97 97.1857L1737.59 96.4034ZM1715.09 96.4034L1715.71 97.1857L1715.71 97.1843L1715.09 96.4034ZM1707.82 107.222L1706.88 106.878L1706.88 106.885L1707.82 107.222ZM1659.57 240.417V57.6304H1657.57V240.417H1659.57ZM1658.57 58.6304H1706V56.6304H1658.57V58.6304ZM1705 57.6304V80.825H1707V57.6304H1705ZM1706 81.825H1707.04V79.825H1706V81.825ZM1707.97 81.184C1709.66 76.801 1712.13 72.7787 1715.4 69.1146L1713.91 67.783C1710.49 71.6196 1707.88 75.8481 1706.11 80.466L1707.97 81.184ZM1715.41 69.1089C1718.65 65.4152 1722.69 62.4681 1727.53 60.2721L1726.71 58.4506C1721.63 60.755 1717.35 63.8662 1713.91 67.7887L1715.41 69.1089ZM1727.54 60.2681C1732.35 58.0327 1737.97 56.8995 1744.43 56.8995V54.8995C1737.73 54.8995 1731.82 56.0741 1726.7 58.4546L1727.54 60.2681ZM1744.43 56.8995C1753.01 56.8995 1761.17 59.1837 1768.93 63.7706L1769.95 62.049C1761.9 57.2888 1753.39 54.8995 1744.43 54.8995V56.8995ZM1768.93 63.7722C1776.7 68.3277 1783.04 75.5201 1787.93 85.4223L1789.72 84.5361C1784.69 74.3595 1778.11 66.8389 1769.95 62.0474L1768.93 63.7722ZM1787.93 85.4264C1792.86 95.2805 1795.36 108.152 1795.36 124.098H1797.36C1797.36 107.965 1794.83 94.7569 1789.72 84.532L1787.93 85.4264ZM1795.36 124.098C1795.36 139.35 1792.98 151.914 1788.27 161.837L1790.08 162.694C1794.95 152.423 1797.36 139.542 1797.36 124.098H1795.36ZM1788.27 161.841C1783.6 171.797 1777.37 179.164 1769.6 184.006L1770.66 185.703C1778.82 180.621 1785.28 172.928 1790.08 162.69L1788.27 161.841ZM1769.6 184.007C1761.86 188.868 1753.36 191.297 1744.08 191.297V193.297C1753.73 193.297 1762.6 190.765 1770.67 185.701L1769.6 184.007ZM1744.08 191.297C1737.96 191.297 1732.52 190.305 1727.76 188.344L1727 190.193C1732.04 192.27 1737.74 193.297 1744.08 193.297V191.297ZM1727.77 188.349C1723.04 186.32 1718.99 183.593 1715.63 180.172L1714.2 181.574C1717.76 185.193 1722.03 188.063 1726.99 190.187L1727.77 188.349ZM1715.64 180.184C1712.32 176.695 1709.76 172.761 1707.97 168.377L1706.12 169.136C1708.01 173.753 1710.7 177.897 1714.19 181.563L1715.64 180.184ZM1707.04 167.757H1706.35V169.757H1707.04V167.757ZM1705.35 168.757V240.417H1707.35V168.757H1705.35ZM1706.35 239.417H1658.57V241.417H1706.35V239.417ZM1704.31 124.098C1704.31 130.643 1705.16 136.358 1706.88 141.222L1708.76 140.555C1707.14 135.957 1706.31 130.478 1706.31 124.098H1704.31ZM1706.88 141.236C1708.66 146.036 1711.17 149.83 1714.45 152.562L1715.73 151.025C1712.78 148.564 1710.44 145.088 1708.76 140.541L1706.88 141.236ZM1714.46 152.574C1717.83 155.266 1721.83 156.601 1726.43 156.601V154.601C1722.25 154.601 1718.7 153.398 1715.71 151.013L1714.46 152.574ZM1726.43 156.601C1731.01 156.601 1734.97 155.299 1738.22 152.657L1736.96 151.103C1734.1 153.423 1730.61 154.601 1726.43 154.601V156.601ZM1738.22 152.655C1741.51 149.975 1743.97 146.197 1745.63 141.388L1743.74 140.735C1742.17 145.273 1739.9 148.708 1736.96 151.105L1738.22 152.655ZM1745.63 141.395C1747.35 136.529 1748.2 130.756 1748.2 124.098H1746.2C1746.2 130.596 1745.37 136.131 1743.75 140.728L1745.63 141.395ZM1748.2 124.098C1748.2 117.441 1747.35 111.695 1745.63 106.885L1743.75 107.559C1745.37 112.095 1746.2 117.601 1746.2 124.098H1748.2ZM1745.64 106.899C1743.97 102.033 1741.51 98.2482 1738.21 95.6211L1736.97 97.1857C1739.9 99.5207 1742.17 102.949 1743.74 107.545L1745.64 106.899ZM1738.23 95.634C1734.97 92.9306 1731.02 91.5954 1726.43 91.5954V93.5954C1730.6 93.5954 1734.09 94.7988 1736.95 97.1728L1738.23 95.634ZM1726.43 91.5954C1721.83 91.5954 1717.83 92.9304 1714.46 95.6225L1715.71 97.1843C1718.7 94.799 1722.25 93.5954 1726.43 93.5954V91.5954ZM1714.47 95.6211C1711.17 98.2432 1708.66 102.02 1706.88 106.878L1708.76 107.565C1710.44 102.961 1712.77 99.5256 1715.71 97.1857L1714.47 95.6211ZM1706.88 106.885C1705.16 111.695 1704.31 117.441 1704.31 124.098H1706.31C1706.31 117.601 1707.14 112.095 1708.76 107.559L1706.88 106.885Z" fill="#00BFFB" mask="url(#path-1-outside-1_2007_788)"/>
</svg>
