<svg width="48" height="48" viewBox="0 0 48 48" fill="none" xmlns="http://www.w3.org/2000/svg">
<path d="M24.1036 0.960938H23.9973C11.1342 0.960938 0.706665 11.3916 0.706665 24.2584V24.3647C0.706665 37.2316 11.1342 47.6622 23.9973 47.6622H24.1036C36.9666 47.6622 47.3942 37.2316 47.3942 24.3647V24.2584C47.3942 11.3916 36.9666 0.960938 24.1036 0.960938Z" fill="#037DB1" fill-opacity="0.73"/>
<path d="M11.8413 16.4832C11.2263 15.9122 10.9205 15.2054 10.9205 14.3644C10.9205 13.5234 11.228 12.7855 11.8413 12.2128C12.4564 11.6418 13.248 11.3555 14.218 11.3555C15.188 11.3555 15.9486 11.6418 16.562 12.2128C17.177 12.7838 17.4828 13.5021 17.4828 14.3644C17.4828 15.2267 17.1753 15.9122 16.562 16.4832C15.9469 17.0542 15.1667 17.3406 14.218 17.3406C13.2693 17.3406 12.4564 17.0542 11.8413 16.4832ZM16.966 19.7588V37.2659H11.4357V19.7588H16.966Z" fill="#292929" fill-opacity="0.38"/>
<path d="M35.3755 21.4888C36.581 22.7977 37.1829 24.5943 37.1829 26.8816V36.9572H31.9307V27.5917C31.9307 26.4382 31.6314 25.5416 31.0344 24.9035C30.4374 24.2654 29.6326 23.9447 28.625 23.9447C27.6174 23.9447 26.8126 24.2637 26.2156 24.9035C25.6186 25.5416 25.3193 26.4382 25.3193 27.5917V36.9572H20.036V19.7103H25.3193V21.9976C25.8541 21.2352 26.5755 20.6331 27.4817 20.1897C28.3878 19.7463 29.4069 19.5254 30.5404 19.5254C32.5588 19.5254 34.1716 20.1799 35.3755 21.4872V21.4888Z" fill="#292929" fill-opacity="0.38"/>
</svg>
