<svg width="47" height="48" viewBox="0 0 47 48" fill="none" xmlns="http://www.w3.org/2000/svg">
<path d="M46.7067 24.2453C46.7067 11.3857 36.285 0.960938 23.4292 0.960938C10.5734 0.960938 0.151672 11.3857 0.151672 24.2453C0.151672 37.1049 10.5734 47.5296 23.4292 47.5296C36.285 47.5296 46.7067 37.1049 46.7067 24.2453Z" fill="#037DB1" fill-opacity="0.73"/>
<path d="M38.0869 19.4218C37.9037 17.6531 37.5095 15.6979 36.0586 14.6704C34.9349 13.8736 33.4579 13.8441 32.079 13.8458C29.1642 13.8458 26.2477 13.8507 23.3329 13.8523C20.5294 13.8556 17.7258 13.8572 14.9222 13.8605C13.7511 13.8605 12.6126 13.7705 11.5249 14.2777C10.5909 14.7129 9.85976 15.5408 9.41976 16.462C8.80964 17.7431 8.68207 19.1944 8.60846 20.6113C8.4727 23.1916 8.48742 25.7784 8.64935 28.357C8.76876 30.2386 9.07136 32.3181 10.5255 33.5175C11.8144 34.5793 13.6333 34.6317 15.305 34.6333C20.6111 34.6382 25.919 34.6431 31.2268 34.6464C31.9072 34.648 32.6171 34.635 33.3106 34.5597C34.6748 34.4124 35.9752 34.0214 36.8519 33.0102C37.7368 31.9909 37.9642 30.5723 38.0983 29.229C38.4255 25.9698 38.4222 22.6795 38.0869 19.4218ZM20.2644 28.8151V19.6771L28.1746 24.2453L20.2644 28.8151Z" fill="#292929" fill-opacity="0.38"/>
</svg>
