<svg width="48" height="48" viewBox="0 0 48 48" fill="none" xmlns="http://www.w3.org/2000/svg">
<path d="M47.4593 24.3124C47.4593 36.1059 38.7198 45.8559 27.3665 47.438C26.3049 47.5853 25.2188 47.6622 24.1164 47.6622C22.8438 47.6622 21.5941 47.5607 20.3772 47.3644C9.26267 45.5744 0.773438 35.9341 0.773438 24.3124C0.773438 11.4161 11.2255 0.960938 24.118 0.960938C37.0105 0.960938 47.4626 11.4161 47.4626 24.3124H47.4593Z" fill="#037DB1" fill-opacity="0.73"/>
<path d="M27.3669 19.7122V24.799H33.6578L32.6616 31.6513H27.3669V47.4387C26.3053 47.586 25.2192 47.6629 24.1168 47.6629C22.8442 47.6629 21.5946 47.5615 20.3776 47.3651V31.6513H14.5758V24.799H20.3776V18.575C20.3776 14.7137 23.5067 11.582 27.3685 11.582V11.5853C27.38 11.5853 27.3898 11.582 27.4013 11.582H33.6594V17.5083H29.5702C28.3549 17.5083 27.3685 18.4949 27.3685 19.7105L27.3669 19.7122Z" fill="#292929" fill-opacity="0.38"/>
</svg>
