<svg width="48" height="48" viewBox="0 0 48 48" fill="none" xmlns="http://www.w3.org/2000/svg">
<path d="M47.1484 24.3124C47.1484 36.1059 38.4089 45.8559 27.0556 47.438C25.9941 47.5853 24.908 47.6622 23.8055 47.6622C22.5329 47.6622 21.2833 47.5607 20.0663 47.3644C8.95181 45.5744 0.462585 35.9341 0.462585 24.3124C0.462585 11.4161 10.9146 0.960938 23.8071 0.960938C36.6996 0.960938 47.1517 11.4161 47.1517 24.3124H47.1484Z" fill="#037DB1" fill-opacity="0.73"/>
<path d="M9.93029 11.2598L20.6964 25.6581L9.86322 37.3649H12.302L21.7874 27.1159L29.4506 37.3649H37.7485L26.3771 22.1567L36.4612 11.2598H34.0224L25.2878 20.6988L18.2298 11.2598H9.93191H9.93029ZM13.5157 13.0563H17.3269L34.1598 35.5684H30.3486L13.5157 13.0563Z" fill="#292929" fill-opacity="0.38"/>
</svg>
